%TF.GenerationSoftware,KiCad,Pcbnew,7.0.7*%
%TF.CreationDate,2023-10-16T23:42:31-07:00*%
%TF.ProjectId,cube2,63756265-322e-46b6-9963-61645f706362,rev?*%
%TF.SameCoordinates,Original*%
%TF.FileFunction,Legend,Bot*%
%TF.FilePolarity,Positive*%
%FSLAX46Y46*%
G04 Gerber Fmt 4.6, Leading zero omitted, Abs format (unit mm)*
G04 Created by KiCad (PCBNEW 7.0.7) date 2023-10-16 23:42:31*
%MOMM*%
%LPD*%
G01*
G04 APERTURE LIST*
%ADD10C,0.150000*%
G04 APERTURE END LIST*
D10*
X112629792Y-87826580D02*
X112677411Y-87874200D01*
X112677411Y-87874200D02*
X112820268Y-87921819D01*
X112820268Y-87921819D02*
X112915506Y-87921819D01*
X112915506Y-87921819D02*
X113058363Y-87874200D01*
X113058363Y-87874200D02*
X113153601Y-87778961D01*
X113153601Y-87778961D02*
X113201220Y-87683723D01*
X113201220Y-87683723D02*
X113248839Y-87493247D01*
X113248839Y-87493247D02*
X113248839Y-87350390D01*
X113248839Y-87350390D02*
X113201220Y-87159914D01*
X113201220Y-87159914D02*
X113153601Y-87064676D01*
X113153601Y-87064676D02*
X113058363Y-86969438D01*
X113058363Y-86969438D02*
X112915506Y-86921819D01*
X112915506Y-86921819D02*
X112820268Y-86921819D01*
X112820268Y-86921819D02*
X112677411Y-86969438D01*
X112677411Y-86969438D02*
X112629792Y-87017057D01*
X111772649Y-87255152D02*
X111772649Y-87921819D01*
X112201220Y-87255152D02*
X112201220Y-87778961D01*
X112201220Y-87778961D02*
X112153601Y-87874200D01*
X112153601Y-87874200D02*
X112058363Y-87921819D01*
X112058363Y-87921819D02*
X111915506Y-87921819D01*
X111915506Y-87921819D02*
X111820268Y-87874200D01*
X111820268Y-87874200D02*
X111772649Y-87826580D01*
X111296458Y-87921819D02*
X111296458Y-86921819D01*
X111296458Y-87302771D02*
X111201220Y-87255152D01*
X111201220Y-87255152D02*
X111010744Y-87255152D01*
X111010744Y-87255152D02*
X110915506Y-87302771D01*
X110915506Y-87302771D02*
X110867887Y-87350390D01*
X110867887Y-87350390D02*
X110820268Y-87445628D01*
X110820268Y-87445628D02*
X110820268Y-87731342D01*
X110820268Y-87731342D02*
X110867887Y-87826580D01*
X110867887Y-87826580D02*
X110915506Y-87874200D01*
X110915506Y-87874200D02*
X111010744Y-87921819D01*
X111010744Y-87921819D02*
X111201220Y-87921819D01*
X111201220Y-87921819D02*
X111296458Y-87874200D01*
X110010744Y-87874200D02*
X110105982Y-87921819D01*
X110105982Y-87921819D02*
X110296458Y-87921819D01*
X110296458Y-87921819D02*
X110391696Y-87874200D01*
X110391696Y-87874200D02*
X110439315Y-87778961D01*
X110439315Y-87778961D02*
X110439315Y-87398009D01*
X110439315Y-87398009D02*
X110391696Y-87302771D01*
X110391696Y-87302771D02*
X110296458Y-87255152D01*
X110296458Y-87255152D02*
X110105982Y-87255152D01*
X110105982Y-87255152D02*
X110010744Y-87302771D01*
X110010744Y-87302771D02*
X109963125Y-87398009D01*
X109963125Y-87398009D02*
X109963125Y-87493247D01*
X109963125Y-87493247D02*
X110439315Y-87588485D01*
X109582172Y-87017057D02*
X109534553Y-86969438D01*
X109534553Y-86969438D02*
X109439315Y-86921819D01*
X109439315Y-86921819D02*
X109201220Y-86921819D01*
X109201220Y-86921819D02*
X109105982Y-86969438D01*
X109105982Y-86969438D02*
X109058363Y-87017057D01*
X109058363Y-87017057D02*
X109010744Y-87112295D01*
X109010744Y-87112295D02*
X109010744Y-87207533D01*
X109010744Y-87207533D02*
X109058363Y-87350390D01*
X109058363Y-87350390D02*
X109629791Y-87921819D01*
X109629791Y-87921819D02*
X109010744Y-87921819D01*
X107820267Y-87921819D02*
X107820267Y-86921819D01*
X107820267Y-86921819D02*
X107439315Y-86921819D01*
X107439315Y-86921819D02*
X107344077Y-86969438D01*
X107344077Y-86969438D02*
X107296458Y-87017057D01*
X107296458Y-87017057D02*
X107248839Y-87112295D01*
X107248839Y-87112295D02*
X107248839Y-87255152D01*
X107248839Y-87255152D02*
X107296458Y-87350390D01*
X107296458Y-87350390D02*
X107344077Y-87398009D01*
X107344077Y-87398009D02*
X107439315Y-87445628D01*
X107439315Y-87445628D02*
X107820267Y-87445628D01*
X106677410Y-87921819D02*
X106772648Y-87874200D01*
X106772648Y-87874200D02*
X106820267Y-87826580D01*
X106820267Y-87826580D02*
X106867886Y-87731342D01*
X106867886Y-87731342D02*
X106867886Y-87445628D01*
X106867886Y-87445628D02*
X106820267Y-87350390D01*
X106820267Y-87350390D02*
X106772648Y-87302771D01*
X106772648Y-87302771D02*
X106677410Y-87255152D01*
X106677410Y-87255152D02*
X106534553Y-87255152D01*
X106534553Y-87255152D02*
X106439315Y-87302771D01*
X106439315Y-87302771D02*
X106391696Y-87350390D01*
X106391696Y-87350390D02*
X106344077Y-87445628D01*
X106344077Y-87445628D02*
X106344077Y-87731342D01*
X106344077Y-87731342D02*
X106391696Y-87826580D01*
X106391696Y-87826580D02*
X106439315Y-87874200D01*
X106439315Y-87874200D02*
X106534553Y-87921819D01*
X106534553Y-87921819D02*
X106677410Y-87921819D01*
X106010743Y-87255152D02*
X105820267Y-87921819D01*
X105820267Y-87921819D02*
X105629791Y-87445628D01*
X105629791Y-87445628D02*
X105439315Y-87921819D01*
X105439315Y-87921819D02*
X105248839Y-87255152D01*
X104486934Y-87874200D02*
X104582172Y-87921819D01*
X104582172Y-87921819D02*
X104772648Y-87921819D01*
X104772648Y-87921819D02*
X104867886Y-87874200D01*
X104867886Y-87874200D02*
X104915505Y-87778961D01*
X104915505Y-87778961D02*
X104915505Y-87398009D01*
X104915505Y-87398009D02*
X104867886Y-87302771D01*
X104867886Y-87302771D02*
X104772648Y-87255152D01*
X104772648Y-87255152D02*
X104582172Y-87255152D01*
X104582172Y-87255152D02*
X104486934Y-87302771D01*
X104486934Y-87302771D02*
X104439315Y-87398009D01*
X104439315Y-87398009D02*
X104439315Y-87493247D01*
X104439315Y-87493247D02*
X104915505Y-87588485D01*
X104010743Y-87921819D02*
X104010743Y-87255152D01*
X104010743Y-87445628D02*
X103963124Y-87350390D01*
X103963124Y-87350390D02*
X103915505Y-87302771D01*
X103915505Y-87302771D02*
X103820267Y-87255152D01*
X103820267Y-87255152D02*
X103725029Y-87255152D01*
X102296457Y-87398009D02*
X102153600Y-87445628D01*
X102153600Y-87445628D02*
X102105981Y-87493247D01*
X102105981Y-87493247D02*
X102058362Y-87588485D01*
X102058362Y-87588485D02*
X102058362Y-87731342D01*
X102058362Y-87731342D02*
X102105981Y-87826580D01*
X102105981Y-87826580D02*
X102153600Y-87874200D01*
X102153600Y-87874200D02*
X102248838Y-87921819D01*
X102248838Y-87921819D02*
X102629790Y-87921819D01*
X102629790Y-87921819D02*
X102629790Y-86921819D01*
X102629790Y-86921819D02*
X102296457Y-86921819D01*
X102296457Y-86921819D02*
X102201219Y-86969438D01*
X102201219Y-86969438D02*
X102153600Y-87017057D01*
X102153600Y-87017057D02*
X102105981Y-87112295D01*
X102105981Y-87112295D02*
X102105981Y-87207533D01*
X102105981Y-87207533D02*
X102153600Y-87302771D01*
X102153600Y-87302771D02*
X102201219Y-87350390D01*
X102201219Y-87350390D02*
X102296457Y-87398009D01*
X102296457Y-87398009D02*
X102629790Y-87398009D01*
X101486933Y-87921819D02*
X101582171Y-87874200D01*
X101582171Y-87874200D02*
X101629790Y-87826580D01*
X101629790Y-87826580D02*
X101677409Y-87731342D01*
X101677409Y-87731342D02*
X101677409Y-87445628D01*
X101677409Y-87445628D02*
X101629790Y-87350390D01*
X101629790Y-87350390D02*
X101582171Y-87302771D01*
X101582171Y-87302771D02*
X101486933Y-87255152D01*
X101486933Y-87255152D02*
X101344076Y-87255152D01*
X101344076Y-87255152D02*
X101248838Y-87302771D01*
X101248838Y-87302771D02*
X101201219Y-87350390D01*
X101201219Y-87350390D02*
X101153600Y-87445628D01*
X101153600Y-87445628D02*
X101153600Y-87731342D01*
X101153600Y-87731342D02*
X101201219Y-87826580D01*
X101201219Y-87826580D02*
X101248838Y-87874200D01*
X101248838Y-87874200D02*
X101344076Y-87921819D01*
X101344076Y-87921819D02*
X101486933Y-87921819D01*
X100296457Y-87921819D02*
X100296457Y-87398009D01*
X100296457Y-87398009D02*
X100344076Y-87302771D01*
X100344076Y-87302771D02*
X100439314Y-87255152D01*
X100439314Y-87255152D02*
X100629790Y-87255152D01*
X100629790Y-87255152D02*
X100725028Y-87302771D01*
X100296457Y-87874200D02*
X100391695Y-87921819D01*
X100391695Y-87921819D02*
X100629790Y-87921819D01*
X100629790Y-87921819D02*
X100725028Y-87874200D01*
X100725028Y-87874200D02*
X100772647Y-87778961D01*
X100772647Y-87778961D02*
X100772647Y-87683723D01*
X100772647Y-87683723D02*
X100725028Y-87588485D01*
X100725028Y-87588485D02*
X100629790Y-87540866D01*
X100629790Y-87540866D02*
X100391695Y-87540866D01*
X100391695Y-87540866D02*
X100296457Y-87493247D01*
X99820266Y-87921819D02*
X99820266Y-87255152D01*
X99820266Y-87445628D02*
X99772647Y-87350390D01*
X99772647Y-87350390D02*
X99725028Y-87302771D01*
X99725028Y-87302771D02*
X99629790Y-87255152D01*
X99629790Y-87255152D02*
X99534552Y-87255152D01*
X98772647Y-87921819D02*
X98772647Y-86921819D01*
X98772647Y-87874200D02*
X98867885Y-87921819D01*
X98867885Y-87921819D02*
X99058361Y-87921819D01*
X99058361Y-87921819D02*
X99153599Y-87874200D01*
X99153599Y-87874200D02*
X99201218Y-87826580D01*
X99201218Y-87826580D02*
X99248837Y-87731342D01*
X99248837Y-87731342D02*
X99248837Y-87445628D01*
X99248837Y-87445628D02*
X99201218Y-87350390D01*
X99201218Y-87350390D02*
X99153599Y-87302771D01*
X99153599Y-87302771D02*
X99058361Y-87255152D01*
X99058361Y-87255152D02*
X98867885Y-87255152D01*
X98867885Y-87255152D02*
X98772647Y-87302771D01*
X113344077Y-88531819D02*
X112772649Y-88531819D01*
X113058363Y-89531819D02*
X113058363Y-88531819D01*
X112296458Y-89531819D02*
X112391696Y-89484200D01*
X112391696Y-89484200D02*
X112439315Y-89436580D01*
X112439315Y-89436580D02*
X112486934Y-89341342D01*
X112486934Y-89341342D02*
X112486934Y-89055628D01*
X112486934Y-89055628D02*
X112439315Y-88960390D01*
X112439315Y-88960390D02*
X112391696Y-88912771D01*
X112391696Y-88912771D02*
X112296458Y-88865152D01*
X112296458Y-88865152D02*
X112153601Y-88865152D01*
X112153601Y-88865152D02*
X112058363Y-88912771D01*
X112058363Y-88912771D02*
X112010744Y-88960390D01*
X112010744Y-88960390D02*
X111963125Y-89055628D01*
X111963125Y-89055628D02*
X111963125Y-89341342D01*
X111963125Y-89341342D02*
X112010744Y-89436580D01*
X112010744Y-89436580D02*
X112058363Y-89484200D01*
X112058363Y-89484200D02*
X112153601Y-89531819D01*
X112153601Y-89531819D02*
X112296458Y-89531819D01*
X111534553Y-89531819D02*
X111534553Y-88865152D01*
X111534553Y-88960390D02*
X111486934Y-88912771D01*
X111486934Y-88912771D02*
X111391696Y-88865152D01*
X111391696Y-88865152D02*
X111248839Y-88865152D01*
X111248839Y-88865152D02*
X111153601Y-88912771D01*
X111153601Y-88912771D02*
X111105982Y-89008009D01*
X111105982Y-89008009D02*
X111105982Y-89531819D01*
X111105982Y-89008009D02*
X111058363Y-88912771D01*
X111058363Y-88912771D02*
X110963125Y-88865152D01*
X110963125Y-88865152D02*
X110820268Y-88865152D01*
X110820268Y-88865152D02*
X110725029Y-88912771D01*
X110725029Y-88912771D02*
X110677410Y-89008009D01*
X110677410Y-89008009D02*
X110677410Y-89531819D01*
X109582172Y-88531819D02*
X109248839Y-89531819D01*
X109248839Y-89531819D02*
X108915506Y-88531819D01*
X108201220Y-89484200D02*
X108296458Y-89531819D01*
X108296458Y-89531819D02*
X108486934Y-89531819D01*
X108486934Y-89531819D02*
X108582172Y-89484200D01*
X108582172Y-89484200D02*
X108629791Y-89388961D01*
X108629791Y-89388961D02*
X108629791Y-89008009D01*
X108629791Y-89008009D02*
X108582172Y-88912771D01*
X108582172Y-88912771D02*
X108486934Y-88865152D01*
X108486934Y-88865152D02*
X108296458Y-88865152D01*
X108296458Y-88865152D02*
X108201220Y-88912771D01*
X108201220Y-88912771D02*
X108153601Y-89008009D01*
X108153601Y-89008009D02*
X108153601Y-89103247D01*
X108153601Y-89103247D02*
X108629791Y-89198485D01*
X107725029Y-89531819D02*
X107725029Y-88865152D01*
X107725029Y-89055628D02*
X107677410Y-88960390D01*
X107677410Y-88960390D02*
X107629791Y-88912771D01*
X107629791Y-88912771D02*
X107534553Y-88865152D01*
X107534553Y-88865152D02*
X107439315Y-88865152D01*
X107105981Y-89531819D02*
X107105981Y-88531819D01*
X107105981Y-88912771D02*
X107010743Y-88865152D01*
X107010743Y-88865152D02*
X106820267Y-88865152D01*
X106820267Y-88865152D02*
X106725029Y-88912771D01*
X106725029Y-88912771D02*
X106677410Y-88960390D01*
X106677410Y-88960390D02*
X106629791Y-89055628D01*
X106629791Y-89055628D02*
X106629791Y-89341342D01*
X106629791Y-89341342D02*
X106677410Y-89436580D01*
X106677410Y-89436580D02*
X106725029Y-89484200D01*
X106725029Y-89484200D02*
X106820267Y-89531819D01*
X106820267Y-89531819D02*
X107010743Y-89531819D01*
X107010743Y-89531819D02*
X107105981Y-89484200D01*
X105820267Y-89484200D02*
X105915505Y-89531819D01*
X105915505Y-89531819D02*
X106105981Y-89531819D01*
X106105981Y-89531819D02*
X106201219Y-89484200D01*
X106201219Y-89484200D02*
X106248838Y-89388961D01*
X106248838Y-89388961D02*
X106248838Y-89008009D01*
X106248838Y-89008009D02*
X106201219Y-88912771D01*
X106201219Y-88912771D02*
X106105981Y-88865152D01*
X106105981Y-88865152D02*
X105915505Y-88865152D01*
X105915505Y-88865152D02*
X105820267Y-88912771D01*
X105820267Y-88912771D02*
X105772648Y-89008009D01*
X105772648Y-89008009D02*
X105772648Y-89103247D01*
X105772648Y-89103247D02*
X106248838Y-89198485D01*
X104915505Y-88865152D02*
X104915505Y-89531819D01*
X105344076Y-88865152D02*
X105344076Y-89388961D01*
X105344076Y-89388961D02*
X105296457Y-89484200D01*
X105296457Y-89484200D02*
X105201219Y-89531819D01*
X105201219Y-89531819D02*
X105058362Y-89531819D01*
X105058362Y-89531819D02*
X104963124Y-89484200D01*
X104963124Y-89484200D02*
X104915505Y-89436580D01*
X104439314Y-89531819D02*
X104439314Y-88865152D01*
X104439314Y-89055628D02*
X104391695Y-88960390D01*
X104391695Y-88960390D02*
X104344076Y-88912771D01*
X104344076Y-88912771D02*
X104248838Y-88865152D01*
X104248838Y-88865152D02*
X104153600Y-88865152D01*
X103439314Y-89484200D02*
X103534552Y-89531819D01*
X103534552Y-89531819D02*
X103725028Y-89531819D01*
X103725028Y-89531819D02*
X103820266Y-89484200D01*
X103820266Y-89484200D02*
X103867885Y-89388961D01*
X103867885Y-89388961D02*
X103867885Y-89008009D01*
X103867885Y-89008009D02*
X103820266Y-88912771D01*
X103820266Y-88912771D02*
X103725028Y-88865152D01*
X103725028Y-88865152D02*
X103534552Y-88865152D01*
X103534552Y-88865152D02*
X103439314Y-88912771D01*
X103439314Y-88912771D02*
X103391695Y-89008009D01*
X103391695Y-89008009D02*
X103391695Y-89103247D01*
X103391695Y-89103247D02*
X103867885Y-89198485D01*
X102201218Y-89150866D02*
X101439314Y-89150866D01*
X100248837Y-88627057D02*
X100201218Y-88579438D01*
X100201218Y-88579438D02*
X100105980Y-88531819D01*
X100105980Y-88531819D02*
X99867885Y-88531819D01*
X99867885Y-88531819D02*
X99772647Y-88579438D01*
X99772647Y-88579438D02*
X99725028Y-88627057D01*
X99725028Y-88627057D02*
X99677409Y-88722295D01*
X99677409Y-88722295D02*
X99677409Y-88817533D01*
X99677409Y-88817533D02*
X99725028Y-88960390D01*
X99725028Y-88960390D02*
X100296456Y-89531819D01*
X100296456Y-89531819D02*
X99677409Y-89531819D01*
X99058361Y-88531819D02*
X98963123Y-88531819D01*
X98963123Y-88531819D02*
X98867885Y-88579438D01*
X98867885Y-88579438D02*
X98820266Y-88627057D01*
X98820266Y-88627057D02*
X98772647Y-88722295D01*
X98772647Y-88722295D02*
X98725028Y-88912771D01*
X98725028Y-88912771D02*
X98725028Y-89150866D01*
X98725028Y-89150866D02*
X98772647Y-89341342D01*
X98772647Y-89341342D02*
X98820266Y-89436580D01*
X98820266Y-89436580D02*
X98867885Y-89484200D01*
X98867885Y-89484200D02*
X98963123Y-89531819D01*
X98963123Y-89531819D02*
X99058361Y-89531819D01*
X99058361Y-89531819D02*
X99153599Y-89484200D01*
X99153599Y-89484200D02*
X99201218Y-89436580D01*
X99201218Y-89436580D02*
X99248837Y-89341342D01*
X99248837Y-89341342D02*
X99296456Y-89150866D01*
X99296456Y-89150866D02*
X99296456Y-88912771D01*
X99296456Y-88912771D02*
X99248837Y-88722295D01*
X99248837Y-88722295D02*
X99201218Y-88627057D01*
X99201218Y-88627057D02*
X99153599Y-88579438D01*
X99153599Y-88579438D02*
X99058361Y-88531819D01*
X98344075Y-88627057D02*
X98296456Y-88579438D01*
X98296456Y-88579438D02*
X98201218Y-88531819D01*
X98201218Y-88531819D02*
X97963123Y-88531819D01*
X97963123Y-88531819D02*
X97867885Y-88579438D01*
X97867885Y-88579438D02*
X97820266Y-88627057D01*
X97820266Y-88627057D02*
X97772647Y-88722295D01*
X97772647Y-88722295D02*
X97772647Y-88817533D01*
X97772647Y-88817533D02*
X97820266Y-88960390D01*
X97820266Y-88960390D02*
X98391694Y-89531819D01*
X98391694Y-89531819D02*
X97772647Y-89531819D01*
X97439313Y-88531819D02*
X96820266Y-88531819D01*
X96820266Y-88531819D02*
X97153599Y-88912771D01*
X97153599Y-88912771D02*
X97010742Y-88912771D01*
X97010742Y-88912771D02*
X96915504Y-88960390D01*
X96915504Y-88960390D02*
X96867885Y-89008009D01*
X96867885Y-89008009D02*
X96820266Y-89103247D01*
X96820266Y-89103247D02*
X96820266Y-89341342D01*
X96820266Y-89341342D02*
X96867885Y-89436580D01*
X96867885Y-89436580D02*
X96915504Y-89484200D01*
X96915504Y-89484200D02*
X97010742Y-89531819D01*
X97010742Y-89531819D02*
X97296456Y-89531819D01*
X97296456Y-89531819D02*
X97391694Y-89484200D01*
X97391694Y-89484200D02*
X97439313Y-89436580D01*
M02*
