%TF.GenerationSoftware,KiCad,Pcbnew,7.0.7*%
%TF.CreationDate,2023-10-16T23:42:31-07:00*%
%TF.ProjectId,cube2,63756265-322e-46b6-9963-61645f706362,rev?*%
%TF.SameCoordinates,Original*%
%TF.FileFunction,Copper,L2,Bot*%
%TF.FilePolarity,Positive*%
%FSLAX46Y46*%
G04 Gerber Fmt 4.6, Leading zero omitted, Abs format (unit mm)*
G04 Created by KiCad (PCBNEW 7.0.7) date 2023-10-16 23:42:31*
%MOMM*%
%LPD*%
G01*
G04 APERTURE LIST*
%TA.AperFunction,ComponentPad*%
%ADD10R,3.960000X1.980000*%
%TD*%
%TA.AperFunction,ComponentPad*%
%ADD11O,3.960000X1.980000*%
%TD*%
%TA.AperFunction,ComponentPad*%
%ADD12C,3.600000*%
%TD*%
%TA.AperFunction,ComponentPad*%
%ADD13R,1.700000X1.700000*%
%TD*%
%TA.AperFunction,ComponentPad*%
%ADD14O,1.700000X1.700000*%
%TD*%
%TA.AperFunction,ComponentPad*%
%ADD15R,2.540000X2.540000*%
%TD*%
%TA.AperFunction,ComponentPad*%
%ADD16C,2.540000*%
%TD*%
%TA.AperFunction,ComponentPad*%
%ADD17R,1.980000X3.960000*%
%TD*%
%TA.AperFunction,ComponentPad*%
%ADD18O,1.980000X3.960000*%
%TD*%
%TA.AperFunction,ViaPad*%
%ADD19C,2.540000*%
%TD*%
G04 APERTURE END LIST*
D10*
%TO.P,J7,1,Pin_1*%
%TO.N,Net-(J2-Pin_1)*%
X167000000Y-125000000D03*
D11*
%TO.P,J7,2,Pin_2*%
%TO.N,GND*%
X167000000Y-120000000D03*
%TD*%
D12*
%TO.P,J3,1,Pin_1*%
%TO.N,GND*%
X58000000Y-110000000D03*
%TD*%
D13*
%TO.P,JP4,1,A*%
%TO.N,+BATT2*%
X153035000Y-58166000D03*
D14*
%TO.P,JP4,2,B*%
%TO.N,Net-(J13-Pin_1)*%
X155575000Y-58166000D03*
%TD*%
D15*
%TO.P,U3,1,Vin*%
%TO.N,Net-(J10-Pin_1)*%
X58420000Y-62230000D03*
D16*
%TO.P,U3,2,GND*%
%TO.N,GND*%
X40640000Y-62230000D03*
%TO.P,U3,3,GND*%
X40640000Y-102870000D03*
%TO.P,U3,4,Vout*%
%TO.N,Net-(JP1-A)*%
X58420000Y-102870000D03*
%TD*%
D12*
%TO.P,J1,1,Pin_1*%
%TO.N,Net-(J1-Pin_1)*%
X58000000Y-117000000D03*
%TD*%
D10*
%TO.P,J4,1,Pin_1*%
%TO.N,Net-(J2-Pin_1)*%
X167000000Y-114000000D03*
D11*
%TO.P,J4,2,Pin_2*%
%TO.N,GND*%
X167000000Y-109000000D03*
%TD*%
D15*
%TO.P,U2,1,Vin*%
%TO.N,Net-(J13-Pin_1)*%
X170180000Y-62230000D03*
D16*
%TO.P,U2,2,GND*%
%TO.N,GND*%
X152400000Y-62230000D03*
%TO.P,U2,3,GND*%
X152400000Y-102870000D03*
%TO.P,U2,4,Vout*%
%TO.N,Net-(JP2-A)*%
X170180000Y-102870000D03*
%TD*%
D12*
%TO.P,J2,1,Pin_1*%
%TO.N,Net-(J2-Pin_1)*%
X155000000Y-119000000D03*
%TD*%
D10*
%TO.P,J15,1,Pin_1*%
%TO.N,Net-(J1-Pin_1)*%
X44196000Y-113030000D03*
D11*
%TO.P,J15,2,Pin_2*%
%TO.N,GND*%
X44196000Y-118030000D03*
%TD*%
D13*
%TO.P,JP3,1,A*%
%TO.N,+BATT*%
X58420000Y-57912000D03*
D14*
%TO.P,JP3,2,B*%
%TO.N,Net-(J10-Pin_1)*%
X55880000Y-57912000D03*
%TD*%
D13*
%TO.P,JP2,1,A*%
%TO.N,Net-(JP2-A)*%
X157460000Y-107700000D03*
D14*
%TO.P,JP2,2,B*%
%TO.N,Net-(J2-Pin_1)*%
X160000000Y-107700000D03*
%TD*%
D17*
%TO.P,J6,1,Pin_1*%
%TO.N,Net-(J1-Pin_1)*%
X53000000Y-136000000D03*
D18*
%TO.P,J6,2,Pin_2*%
%TO.N,GND*%
X58000000Y-136000000D03*
%TD*%
D12*
%TO.P,J11,1,Pin_1*%
%TO.N,GND*%
X154940000Y-113000000D03*
%TD*%
%TO.P,J13,1,Pin_1*%
%TO.N,Net-(J13-Pin_1)*%
X156464000Y-53594000D03*
%TD*%
D17*
%TO.P,J8,1,Pin_1*%
%TO.N,Net-(J2-Pin_1)*%
X153000000Y-136000000D03*
D18*
%TO.P,J8,2,Pin_2*%
%TO.N,GND*%
X158000000Y-136000000D03*
%TD*%
D12*
%TO.P,J9,1,Pin_1*%
%TO.N,+BATT*%
X61214000Y-53340000D03*
%TD*%
%TO.P,J10,1,Pin_1*%
%TO.N,Net-(J10-Pin_1)*%
X55880000Y-53340000D03*
%TD*%
%TO.P,J12,1,Pin_1*%
%TO.N,+BATT2*%
X150876000Y-53594000D03*
%TD*%
D10*
%TO.P,J5,1,Pin_1*%
%TO.N,Net-(J1-Pin_1)*%
X44196000Y-123952000D03*
D11*
%TO.P,J5,2,Pin_2*%
%TO.N,GND*%
X44196000Y-128952000D03*
%TD*%
D13*
%TO.P,JP1,1,A*%
%TO.N,Net-(JP1-A)*%
X48260000Y-107315000D03*
D14*
%TO.P,JP1,2,B*%
%TO.N,Net-(J1-Pin_1)*%
X50800000Y-107315000D03*
%TD*%
D19*
%TO.N,GND*%
X78232000Y-55118000D03*
X157988000Y-124968000D03*
X66040000Y-55118000D03*
X152400000Y-86614000D03*
X127000000Y-54864000D03*
X55626000Y-139192000D03*
X120142000Y-60452000D03*
X46990000Y-62484000D03*
%TD*%
%TA.AperFunction,Conductor*%
%TO.N,GND*%
G36*
X54940841Y-51019685D02*
G01*
X54986596Y-51072489D01*
X54996540Y-51141647D01*
X54967515Y-51205203D01*
X54928646Y-51235212D01*
X54723283Y-51336485D01*
X54723268Y-51336494D01*
X54471657Y-51504615D01*
X54244141Y-51704141D01*
X54044615Y-51931657D01*
X53876494Y-52183268D01*
X53876485Y-52183283D01*
X53742655Y-52454663D01*
X53742646Y-52454684D01*
X53645378Y-52741225D01*
X53645376Y-52741233D01*
X53645376Y-52741234D01*
X53586339Y-53038034D01*
X53566547Y-53340000D01*
X53586339Y-53641966D01*
X53645376Y-53938766D01*
X53645378Y-53938773D01*
X53645380Y-53938779D01*
X53742644Y-54225312D01*
X53742648Y-54225322D01*
X53876488Y-54496722D01*
X53876492Y-54496729D01*
X54044612Y-54748339D01*
X54244141Y-54975858D01*
X54471660Y-55175387D01*
X54723270Y-55343507D01*
X54723277Y-55343511D01*
X54994677Y-55477351D01*
X54994687Y-55477355D01*
X55199796Y-55546979D01*
X55281234Y-55574624D01*
X55578034Y-55633661D01*
X55880000Y-55653453D01*
X56181966Y-55633661D01*
X56478766Y-55574624D01*
X56671813Y-55509093D01*
X56765312Y-55477355D01*
X56765322Y-55477351D01*
X56862583Y-55429387D01*
X57036727Y-55343509D01*
X57288341Y-55175386D01*
X57515858Y-54975858D01*
X57715386Y-54748341D01*
X57883509Y-54496727D01*
X58017352Y-54225320D01*
X58114624Y-53938766D01*
X58173661Y-53641966D01*
X58193453Y-53340000D01*
X58173661Y-53038034D01*
X58114624Y-52741234D01*
X58017352Y-52454680D01*
X58008773Y-52437283D01*
X57883514Y-52183283D01*
X57883505Y-52183268D01*
X57733081Y-51958142D01*
X57715386Y-51931659D01*
X57563629Y-51758614D01*
X57515858Y-51704141D01*
X57288339Y-51504612D01*
X57036729Y-51336492D01*
X57036722Y-51336488D01*
X56831354Y-51235212D01*
X56779935Y-51187907D01*
X56762253Y-51120311D01*
X56783923Y-51053887D01*
X56838065Y-51009723D01*
X56886198Y-51000000D01*
X60207802Y-51000000D01*
X60274841Y-51019685D01*
X60320596Y-51072489D01*
X60330540Y-51141647D01*
X60301515Y-51205203D01*
X60262646Y-51235212D01*
X60057283Y-51336485D01*
X60057268Y-51336494D01*
X59805657Y-51504615D01*
X59578141Y-51704141D01*
X59378615Y-51931657D01*
X59210494Y-52183268D01*
X59210485Y-52183283D01*
X59076655Y-52454663D01*
X59076646Y-52454684D01*
X58979378Y-52741225D01*
X58979376Y-52741233D01*
X58979376Y-52741234D01*
X58920339Y-53038034D01*
X58900547Y-53340000D01*
X58920339Y-53641966D01*
X58979376Y-53938766D01*
X58979378Y-53938773D01*
X58979380Y-53938779D01*
X59076644Y-54225312D01*
X59076648Y-54225322D01*
X59210488Y-54496722D01*
X59210492Y-54496729D01*
X59378612Y-54748339D01*
X59578141Y-54975858D01*
X59805660Y-55175387D01*
X60057270Y-55343507D01*
X60057277Y-55343511D01*
X60328677Y-55477351D01*
X60328687Y-55477355D01*
X60533796Y-55546979D01*
X60615234Y-55574624D01*
X60912034Y-55633661D01*
X61214000Y-55653453D01*
X61515966Y-55633661D01*
X61812766Y-55574624D01*
X62005813Y-55509093D01*
X62099312Y-55477355D01*
X62099322Y-55477351D01*
X62196583Y-55429387D01*
X62370727Y-55343509D01*
X62622341Y-55175386D01*
X62849858Y-54975858D01*
X63049386Y-54748341D01*
X63217509Y-54496727D01*
X63351352Y-54225320D01*
X63448624Y-53938766D01*
X63507661Y-53641966D01*
X63527453Y-53340000D01*
X63507661Y-53038034D01*
X63448624Y-52741234D01*
X63351352Y-52454680D01*
X63342773Y-52437283D01*
X63217514Y-52183283D01*
X63217505Y-52183268D01*
X63067081Y-51958142D01*
X63049386Y-51931659D01*
X62897629Y-51758614D01*
X62849858Y-51704141D01*
X62622339Y-51504612D01*
X62370729Y-51336492D01*
X62370722Y-51336488D01*
X62165354Y-51235212D01*
X62113935Y-51187907D01*
X62096253Y-51120311D01*
X62117923Y-51053887D01*
X62172065Y-51009723D01*
X62220198Y-51000000D01*
X95606000Y-51000000D01*
X95673039Y-51019685D01*
X95718794Y-51072489D01*
X95730000Y-51123999D01*
X95730000Y-62000000D01*
X115000000Y-62000000D01*
X115000000Y-59064654D01*
X151676500Y-59064654D01*
X151683011Y-59125202D01*
X151683011Y-59125204D01*
X151723384Y-59233444D01*
X151734111Y-59262204D01*
X151821739Y-59379261D01*
X151938796Y-59466889D01*
X152075799Y-59517989D01*
X152103050Y-59520918D01*
X152136345Y-59524499D01*
X152136362Y-59524500D01*
X153933638Y-59524500D01*
X153933654Y-59524499D01*
X153960692Y-59521591D01*
X153994201Y-59517989D01*
X154131204Y-59466889D01*
X154248261Y-59379261D01*
X154335889Y-59262204D01*
X154381138Y-59140887D01*
X154423009Y-59084956D01*
X154488474Y-59060539D01*
X154556746Y-59075391D01*
X154588545Y-59100236D01*
X154651760Y-59168906D01*
X154829424Y-59307189D01*
X154829425Y-59307189D01*
X154829427Y-59307191D01*
X154956135Y-59375761D01*
X155027426Y-59414342D01*
X155240365Y-59487444D01*
X155462431Y-59524500D01*
X155687569Y-59524500D01*
X155909635Y-59487444D01*
X156122574Y-59414342D01*
X156320576Y-59307189D01*
X156498240Y-59168906D01*
X156650722Y-59003268D01*
X156773860Y-58814791D01*
X156864296Y-58608616D01*
X156919564Y-58390368D01*
X156938156Y-58166000D01*
X156919564Y-57941632D01*
X156864296Y-57723384D01*
X156773860Y-57517209D01*
X156742614Y-57469384D01*
X156687930Y-57385683D01*
X156650722Y-57328732D01*
X156650719Y-57328729D01*
X156650715Y-57328723D01*
X156498243Y-57163097D01*
X156498238Y-57163092D01*
X156320577Y-57024812D01*
X156320572Y-57024808D01*
X156122580Y-56917661D01*
X156122577Y-56917659D01*
X156122574Y-56917658D01*
X156122571Y-56917657D01*
X156122569Y-56917656D01*
X155909637Y-56844556D01*
X155687569Y-56807500D01*
X155462431Y-56807500D01*
X155240362Y-56844556D01*
X155027430Y-56917656D01*
X155027419Y-56917661D01*
X154829427Y-57024808D01*
X154829422Y-57024812D01*
X154651761Y-57163092D01*
X154588548Y-57231760D01*
X154528661Y-57267750D01*
X154458823Y-57265649D01*
X154401207Y-57226124D01*
X154381138Y-57191110D01*
X154335889Y-57069796D01*
X154302214Y-57024812D01*
X154248261Y-56952739D01*
X154131204Y-56865111D01*
X153994203Y-56814011D01*
X153933654Y-56807500D01*
X153933638Y-56807500D01*
X152136362Y-56807500D01*
X152136345Y-56807500D01*
X152075797Y-56814011D01*
X152075795Y-56814011D01*
X151938795Y-56865111D01*
X151821739Y-56952739D01*
X151734111Y-57069795D01*
X151683011Y-57206795D01*
X151683011Y-57206797D01*
X151676500Y-57267345D01*
X151676500Y-59064654D01*
X115000000Y-59064654D01*
X115000000Y-53594000D01*
X148562547Y-53594000D01*
X148582339Y-53895966D01*
X148641376Y-54192766D01*
X148641378Y-54192773D01*
X148641380Y-54192779D01*
X148738644Y-54479312D01*
X148738648Y-54479322D01*
X148872488Y-54750722D01*
X148872492Y-54750729D01*
X149040612Y-55002339D01*
X149240141Y-55229858D01*
X149467660Y-55429387D01*
X149719270Y-55597507D01*
X149719277Y-55597511D01*
X149990677Y-55731351D01*
X149990687Y-55731355D01*
X150192910Y-55800000D01*
X150277234Y-55828624D01*
X150574034Y-55887661D01*
X150876000Y-55907453D01*
X151177966Y-55887661D01*
X151474766Y-55828624D01*
X151667813Y-55763093D01*
X151761312Y-55731355D01*
X151761322Y-55731351D01*
X152032727Y-55597509D01*
X152284341Y-55429386D01*
X152511858Y-55229858D01*
X152711386Y-55002341D01*
X152879509Y-54750727D01*
X153013352Y-54479320D01*
X153110624Y-54192766D01*
X153169661Y-53895966D01*
X153189453Y-53594000D01*
X153169661Y-53292034D01*
X153110624Y-52995234D01*
X153013352Y-52708680D01*
X152913390Y-52505977D01*
X152879514Y-52437283D01*
X152879505Y-52437268D01*
X152834247Y-52369534D01*
X152711386Y-52185659D01*
X152667670Y-52135811D01*
X152511858Y-51958141D01*
X152284339Y-51758612D01*
X152032729Y-51590492D01*
X152032722Y-51590488D01*
X151761322Y-51456648D01*
X151761312Y-51456644D01*
X151474779Y-51359380D01*
X151474773Y-51359378D01*
X151474766Y-51359376D01*
X151177966Y-51300339D01*
X150876000Y-51280547D01*
X150574034Y-51300339D01*
X150574028Y-51300340D01*
X150574023Y-51300341D01*
X150277239Y-51359375D01*
X150277225Y-51359378D01*
X149990684Y-51456646D01*
X149990663Y-51456655D01*
X149719283Y-51590485D01*
X149719268Y-51590494D01*
X149467657Y-51758615D01*
X149240141Y-51958141D01*
X149040615Y-52185657D01*
X148872494Y-52437268D01*
X148872485Y-52437283D01*
X148738655Y-52708663D01*
X148738646Y-52708684D01*
X148641378Y-52995225D01*
X148641376Y-52995233D01*
X148641376Y-52995234D01*
X148582339Y-53292034D01*
X148562547Y-53594000D01*
X115000000Y-53594000D01*
X115000000Y-51124000D01*
X115019685Y-51056961D01*
X115072489Y-51011206D01*
X115124000Y-51000000D01*
X158876000Y-51000000D01*
X158943039Y-51019685D01*
X158988794Y-51072489D01*
X159000000Y-51124000D01*
X159000000Y-53251362D01*
X158980315Y-53318401D01*
X158927511Y-53364156D01*
X158858353Y-53374100D01*
X158794797Y-53345075D01*
X158757023Y-53286297D01*
X158754383Y-53275553D01*
X158742681Y-53216728D01*
X158698624Y-52995234D01*
X158601352Y-52708680D01*
X158501390Y-52505977D01*
X158467514Y-52437283D01*
X158467505Y-52437268D01*
X158422247Y-52369534D01*
X158299386Y-52185659D01*
X158255670Y-52135811D01*
X158099858Y-51958141D01*
X157872339Y-51758612D01*
X157620729Y-51590492D01*
X157620722Y-51590488D01*
X157349322Y-51456648D01*
X157349312Y-51456644D01*
X157062779Y-51359380D01*
X157062773Y-51359378D01*
X157062766Y-51359376D01*
X156765966Y-51300339D01*
X156464000Y-51280547D01*
X156162034Y-51300339D01*
X156162028Y-51300340D01*
X156162023Y-51300341D01*
X155865239Y-51359375D01*
X155865225Y-51359378D01*
X155578684Y-51456646D01*
X155578663Y-51456655D01*
X155307283Y-51590485D01*
X155307268Y-51590494D01*
X155055657Y-51758615D01*
X154828141Y-51958141D01*
X154628615Y-52185657D01*
X154460494Y-52437268D01*
X154460485Y-52437283D01*
X154326655Y-52708663D01*
X154326646Y-52708684D01*
X154229378Y-52995225D01*
X154229376Y-52995233D01*
X154229376Y-52995234D01*
X154170339Y-53292034D01*
X154150547Y-53594000D01*
X154170339Y-53895966D01*
X154229376Y-54192766D01*
X154229378Y-54192773D01*
X154229380Y-54192779D01*
X154326644Y-54479312D01*
X154326648Y-54479322D01*
X154460488Y-54750722D01*
X154460492Y-54750729D01*
X154628612Y-55002339D01*
X154828141Y-55229858D01*
X155055660Y-55429387D01*
X155307270Y-55597507D01*
X155307277Y-55597511D01*
X155578677Y-55731351D01*
X155578687Y-55731355D01*
X155780910Y-55800000D01*
X155865234Y-55828624D01*
X156162034Y-55887661D01*
X156464000Y-55907453D01*
X156765966Y-55887661D01*
X157062766Y-55828624D01*
X157255813Y-55763093D01*
X157349312Y-55731355D01*
X157349322Y-55731351D01*
X157620727Y-55597509D01*
X157872341Y-55429386D01*
X158099858Y-55229858D01*
X158299386Y-55002341D01*
X158467509Y-54750727D01*
X158601352Y-54479320D01*
X158698624Y-54192766D01*
X158754382Y-53912446D01*
X158786768Y-53850535D01*
X158847483Y-53815961D01*
X158917253Y-53819700D01*
X158973925Y-53860567D01*
X158999506Y-53925585D01*
X159000000Y-53936637D01*
X159000000Y-61000000D01*
X168277500Y-61000000D01*
X168344539Y-61019685D01*
X168390294Y-61072489D01*
X168401500Y-61124000D01*
X168401500Y-63548654D01*
X168408011Y-63609202D01*
X168408011Y-63609204D01*
X168459110Y-63746203D01*
X168459111Y-63746204D01*
X168546739Y-63863261D01*
X168663796Y-63950889D01*
X168778949Y-63993839D01*
X168795463Y-63999999D01*
X168800799Y-64001989D01*
X168828050Y-64004918D01*
X168861345Y-64008499D01*
X168861362Y-64008500D01*
X171498638Y-64008500D01*
X171498654Y-64008499D01*
X171525692Y-64005591D01*
X171559201Y-64001989D01*
X171564537Y-63999999D01*
X171573768Y-63996555D01*
X171696204Y-63950889D01*
X171813261Y-63863261D01*
X171900889Y-63746204D01*
X171951989Y-63609201D01*
X171955591Y-63575692D01*
X171958499Y-63548654D01*
X171958500Y-63548637D01*
X171958500Y-61124000D01*
X171978185Y-61056961D01*
X172030989Y-61011206D01*
X172082500Y-61000000D01*
X172876000Y-61000000D01*
X172943039Y-61019685D01*
X172988794Y-61072489D01*
X173000000Y-61124000D01*
X173000000Y-129876000D01*
X172980315Y-129943039D01*
X172927511Y-129988794D01*
X172876000Y-130000000D01*
X160000000Y-130000000D01*
X160000000Y-140675500D01*
X159980315Y-140742539D01*
X159927511Y-140788294D01*
X159876000Y-140799500D01*
X115124000Y-140799500D01*
X115056961Y-140779815D01*
X115011206Y-140727011D01*
X115000000Y-140675500D01*
X115000000Y-138028654D01*
X151501500Y-138028654D01*
X151508011Y-138089202D01*
X151508011Y-138089204D01*
X151559110Y-138226204D01*
X151559111Y-138226204D01*
X151646739Y-138343261D01*
X151763796Y-138430889D01*
X151900799Y-138481989D01*
X151928050Y-138484918D01*
X151961345Y-138488499D01*
X151961362Y-138488500D01*
X154038638Y-138488500D01*
X154038654Y-138488499D01*
X154065692Y-138485591D01*
X154099201Y-138481989D01*
X154236204Y-138430889D01*
X154353261Y-138343261D01*
X154440889Y-138226204D01*
X154491694Y-138089991D01*
X154491988Y-138089204D01*
X154491988Y-138089203D01*
X154491989Y-138089201D01*
X154496180Y-138050217D01*
X154498499Y-138028654D01*
X154498500Y-138028637D01*
X154498500Y-137051631D01*
X156510000Y-137051631D01*
X156525284Y-137236090D01*
X156585901Y-137475460D01*
X156685092Y-137701591D01*
X156820148Y-137908311D01*
X156987394Y-138089988D01*
X156987398Y-138089991D01*
X157182245Y-138241647D01*
X157182251Y-138241651D01*
X157399421Y-138359178D01*
X157399429Y-138359181D01*
X157632970Y-138439356D01*
X157749999Y-138458885D01*
X157750000Y-138458884D01*
X157750000Y-136774458D01*
X157769685Y-136707419D01*
X157822489Y-136661664D01*
X157888944Y-136651362D01*
X157952297Y-136659054D01*
X157960080Y-136660000D01*
X157960081Y-136660000D01*
X158039920Y-136660000D01*
X158047702Y-136659054D01*
X158111055Y-136651362D01*
X158179975Y-136662822D01*
X158231762Y-136709725D01*
X158250000Y-136774458D01*
X158250000Y-138458885D01*
X158367029Y-138439356D01*
X158600570Y-138359181D01*
X158600578Y-138359178D01*
X158817748Y-138241651D01*
X158817754Y-138241647D01*
X159012601Y-138089991D01*
X159012605Y-138089988D01*
X159179851Y-137908311D01*
X159314907Y-137701591D01*
X159414098Y-137475460D01*
X159474715Y-137236090D01*
X159490000Y-137051631D01*
X159490000Y-136250000D01*
X158776407Y-136250000D01*
X158709368Y-136230315D01*
X158663613Y-136177511D01*
X158653669Y-136108353D01*
X158656011Y-136096323D01*
X158657349Y-136090891D01*
X158660000Y-136080138D01*
X158660000Y-135919862D01*
X158656010Y-135903677D01*
X158659079Y-135833875D01*
X158699397Y-135776812D01*
X158764166Y-135750606D01*
X158776407Y-135750000D01*
X159490000Y-135750000D01*
X159490000Y-134948369D01*
X159474715Y-134763909D01*
X159414098Y-134524539D01*
X159314907Y-134298408D01*
X159179851Y-134091688D01*
X159012605Y-133910011D01*
X159012601Y-133910008D01*
X158817754Y-133758352D01*
X158817748Y-133758348D01*
X158600578Y-133640821D01*
X158600570Y-133640818D01*
X158367029Y-133560643D01*
X158250000Y-133541114D01*
X158250000Y-135225541D01*
X158230315Y-135292580D01*
X158177511Y-135338335D01*
X158111053Y-135348637D01*
X158039922Y-135340000D01*
X158039919Y-135340000D01*
X157960081Y-135340000D01*
X157960078Y-135340000D01*
X157888947Y-135348637D01*
X157820023Y-135337177D01*
X157768237Y-135290273D01*
X157750000Y-135225541D01*
X157750000Y-133541114D01*
X157749999Y-133541114D01*
X157632970Y-133560643D01*
X157399429Y-133640818D01*
X157399421Y-133640821D01*
X157182251Y-133758348D01*
X157182245Y-133758352D01*
X156987398Y-133910008D01*
X156987394Y-133910011D01*
X156820148Y-134091688D01*
X156685092Y-134298408D01*
X156585901Y-134524539D01*
X156525284Y-134763909D01*
X156510000Y-134948369D01*
X156510000Y-135750000D01*
X157223593Y-135750000D01*
X157290632Y-135769685D01*
X157336387Y-135822489D01*
X157346331Y-135891647D01*
X157343989Y-135903677D01*
X157340000Y-135919859D01*
X157340000Y-136080140D01*
X157343989Y-136096323D01*
X157340921Y-136166125D01*
X157300603Y-136223188D01*
X157235834Y-136249394D01*
X157223593Y-136250000D01*
X156510000Y-136250000D01*
X156510000Y-137051631D01*
X154498500Y-137051631D01*
X154498500Y-133971362D01*
X154498499Y-133971345D01*
X154495157Y-133940270D01*
X154491989Y-133910799D01*
X154491695Y-133910011D01*
X154469522Y-133850564D01*
X154440889Y-133773796D01*
X154353261Y-133656739D01*
X154236204Y-133569111D01*
X154213501Y-133560643D01*
X154099203Y-133518011D01*
X154038654Y-133511500D01*
X154038638Y-133511500D01*
X151961362Y-133511500D01*
X151961345Y-133511500D01*
X151900797Y-133518011D01*
X151900795Y-133518011D01*
X151763795Y-133569111D01*
X151646739Y-133656739D01*
X151559111Y-133773795D01*
X151508011Y-133910795D01*
X151508011Y-133910797D01*
X151501500Y-133971345D01*
X151501500Y-138028654D01*
X115000000Y-138028654D01*
X115000000Y-131000000D01*
X112589636Y-131000000D01*
X112543550Y-130991118D01*
X112526461Y-130984276D01*
X112526453Y-130984274D01*
X112320086Y-130944500D01*
X112320085Y-130944500D01*
X112162575Y-130944500D01*
X112005782Y-130959472D01*
X112005778Y-130959473D01*
X111945302Y-130977230D01*
X111884862Y-130994977D01*
X111849929Y-131000000D01*
X95730000Y-131000000D01*
X95730000Y-140675500D01*
X95710315Y-140742539D01*
X95657511Y-140788294D01*
X95606000Y-140799500D01*
X52124000Y-140799500D01*
X52056961Y-140779815D01*
X52011206Y-140727011D01*
X52000000Y-140675500D01*
X52000000Y-138612500D01*
X52019685Y-138545461D01*
X52072489Y-138499706D01*
X52124000Y-138488500D01*
X54038638Y-138488500D01*
X54038654Y-138488499D01*
X54065692Y-138485591D01*
X54099201Y-138481989D01*
X54236204Y-138430889D01*
X54353261Y-138343261D01*
X54440889Y-138226204D01*
X54491694Y-138089991D01*
X54491988Y-138089204D01*
X54491988Y-138089203D01*
X54491989Y-138089201D01*
X54496180Y-138050217D01*
X54498499Y-138028654D01*
X54498499Y-138028647D01*
X54498500Y-138028638D01*
X54498500Y-137051631D01*
X56510000Y-137051631D01*
X56525284Y-137236090D01*
X56585901Y-137475460D01*
X56685092Y-137701591D01*
X56820148Y-137908311D01*
X56987394Y-138089988D01*
X56987398Y-138089991D01*
X57182245Y-138241647D01*
X57182251Y-138241651D01*
X57399421Y-138359178D01*
X57399429Y-138359181D01*
X57632970Y-138439356D01*
X57749998Y-138458884D01*
X57749999Y-138458884D01*
X57749999Y-136774458D01*
X57769684Y-136707419D01*
X57822488Y-136661664D01*
X57888943Y-136651362D01*
X57951341Y-136658938D01*
X57960080Y-136660000D01*
X57960081Y-136660000D01*
X58039920Y-136660000D01*
X58047702Y-136659054D01*
X58111055Y-136651362D01*
X58179975Y-136662822D01*
X58231762Y-136709725D01*
X58250000Y-136774458D01*
X58250000Y-138458885D01*
X58367029Y-138439356D01*
X58600570Y-138359181D01*
X58600578Y-138359178D01*
X58817748Y-138241651D01*
X58817754Y-138241647D01*
X59012601Y-138089991D01*
X59012605Y-138089988D01*
X59179851Y-137908311D01*
X59314907Y-137701591D01*
X59414098Y-137475460D01*
X59474715Y-137236090D01*
X59490000Y-137051631D01*
X59490000Y-136250000D01*
X58776407Y-136250000D01*
X58709368Y-136230315D01*
X58663613Y-136177511D01*
X58653669Y-136108353D01*
X58656011Y-136096323D01*
X58657349Y-136090891D01*
X58660000Y-136080138D01*
X58660000Y-135919862D01*
X58656010Y-135903677D01*
X58659079Y-135833875D01*
X58699397Y-135776812D01*
X58764166Y-135750606D01*
X58776407Y-135750000D01*
X59490000Y-135750000D01*
X59490000Y-134948369D01*
X59474715Y-134763909D01*
X59414098Y-134524539D01*
X59314907Y-134298408D01*
X59179851Y-134091688D01*
X59012605Y-133910011D01*
X59012601Y-133910008D01*
X58817754Y-133758352D01*
X58817748Y-133758348D01*
X58600578Y-133640821D01*
X58600570Y-133640818D01*
X58367029Y-133560643D01*
X58250000Y-133541114D01*
X58250000Y-135225541D01*
X58230315Y-135292580D01*
X58177511Y-135338335D01*
X58111053Y-135348637D01*
X58039922Y-135340000D01*
X58039919Y-135340000D01*
X57960081Y-135340000D01*
X57960077Y-135340000D01*
X57888945Y-135348637D01*
X57820022Y-135337177D01*
X57768236Y-135290273D01*
X57749999Y-135225541D01*
X57749999Y-133541114D01*
X57749998Y-133541114D01*
X57632970Y-133560643D01*
X57399429Y-133640818D01*
X57399421Y-133640821D01*
X57182251Y-133758348D01*
X57182245Y-133758352D01*
X56987398Y-133910008D01*
X56987394Y-133910011D01*
X56820148Y-134091688D01*
X56685092Y-134298408D01*
X56585901Y-134524539D01*
X56525284Y-134763909D01*
X56510000Y-134948369D01*
X56510000Y-135750000D01*
X57223593Y-135750000D01*
X57290632Y-135769685D01*
X57336387Y-135822489D01*
X57346331Y-135891647D01*
X57343989Y-135903677D01*
X57340000Y-135919859D01*
X57340000Y-136080140D01*
X57343989Y-136096323D01*
X57340921Y-136166125D01*
X57300603Y-136223188D01*
X57235834Y-136249394D01*
X57223593Y-136250000D01*
X56510000Y-136250000D01*
X56510000Y-137051631D01*
X54498500Y-137051631D01*
X54498500Y-133971362D01*
X54498499Y-133971352D01*
X54498499Y-133971345D01*
X54495157Y-133940270D01*
X54491989Y-133910799D01*
X54491695Y-133910011D01*
X54469522Y-133850564D01*
X54440889Y-133773796D01*
X54353261Y-133656739D01*
X54236204Y-133569111D01*
X54213501Y-133560643D01*
X54099203Y-133518011D01*
X54038654Y-133511500D01*
X54038638Y-133511500D01*
X52124000Y-133511500D01*
X52056961Y-133491815D01*
X52011206Y-133439011D01*
X52000000Y-133387500D01*
X52000000Y-131992401D01*
X62850746Y-131992401D01*
X62860745Y-132202327D01*
X62910296Y-132406578D01*
X62910298Y-132406582D01*
X62997598Y-132597743D01*
X62997601Y-132597748D01*
X62997602Y-132597750D01*
X62997604Y-132597753D01*
X63060627Y-132686256D01*
X63119515Y-132768953D01*
X63119520Y-132768959D01*
X63271620Y-132913985D01*
X63366578Y-132975011D01*
X63448428Y-133027613D01*
X63643543Y-133105725D01*
X63746729Y-133125612D01*
X63849914Y-133145500D01*
X63849915Y-133145500D01*
X64007419Y-133145500D01*
X64007425Y-133145500D01*
X64164218Y-133130528D01*
X64365875Y-133071316D01*
X64552682Y-132975011D01*
X64717886Y-132845092D01*
X64855519Y-132686256D01*
X64960604Y-132504244D01*
X65029344Y-132305633D01*
X65059254Y-132097602D01*
X65049254Y-131887670D01*
X64999704Y-131683424D01*
X64999701Y-131683417D01*
X64912401Y-131492256D01*
X64912398Y-131492251D01*
X64912397Y-131492250D01*
X64912396Y-131492247D01*
X64790486Y-131321048D01*
X64790484Y-131321046D01*
X64790479Y-131321040D01*
X64638379Y-131176014D01*
X64461574Y-131062388D01*
X64266455Y-130984274D01*
X64060086Y-130944500D01*
X64060085Y-130944500D01*
X63902575Y-130944500D01*
X63745782Y-130959472D01*
X63745778Y-130959473D01*
X63544127Y-131018683D01*
X63357313Y-131114991D01*
X63192116Y-131244905D01*
X63192112Y-131244909D01*
X63054478Y-131403746D01*
X62949398Y-131585750D01*
X62880656Y-131784365D01*
X62880656Y-131784367D01*
X62865804Y-131887670D01*
X62850746Y-131992401D01*
X52000000Y-131992401D01*
X52000000Y-131000000D01*
X38224500Y-131000000D01*
X38157461Y-130980315D01*
X38111706Y-130927511D01*
X38100500Y-130876000D01*
X38100500Y-128701999D01*
X41737114Y-128701999D01*
X41737116Y-128702000D01*
X43419593Y-128702000D01*
X43486632Y-128721685D01*
X43532387Y-128774489D01*
X43542331Y-128843647D01*
X43539989Y-128855677D01*
X43536000Y-128871859D01*
X43536000Y-129032140D01*
X43539989Y-129048323D01*
X43536921Y-129118125D01*
X43496603Y-129175188D01*
X43431834Y-129201394D01*
X43419593Y-129202000D01*
X41737115Y-129202000D01*
X41756643Y-129319029D01*
X41836818Y-129552570D01*
X41836821Y-129552578D01*
X41954348Y-129769748D01*
X41954352Y-129769754D01*
X42106008Y-129964601D01*
X42106011Y-129964605D01*
X42287688Y-130131851D01*
X42494408Y-130266907D01*
X42720539Y-130366098D01*
X42959909Y-130426715D01*
X43144369Y-130442000D01*
X43945999Y-130442000D01*
X43945999Y-129726458D01*
X43965683Y-129659419D01*
X44018487Y-129613664D01*
X44084943Y-129603362D01*
X44147341Y-129610938D01*
X44156080Y-129612000D01*
X44156081Y-129612000D01*
X44235921Y-129612000D01*
X44307052Y-129603363D01*
X44375976Y-129614823D01*
X44427762Y-129661727D01*
X44445999Y-129726459D01*
X44445999Y-130441999D01*
X44446001Y-130442000D01*
X45247631Y-130442000D01*
X45432090Y-130426715D01*
X45671460Y-130366098D01*
X45897591Y-130266907D01*
X46104311Y-130131851D01*
X46285988Y-129964605D01*
X46285991Y-129964601D01*
X46437647Y-129769754D01*
X46437651Y-129769748D01*
X46555178Y-129552578D01*
X46555181Y-129552570D01*
X46635356Y-129319029D01*
X46654885Y-129202000D01*
X44972407Y-129202000D01*
X44905368Y-129182315D01*
X44859613Y-129129511D01*
X44849669Y-129060353D01*
X44852011Y-129048323D01*
X44853349Y-129042891D01*
X44856000Y-129032138D01*
X44856000Y-128871862D01*
X44852010Y-128855677D01*
X44855079Y-128785875D01*
X44895397Y-128728812D01*
X44960166Y-128702606D01*
X44972407Y-128702000D01*
X46654884Y-128702000D01*
X46654885Y-128701999D01*
X46635356Y-128584970D01*
X46555181Y-128351429D01*
X46555178Y-128351421D01*
X46437651Y-128134251D01*
X46437647Y-128134245D01*
X46285991Y-127939398D01*
X46285988Y-127939394D01*
X46104311Y-127772148D01*
X45897591Y-127637092D01*
X45671460Y-127537901D01*
X45432090Y-127477284D01*
X45247631Y-127462000D01*
X44445999Y-127462000D01*
X44445999Y-128177540D01*
X44426314Y-128244580D01*
X44373510Y-128290334D01*
X44307054Y-128300636D01*
X44235924Y-128292000D01*
X44235919Y-128292000D01*
X44156081Y-128292000D01*
X44156078Y-128292000D01*
X44084947Y-128300637D01*
X44016023Y-128289177D01*
X43964237Y-128242273D01*
X43946000Y-128177541D01*
X43946000Y-127462000D01*
X43144369Y-127462000D01*
X42959909Y-127477284D01*
X42720539Y-127537901D01*
X42494408Y-127637092D01*
X42287688Y-127772148D01*
X42106011Y-127939394D01*
X42106008Y-127939398D01*
X41954352Y-128134245D01*
X41954348Y-128134251D01*
X41836821Y-128351421D01*
X41836818Y-128351429D01*
X41756643Y-128584970D01*
X41737114Y-128701999D01*
X38100500Y-128701999D01*
X38100500Y-126038654D01*
X164511500Y-126038654D01*
X164518011Y-126099202D01*
X164518011Y-126099204D01*
X164569110Y-126236203D01*
X164569111Y-126236204D01*
X164656739Y-126353261D01*
X164773796Y-126440889D01*
X164910799Y-126491989D01*
X164938050Y-126494918D01*
X164971345Y-126498499D01*
X164971362Y-126498500D01*
X169028638Y-126498500D01*
X169028654Y-126498499D01*
X169055692Y-126495591D01*
X169089201Y-126491989D01*
X169226204Y-126440889D01*
X169343261Y-126353261D01*
X169430889Y-126236204D01*
X169481989Y-126099201D01*
X169485591Y-126065692D01*
X169488499Y-126038654D01*
X169488500Y-126038637D01*
X169488500Y-123961362D01*
X169488499Y-123961345D01*
X169485157Y-123930270D01*
X169481989Y-123900799D01*
X169472807Y-123876182D01*
X169459522Y-123840564D01*
X169430889Y-123763796D01*
X169343261Y-123646739D01*
X169226204Y-123559111D01*
X169226203Y-123559110D01*
X169089203Y-123508011D01*
X169028654Y-123501500D01*
X169028638Y-123501500D01*
X164971362Y-123501500D01*
X164971345Y-123501500D01*
X164910797Y-123508011D01*
X164910795Y-123508011D01*
X164773795Y-123559111D01*
X164656739Y-123646739D01*
X164569111Y-123763795D01*
X164518011Y-123900795D01*
X164518011Y-123900797D01*
X164511500Y-123961345D01*
X164511500Y-126038654D01*
X38100500Y-126038654D01*
X38100500Y-124990654D01*
X41707500Y-124990654D01*
X41714011Y-125051202D01*
X41714011Y-125051204D01*
X41765111Y-125188203D01*
X41765111Y-125188204D01*
X41852739Y-125305261D01*
X41969796Y-125392889D01*
X42106799Y-125443989D01*
X42134050Y-125446918D01*
X42167345Y-125450499D01*
X42167362Y-125450500D01*
X46224638Y-125450500D01*
X46224654Y-125450499D01*
X46251692Y-125447591D01*
X46285201Y-125443989D01*
X46422204Y-125392889D01*
X46539261Y-125305261D01*
X46626889Y-125188204D01*
X46677989Y-125051201D01*
X46681591Y-125017692D01*
X46684499Y-124990654D01*
X46684500Y-124990637D01*
X46684500Y-123876187D01*
X79554500Y-123876187D01*
X79567339Y-123961362D01*
X79593604Y-124135615D01*
X79593605Y-124135617D01*
X79593606Y-124135623D01*
X79670938Y-124386326D01*
X79784767Y-124622696D01*
X79784768Y-124622697D01*
X79784770Y-124622700D01*
X79784772Y-124622704D01*
X79932566Y-124839479D01*
X79932567Y-124839479D01*
X80111014Y-125031801D01*
X80111018Y-125031804D01*
X80111019Y-125031805D01*
X80316143Y-125195386D01*
X80543357Y-125326568D01*
X80787584Y-125422420D01*
X81043370Y-125480802D01*
X81043376Y-125480802D01*
X81043379Y-125480803D01*
X81239500Y-125495500D01*
X81239506Y-125495500D01*
X81370500Y-125495500D01*
X81566620Y-125480803D01*
X81566622Y-125480802D01*
X81566630Y-125480802D01*
X81822416Y-125422420D01*
X82066643Y-125326568D01*
X82293857Y-125195386D01*
X82498981Y-125031805D01*
X82677433Y-124839479D01*
X82825228Y-124622704D01*
X82939063Y-124386323D01*
X83016396Y-124135615D01*
X83055499Y-123876187D01*
X127814500Y-123876187D01*
X127827339Y-123961362D01*
X127853604Y-124135615D01*
X127853605Y-124135617D01*
X127853606Y-124135623D01*
X127930938Y-124386326D01*
X128044767Y-124622696D01*
X128044768Y-124622697D01*
X128044770Y-124622700D01*
X128044772Y-124622704D01*
X128192567Y-124839479D01*
X128371014Y-125031801D01*
X128371018Y-125031804D01*
X128371019Y-125031805D01*
X128576143Y-125195386D01*
X128803357Y-125326568D01*
X129047584Y-125422420D01*
X129303370Y-125480802D01*
X129303376Y-125480802D01*
X129303379Y-125480803D01*
X129499500Y-125495500D01*
X129499506Y-125495500D01*
X129630500Y-125495500D01*
X129826620Y-125480803D01*
X129826622Y-125480802D01*
X129826630Y-125480802D01*
X130082416Y-125422420D01*
X130326643Y-125326568D01*
X130553857Y-125195386D01*
X130758981Y-125031805D01*
X130937433Y-124839479D01*
X131085228Y-124622704D01*
X131199063Y-124386323D01*
X131276396Y-124135615D01*
X131315500Y-123876182D01*
X131315500Y-123613818D01*
X131276396Y-123354385D01*
X131199063Y-123103677D01*
X131187121Y-123078880D01*
X131085232Y-122867303D01*
X131085231Y-122867302D01*
X131085230Y-122867301D01*
X131085228Y-122867296D01*
X130937433Y-122650521D01*
X130927441Y-122639753D01*
X130758985Y-122458198D01*
X130719533Y-122426736D01*
X130553857Y-122294614D01*
X130326643Y-122163432D01*
X130082416Y-122067580D01*
X130082411Y-122067578D01*
X130082402Y-122067576D01*
X129864818Y-122017914D01*
X129826630Y-122009198D01*
X129826629Y-122009197D01*
X129826625Y-122009197D01*
X129826620Y-122009196D01*
X129630500Y-121994500D01*
X129630494Y-121994500D01*
X129499506Y-121994500D01*
X129499500Y-121994500D01*
X129303379Y-122009196D01*
X129303374Y-122009197D01*
X129047597Y-122067576D01*
X129047578Y-122067582D01*
X128803356Y-122163432D01*
X128576143Y-122294614D01*
X128371014Y-122458198D01*
X128192567Y-122650520D01*
X128044768Y-122867302D01*
X128044767Y-122867303D01*
X127930938Y-123103673D01*
X127853606Y-123354376D01*
X127853605Y-123354381D01*
X127853604Y-123354385D01*
X127838853Y-123452247D01*
X127814500Y-123613812D01*
X127814500Y-123876187D01*
X83055499Y-123876187D01*
X83055500Y-123876182D01*
X83055500Y-123613818D01*
X83016396Y-123354385D01*
X82939063Y-123103677D01*
X82927121Y-123078880D01*
X82825232Y-122867303D01*
X82825231Y-122867302D01*
X82825230Y-122867301D01*
X82825228Y-122867296D01*
X82677433Y-122650521D01*
X82667441Y-122639753D01*
X82498985Y-122458198D01*
X82459533Y-122426736D01*
X82293857Y-122294614D01*
X82066643Y-122163432D01*
X81822416Y-122067580D01*
X81822411Y-122067578D01*
X81822402Y-122067576D01*
X81604818Y-122017914D01*
X81566630Y-122009198D01*
X81566629Y-122009197D01*
X81566625Y-122009197D01*
X81566620Y-122009196D01*
X81370500Y-121994500D01*
X81370494Y-121994500D01*
X81239506Y-121994500D01*
X81239500Y-121994500D01*
X81043379Y-122009196D01*
X81043374Y-122009197D01*
X80787597Y-122067576D01*
X80787578Y-122067582D01*
X80543356Y-122163432D01*
X80316143Y-122294614D01*
X80111014Y-122458198D01*
X79932567Y-122650520D01*
X79784768Y-122867302D01*
X79784767Y-122867303D01*
X79670938Y-123103673D01*
X79593606Y-123354376D01*
X79593605Y-123354381D01*
X79593604Y-123354385D01*
X79578853Y-123452247D01*
X79554500Y-123613812D01*
X79554500Y-123876187D01*
X46684500Y-123876187D01*
X46684500Y-122913362D01*
X46684499Y-122913345D01*
X46679548Y-122867302D01*
X46677989Y-122852799D01*
X46626889Y-122715796D01*
X46539261Y-122598739D01*
X46422204Y-122511111D01*
X46422203Y-122511110D01*
X46285203Y-122460011D01*
X46224654Y-122453500D01*
X46224638Y-122453500D01*
X42167362Y-122453500D01*
X42167345Y-122453500D01*
X42106797Y-122460011D01*
X42106795Y-122460011D01*
X41969795Y-122511111D01*
X41852739Y-122598739D01*
X41765111Y-122715795D01*
X41714011Y-122852795D01*
X41714011Y-122852797D01*
X41707500Y-122913345D01*
X41707500Y-124990654D01*
X38100500Y-124990654D01*
X38100500Y-117779999D01*
X41737114Y-117779999D01*
X41737116Y-117780000D01*
X43419593Y-117780000D01*
X43486632Y-117799685D01*
X43532387Y-117852489D01*
X43542331Y-117921647D01*
X43539989Y-117933677D01*
X43536000Y-117949859D01*
X43536000Y-118110140D01*
X43539989Y-118126323D01*
X43536921Y-118196125D01*
X43496603Y-118253188D01*
X43431834Y-118279394D01*
X43419593Y-118280000D01*
X41737115Y-118280000D01*
X41756643Y-118397029D01*
X41836818Y-118630570D01*
X41836821Y-118630578D01*
X41954348Y-118847748D01*
X41954352Y-118847754D01*
X42106008Y-119042601D01*
X42106011Y-119042605D01*
X42287688Y-119209851D01*
X42494408Y-119344907D01*
X42720539Y-119444098D01*
X42959909Y-119504715D01*
X43144369Y-119520000D01*
X43945999Y-119520000D01*
X43945999Y-118804458D01*
X43965683Y-118737419D01*
X44018487Y-118691664D01*
X44084943Y-118681362D01*
X44147341Y-118688938D01*
X44156080Y-118690000D01*
X44156081Y-118690000D01*
X44235921Y-118690000D01*
X44307052Y-118681363D01*
X44375976Y-118692823D01*
X44427762Y-118739727D01*
X44445999Y-118804459D01*
X44445999Y-119519999D01*
X44446001Y-119520000D01*
X45247631Y-119520000D01*
X45432090Y-119504715D01*
X45671460Y-119444098D01*
X45897591Y-119344907D01*
X46104311Y-119209851D01*
X46285988Y-119042605D01*
X46285991Y-119042601D01*
X46437647Y-118847754D01*
X46437651Y-118847748D01*
X46555178Y-118630578D01*
X46555181Y-118630570D01*
X46635356Y-118397029D01*
X46654885Y-118280000D01*
X44972407Y-118280000D01*
X44905368Y-118260315D01*
X44859613Y-118207511D01*
X44849669Y-118138353D01*
X44852011Y-118126323D01*
X44853349Y-118120891D01*
X44856000Y-118110138D01*
X44856000Y-117949862D01*
X44852010Y-117933677D01*
X44855079Y-117863875D01*
X44895397Y-117806812D01*
X44960166Y-117780606D01*
X44972407Y-117780000D01*
X46654884Y-117780000D01*
X46654885Y-117779999D01*
X46635356Y-117662970D01*
X46555181Y-117429429D01*
X46555178Y-117429421D01*
X46437651Y-117212251D01*
X46437647Y-117212245D01*
X46285991Y-117017398D01*
X46285988Y-117017394D01*
X46267093Y-117000000D01*
X55686547Y-117000000D01*
X55706339Y-117301966D01*
X55765376Y-117598766D01*
X55765378Y-117598773D01*
X55765380Y-117598779D01*
X55862644Y-117885312D01*
X55862648Y-117885322D01*
X55996488Y-118156722D01*
X55996492Y-118156729D01*
X56164612Y-118408339D01*
X56364141Y-118635858D01*
X56591660Y-118835387D01*
X56843270Y-119003507D01*
X56843277Y-119003511D01*
X57114677Y-119137351D01*
X57114687Y-119137355D01*
X57246930Y-119182245D01*
X57401234Y-119234624D01*
X57698034Y-119293661D01*
X58000000Y-119313453D01*
X58301966Y-119293661D01*
X58598766Y-119234624D01*
X58791813Y-119169093D01*
X58885312Y-119137355D01*
X58885322Y-119137351D01*
X59156727Y-119003509D01*
X59161979Y-119000000D01*
X152686547Y-119000000D01*
X152706339Y-119301966D01*
X152765376Y-119598766D01*
X152765378Y-119598773D01*
X152765380Y-119598779D01*
X152862644Y-119885312D01*
X152862648Y-119885322D01*
X152996488Y-120156722D01*
X152996492Y-120156729D01*
X153164612Y-120408339D01*
X153364141Y-120635858D01*
X153591660Y-120835387D01*
X153843270Y-121003507D01*
X153843277Y-121003511D01*
X154114677Y-121137351D01*
X154114687Y-121137355D01*
X154319796Y-121206979D01*
X154401234Y-121234624D01*
X154698034Y-121293661D01*
X155000000Y-121313453D01*
X155301966Y-121293661D01*
X155598766Y-121234624D01*
X155791813Y-121169093D01*
X155885312Y-121137355D01*
X155885322Y-121137351D01*
X156156727Y-121003509D01*
X156408341Y-120835386D01*
X156635858Y-120635858D01*
X156835386Y-120408341D01*
X157003509Y-120156727D01*
X157137352Y-119885320D01*
X157183287Y-119749999D01*
X164541114Y-119749999D01*
X164541116Y-119750000D01*
X166223593Y-119750000D01*
X166290632Y-119769685D01*
X166336387Y-119822489D01*
X166346331Y-119891647D01*
X166343989Y-119903677D01*
X166340000Y-119919859D01*
X166340000Y-120080140D01*
X166343989Y-120096323D01*
X166340921Y-120166125D01*
X166300603Y-120223188D01*
X166235834Y-120249394D01*
X166223593Y-120250000D01*
X164541115Y-120250000D01*
X164560643Y-120367029D01*
X164640818Y-120600570D01*
X164640821Y-120600578D01*
X164758348Y-120817748D01*
X164758352Y-120817754D01*
X164910008Y-121012601D01*
X164910011Y-121012605D01*
X165091688Y-121179851D01*
X165298408Y-121314907D01*
X165524539Y-121414098D01*
X165763909Y-121474715D01*
X165948369Y-121490000D01*
X166750000Y-121490000D01*
X166750000Y-120774458D01*
X166769685Y-120707419D01*
X166822489Y-120661664D01*
X166888944Y-120651362D01*
X166952297Y-120659054D01*
X166960080Y-120660000D01*
X166960081Y-120660000D01*
X167039920Y-120660000D01*
X167047702Y-120659054D01*
X167111055Y-120651362D01*
X167179975Y-120662822D01*
X167231762Y-120709725D01*
X167250000Y-120774458D01*
X167250000Y-121490000D01*
X168051631Y-121490000D01*
X168236090Y-121474715D01*
X168475460Y-121414098D01*
X168701591Y-121314907D01*
X168908311Y-121179851D01*
X169089988Y-121012605D01*
X169089991Y-121012601D01*
X169241647Y-120817754D01*
X169241651Y-120817748D01*
X169359178Y-120600578D01*
X169359181Y-120600570D01*
X169439356Y-120367029D01*
X169458885Y-120250000D01*
X167776407Y-120250000D01*
X167709368Y-120230315D01*
X167663613Y-120177511D01*
X167653669Y-120108353D01*
X167656011Y-120096323D01*
X167657349Y-120090891D01*
X167660000Y-120080138D01*
X167660000Y-119919862D01*
X167656010Y-119903677D01*
X167659079Y-119833875D01*
X167699397Y-119776812D01*
X167764166Y-119750606D01*
X167776407Y-119750000D01*
X169458884Y-119750000D01*
X169458885Y-119749999D01*
X169439356Y-119632970D01*
X169359181Y-119399429D01*
X169359178Y-119399421D01*
X169241651Y-119182251D01*
X169241647Y-119182245D01*
X169089991Y-118987398D01*
X169089988Y-118987394D01*
X168908311Y-118820148D01*
X168701591Y-118685092D01*
X168475460Y-118585901D01*
X168236090Y-118525284D01*
X168051631Y-118510000D01*
X167250000Y-118510000D01*
X167250000Y-119225541D01*
X167230315Y-119292580D01*
X167177511Y-119338335D01*
X167111053Y-119348637D01*
X167039922Y-119340000D01*
X167039919Y-119340000D01*
X166960081Y-119340000D01*
X166960078Y-119340000D01*
X166888947Y-119348637D01*
X166820023Y-119337177D01*
X166768237Y-119290273D01*
X166750000Y-119225541D01*
X166750000Y-118510000D01*
X165948369Y-118510000D01*
X165763909Y-118525284D01*
X165524539Y-118585901D01*
X165298408Y-118685092D01*
X165091688Y-118820148D01*
X164910011Y-118987394D01*
X164910008Y-118987398D01*
X164758352Y-119182245D01*
X164758348Y-119182251D01*
X164640821Y-119399421D01*
X164640818Y-119399429D01*
X164560643Y-119632970D01*
X164541114Y-119749999D01*
X157183287Y-119749999D01*
X157234624Y-119598766D01*
X157293661Y-119301966D01*
X157313453Y-119000000D01*
X157293661Y-118698034D01*
X157234624Y-118401234D01*
X157137352Y-118114680D01*
X157137344Y-118114663D01*
X157003514Y-117843283D01*
X157003505Y-117843268D01*
X156883034Y-117662970D01*
X156835386Y-117591659D01*
X156783378Y-117532355D01*
X156635858Y-117364141D01*
X156408339Y-117164612D01*
X156156729Y-116996492D01*
X156156722Y-116996488D01*
X155885322Y-116862648D01*
X155885312Y-116862644D01*
X155598779Y-116765380D01*
X155598773Y-116765378D01*
X155598766Y-116765376D01*
X155301966Y-116706339D01*
X155000000Y-116686547D01*
X154999999Y-116686547D01*
X154849017Y-116696443D01*
X154698034Y-116706339D01*
X154698028Y-116706340D01*
X154698023Y-116706341D01*
X154401239Y-116765375D01*
X154401225Y-116765378D01*
X154114684Y-116862646D01*
X154114663Y-116862655D01*
X153843283Y-116996485D01*
X153843268Y-116996494D01*
X153591657Y-117164615D01*
X153364141Y-117364141D01*
X153164615Y-117591657D01*
X152996494Y-117843268D01*
X152996485Y-117843283D01*
X152862655Y-118114663D01*
X152862646Y-118114684D01*
X152765378Y-118401225D01*
X152765375Y-118401239D01*
X152707376Y-118692823D01*
X152706339Y-118698034D01*
X152686547Y-119000000D01*
X59161979Y-119000000D01*
X59408341Y-118835386D01*
X59635858Y-118635858D01*
X59835386Y-118408341D01*
X60003509Y-118156727D01*
X60137352Y-117885320D01*
X60234624Y-117598766D01*
X60293661Y-117301966D01*
X60313453Y-117000000D01*
X60293661Y-116698034D01*
X60234624Y-116401234D01*
X60137352Y-116114680D01*
X60137344Y-116114663D01*
X60003514Y-115843283D01*
X60003505Y-115843268D01*
X60001242Y-115839881D01*
X59835386Y-115591659D01*
X59791670Y-115541811D01*
X59635858Y-115364141D01*
X59408339Y-115164612D01*
X59156729Y-114996492D01*
X59156722Y-114996488D01*
X58885322Y-114862648D01*
X58885312Y-114862644D01*
X58598779Y-114765380D01*
X58598773Y-114765378D01*
X58598766Y-114765376D01*
X58301966Y-114706339D01*
X58000000Y-114686547D01*
X57999999Y-114686547D01*
X57849017Y-114696443D01*
X57698034Y-114706339D01*
X57698028Y-114706340D01*
X57698023Y-114706341D01*
X57401239Y-114765375D01*
X57401225Y-114765378D01*
X57114684Y-114862646D01*
X57114663Y-114862655D01*
X56843283Y-114996485D01*
X56843268Y-114996494D01*
X56591657Y-115164615D01*
X56364141Y-115364141D01*
X56164615Y-115591657D01*
X55996494Y-115843268D01*
X55996485Y-115843283D01*
X55862655Y-116114663D01*
X55862646Y-116114684D01*
X55765378Y-116401225D01*
X55765376Y-116401233D01*
X55765376Y-116401234D01*
X55706339Y-116698034D01*
X55686547Y-117000000D01*
X46267093Y-117000000D01*
X46104311Y-116850148D01*
X45897591Y-116715092D01*
X45671460Y-116615901D01*
X45432090Y-116555284D01*
X45247631Y-116540000D01*
X44445999Y-116540000D01*
X44445999Y-117255540D01*
X44426314Y-117322580D01*
X44373510Y-117368334D01*
X44307054Y-117378636D01*
X44235924Y-117370000D01*
X44235919Y-117370000D01*
X44156081Y-117370000D01*
X44156078Y-117370000D01*
X44084947Y-117378637D01*
X44016023Y-117367177D01*
X43964237Y-117320273D01*
X43946000Y-117255541D01*
X43946000Y-116540000D01*
X43144369Y-116540000D01*
X42959909Y-116555284D01*
X42720539Y-116615901D01*
X42494408Y-116715092D01*
X42287688Y-116850148D01*
X42106011Y-117017394D01*
X42106008Y-117017398D01*
X41954352Y-117212245D01*
X41954348Y-117212251D01*
X41836821Y-117429421D01*
X41836818Y-117429429D01*
X41756643Y-117662970D01*
X41737114Y-117779999D01*
X38100500Y-117779999D01*
X38100500Y-114068654D01*
X41707500Y-114068654D01*
X41714011Y-114129202D01*
X41714011Y-114129204D01*
X41765111Y-114266204D01*
X41852739Y-114383261D01*
X41969796Y-114470889D01*
X42106799Y-114521989D01*
X42134050Y-114524918D01*
X42167345Y-114528499D01*
X42167362Y-114528500D01*
X46224638Y-114528500D01*
X46224654Y-114528499D01*
X46251692Y-114525591D01*
X46285201Y-114521989D01*
X46422204Y-114470889D01*
X46539261Y-114383261D01*
X46626889Y-114266204D01*
X46677989Y-114129201D01*
X46681591Y-114095692D01*
X46684499Y-114068654D01*
X46684500Y-114068637D01*
X46684500Y-112999999D01*
X152635065Y-112999999D01*
X152654784Y-113300852D01*
X152654786Y-113300864D01*
X152713602Y-113596553D01*
X152713607Y-113596573D01*
X152810514Y-113882052D01*
X152810518Y-113882062D01*
X152943868Y-114152469D01*
X153111371Y-114403155D01*
X153111374Y-114403159D01*
X153144973Y-114441470D01*
X153144974Y-114441470D01*
X153970437Y-113616008D01*
X154031760Y-113582523D01*
X154101452Y-113587507D01*
X154147992Y-113618257D01*
X154285268Y-113762671D01*
X154308447Y-113778804D01*
X154352226Y-113833258D01*
X154359614Y-113902736D01*
X154328267Y-113965179D01*
X154325291Y-113968260D01*
X153498528Y-114795024D01*
X153498528Y-114795025D01*
X153536840Y-114828625D01*
X153536844Y-114828628D01*
X153787530Y-114996131D01*
X154057937Y-115129481D01*
X154057947Y-115129485D01*
X154343426Y-115226392D01*
X154343446Y-115226397D01*
X154639135Y-115285213D01*
X154639147Y-115285215D01*
X154940000Y-115304934D01*
X155240852Y-115285215D01*
X155240864Y-115285213D01*
X155536553Y-115226397D01*
X155536573Y-115226392D01*
X155822052Y-115129485D01*
X155822062Y-115129481D01*
X156006241Y-115038654D01*
X164511500Y-115038654D01*
X164518011Y-115099202D01*
X164518011Y-115099204D01*
X164542409Y-115164615D01*
X164569111Y-115236204D01*
X164656739Y-115353261D01*
X164773796Y-115440889D01*
X164910799Y-115491989D01*
X164938050Y-115494918D01*
X164971345Y-115498499D01*
X164971362Y-115498500D01*
X169028638Y-115498500D01*
X169028654Y-115498499D01*
X169055692Y-115495591D01*
X169089201Y-115491989D01*
X169226204Y-115440889D01*
X169343261Y-115353261D01*
X169430889Y-115236204D01*
X169481989Y-115099201D01*
X169485591Y-115065692D01*
X169488499Y-115038654D01*
X169488500Y-115038637D01*
X169488500Y-112961362D01*
X169488499Y-112961345D01*
X169485157Y-112930270D01*
X169481989Y-112900799D01*
X169430889Y-112763796D01*
X169343261Y-112646739D01*
X169226204Y-112559111D01*
X169221442Y-112557335D01*
X169089203Y-112508011D01*
X169028654Y-112501500D01*
X169028638Y-112501500D01*
X164971362Y-112501500D01*
X164971345Y-112501500D01*
X164910797Y-112508011D01*
X164910795Y-112508011D01*
X164773795Y-112559111D01*
X164656739Y-112646739D01*
X164569111Y-112763795D01*
X164518011Y-112900795D01*
X164518011Y-112900797D01*
X164511500Y-112961345D01*
X164511500Y-115038654D01*
X156006241Y-115038654D01*
X156092469Y-114996131D01*
X156343157Y-114828627D01*
X156381470Y-114795025D01*
X156381470Y-114795023D01*
X155553527Y-113967080D01*
X155520042Y-113905757D01*
X155525026Y-113836065D01*
X155560436Y-113785315D01*
X155668531Y-113692520D01*
X155720900Y-113624863D01*
X155777500Y-113583900D01*
X155847263Y-113580039D01*
X155906637Y-113613084D01*
X156735023Y-114441470D01*
X156735025Y-114441470D01*
X156768627Y-114403157D01*
X156936131Y-114152469D01*
X157069481Y-113882062D01*
X157069485Y-113882052D01*
X157166392Y-113596573D01*
X157166397Y-113596553D01*
X157225213Y-113300864D01*
X157225215Y-113300852D01*
X157244934Y-113000000D01*
X157225215Y-112699147D01*
X157225213Y-112699135D01*
X157166397Y-112403446D01*
X157166393Y-112403431D01*
X157069483Y-112117944D01*
X157069474Y-112117923D01*
X156936129Y-111847528D01*
X156768633Y-111596851D01*
X156768625Y-111596840D01*
X156735025Y-111558528D01*
X156735024Y-111558528D01*
X155909561Y-112383990D01*
X155848238Y-112417475D01*
X155778546Y-112412491D01*
X155732006Y-112381741D01*
X155725727Y-112375136D01*
X155594734Y-112237331D01*
X155594735Y-112237331D01*
X155571549Y-112221193D01*
X155527772Y-112166738D01*
X155520384Y-112097260D01*
X155551732Y-112034817D01*
X155554707Y-112031738D01*
X156381470Y-111204974D01*
X156381470Y-111204973D01*
X156343159Y-111171374D01*
X156343155Y-111171371D01*
X156092469Y-111003868D01*
X155822062Y-110870518D01*
X155822052Y-110870514D01*
X155536573Y-110773607D01*
X155536553Y-110773602D01*
X155240864Y-110714786D01*
X155240852Y-110714784D01*
X154940000Y-110695065D01*
X154639147Y-110714784D01*
X154639135Y-110714786D01*
X154343446Y-110773602D01*
X154343431Y-110773606D01*
X154057944Y-110870516D01*
X154057923Y-110870525D01*
X153787528Y-111003870D01*
X153536844Y-111171370D01*
X153536837Y-111171376D01*
X153498528Y-111204972D01*
X153498527Y-111204974D01*
X154326472Y-112032919D01*
X154359957Y-112094242D01*
X154354973Y-112163934D01*
X154319561Y-112214686D01*
X154211471Y-112307477D01*
X154159099Y-112375136D01*
X154102497Y-112416100D01*
X154032734Y-112419959D01*
X153973362Y-112386915D01*
X153144974Y-111558527D01*
X153144972Y-111558528D01*
X153111376Y-111596837D01*
X153111370Y-111596844D01*
X152943870Y-111847528D01*
X152810525Y-112117923D01*
X152810516Y-112117944D01*
X152713606Y-112403431D01*
X152713602Y-112403446D01*
X152654786Y-112699135D01*
X152654784Y-112699147D01*
X152635065Y-112999999D01*
X46684500Y-112999999D01*
X46684500Y-111991362D01*
X46684499Y-111991345D01*
X46681157Y-111960270D01*
X46677989Y-111930799D01*
X46626889Y-111793796D01*
X46539261Y-111676739D01*
X46422204Y-111589111D01*
X46422203Y-111589110D01*
X46285203Y-111538011D01*
X46224654Y-111531500D01*
X46224638Y-111531500D01*
X42167362Y-111531500D01*
X42167345Y-111531500D01*
X42106797Y-111538011D01*
X42106795Y-111538011D01*
X41969795Y-111589111D01*
X41852739Y-111676739D01*
X41765111Y-111793795D01*
X41714011Y-111930795D01*
X41714011Y-111930797D01*
X41707500Y-111991345D01*
X41707500Y-114068654D01*
X38100500Y-114068654D01*
X38100500Y-110000000D01*
X55695065Y-110000000D01*
X55714784Y-110300852D01*
X55714786Y-110300864D01*
X55773602Y-110596553D01*
X55773607Y-110596573D01*
X55870514Y-110882052D01*
X55870518Y-110882062D01*
X56003868Y-111152469D01*
X56171371Y-111403155D01*
X56171374Y-111403159D01*
X56204973Y-111441470D01*
X56204974Y-111441470D01*
X57030437Y-110616008D01*
X57091760Y-110582523D01*
X57161452Y-110587507D01*
X57207992Y-110618257D01*
X57345268Y-110762671D01*
X57368447Y-110778804D01*
X57412226Y-110833258D01*
X57419614Y-110902736D01*
X57388267Y-110965179D01*
X57385291Y-110968260D01*
X56558528Y-111795024D01*
X56558528Y-111795025D01*
X56596840Y-111828625D01*
X56596844Y-111828628D01*
X56847530Y-111996131D01*
X57117937Y-112129481D01*
X57117947Y-112129485D01*
X57403426Y-112226392D01*
X57403446Y-112226397D01*
X57699135Y-112285213D01*
X57699147Y-112285215D01*
X58000000Y-112304934D01*
X58300852Y-112285215D01*
X58300864Y-112285213D01*
X58596553Y-112226397D01*
X58596573Y-112226392D01*
X58882052Y-112129485D01*
X58882062Y-112129481D01*
X59152469Y-111996131D01*
X59403157Y-111828627D01*
X59441470Y-111795025D01*
X59441470Y-111795023D01*
X58613527Y-110967080D01*
X58580042Y-110905757D01*
X58585026Y-110836065D01*
X58620436Y-110785315D01*
X58728531Y-110692520D01*
X58780900Y-110624863D01*
X58837500Y-110583900D01*
X58907263Y-110580039D01*
X58966637Y-110613084D01*
X59795023Y-111441470D01*
X59795025Y-111441470D01*
X59828627Y-111403157D01*
X59996131Y-111152469D01*
X60129481Y-110882062D01*
X60129485Y-110882052D01*
X60226392Y-110596573D01*
X60226397Y-110596553D01*
X60285213Y-110300864D01*
X60285215Y-110300852D01*
X60304934Y-110000000D01*
X60285215Y-109699147D01*
X60285213Y-109699135D01*
X60226397Y-109403446D01*
X60226393Y-109403431D01*
X60129483Y-109117944D01*
X60129474Y-109117923D01*
X59996129Y-108847528D01*
X59829838Y-108598654D01*
X156101500Y-108598654D01*
X156108011Y-108659202D01*
X156108011Y-108659204D01*
X156149220Y-108769685D01*
X156159111Y-108796204D01*
X156246739Y-108913261D01*
X156363796Y-109000889D01*
X156500799Y-109051989D01*
X156528050Y-109054918D01*
X156561345Y-109058499D01*
X156561362Y-109058500D01*
X158358638Y-109058500D01*
X158358654Y-109058499D01*
X158385692Y-109055591D01*
X158419201Y-109051989D01*
X158556204Y-109000889D01*
X158673261Y-108913261D01*
X158760889Y-108796204D01*
X158806138Y-108674887D01*
X158848009Y-108618956D01*
X158913474Y-108594539D01*
X158981746Y-108609391D01*
X159013545Y-108634236D01*
X159076760Y-108702906D01*
X159254424Y-108841189D01*
X159254425Y-108841189D01*
X159254427Y-108841191D01*
X159266137Y-108847528D01*
X159452426Y-108948342D01*
X159665365Y-109021444D01*
X159887431Y-109058500D01*
X160112569Y-109058500D01*
X160334635Y-109021444D01*
X160547574Y-108948342D01*
X160745576Y-108841189D01*
X160862736Y-108749999D01*
X164541114Y-108749999D01*
X164541116Y-108750000D01*
X166223593Y-108750000D01*
X166290632Y-108769685D01*
X166336387Y-108822489D01*
X166346331Y-108891647D01*
X166343989Y-108903677D01*
X166340000Y-108919859D01*
X166340000Y-109080140D01*
X166343989Y-109096323D01*
X166340921Y-109166125D01*
X166300603Y-109223188D01*
X166235834Y-109249394D01*
X166223593Y-109250000D01*
X164541115Y-109250000D01*
X164560643Y-109367029D01*
X164640818Y-109600570D01*
X164640821Y-109600578D01*
X164758348Y-109817748D01*
X164758352Y-109817754D01*
X164910008Y-110012601D01*
X164910011Y-110012605D01*
X165091688Y-110179851D01*
X165298408Y-110314907D01*
X165524539Y-110414098D01*
X165763909Y-110474715D01*
X165948369Y-110490000D01*
X166750000Y-110490000D01*
X166750000Y-109774458D01*
X166769685Y-109707419D01*
X166822489Y-109661664D01*
X166888944Y-109651362D01*
X166952297Y-109659054D01*
X166960080Y-109660000D01*
X166960081Y-109660000D01*
X167039920Y-109660000D01*
X167047702Y-109659054D01*
X167111055Y-109651362D01*
X167179975Y-109662822D01*
X167231762Y-109709725D01*
X167250000Y-109774458D01*
X167250000Y-110490000D01*
X168051631Y-110490000D01*
X168236090Y-110474715D01*
X168475460Y-110414098D01*
X168701591Y-110314907D01*
X168908311Y-110179851D01*
X169089988Y-110012605D01*
X169089991Y-110012601D01*
X169241647Y-109817754D01*
X169241651Y-109817748D01*
X169359178Y-109600578D01*
X169359181Y-109600570D01*
X169439356Y-109367029D01*
X169458885Y-109250000D01*
X167776407Y-109250000D01*
X167709368Y-109230315D01*
X167663613Y-109177511D01*
X167653669Y-109108353D01*
X167656011Y-109096323D01*
X167657349Y-109090891D01*
X167660000Y-109080138D01*
X167660000Y-108919862D01*
X167656010Y-108903677D01*
X167659079Y-108833875D01*
X167699397Y-108776812D01*
X167764166Y-108750606D01*
X167776407Y-108750000D01*
X169458884Y-108750000D01*
X169458885Y-108749999D01*
X169439356Y-108632970D01*
X169359181Y-108399429D01*
X169359178Y-108399421D01*
X169241651Y-108182251D01*
X169241647Y-108182245D01*
X169089991Y-107987398D01*
X169089988Y-107987394D01*
X168908311Y-107820148D01*
X168701591Y-107685092D01*
X168475460Y-107585901D01*
X168236090Y-107525284D01*
X168051631Y-107510000D01*
X167250000Y-107510000D01*
X167250000Y-108225541D01*
X167230315Y-108292580D01*
X167177511Y-108338335D01*
X167111053Y-108348637D01*
X167039922Y-108340000D01*
X167039919Y-108340000D01*
X166960081Y-108340000D01*
X166960078Y-108340000D01*
X166888947Y-108348637D01*
X166820023Y-108337177D01*
X166768237Y-108290273D01*
X166750000Y-108225541D01*
X166750000Y-107510000D01*
X165948369Y-107510000D01*
X165763909Y-107525284D01*
X165524539Y-107585901D01*
X165298408Y-107685092D01*
X165091688Y-107820148D01*
X164910011Y-107987394D01*
X164910008Y-107987398D01*
X164758352Y-108182245D01*
X164758348Y-108182251D01*
X164640821Y-108399421D01*
X164640818Y-108399429D01*
X164560643Y-108632970D01*
X164541114Y-108749999D01*
X160862736Y-108749999D01*
X160923240Y-108702906D01*
X161075722Y-108537268D01*
X161198860Y-108348791D01*
X161289296Y-108142616D01*
X161344564Y-107924368D01*
X161349026Y-107870525D01*
X161363156Y-107700005D01*
X161363156Y-107699994D01*
X161344565Y-107475640D01*
X161344563Y-107475628D01*
X161341876Y-107465018D01*
X161289296Y-107257384D01*
X161198860Y-107051209D01*
X161075722Y-106862732D01*
X161075719Y-106862729D01*
X161075715Y-106862723D01*
X160923243Y-106697097D01*
X160923238Y-106697092D01*
X160745577Y-106558812D01*
X160745572Y-106558808D01*
X160547580Y-106451661D01*
X160547577Y-106451659D01*
X160547574Y-106451658D01*
X160547571Y-106451657D01*
X160547569Y-106451656D01*
X160334637Y-106378556D01*
X160112569Y-106341500D01*
X159887431Y-106341500D01*
X159665362Y-106378556D01*
X159452430Y-106451656D01*
X159452419Y-106451661D01*
X159254427Y-106558808D01*
X159254422Y-106558812D01*
X159076761Y-106697092D01*
X159013548Y-106765760D01*
X158953661Y-106801750D01*
X158883823Y-106799649D01*
X158826207Y-106760124D01*
X158806138Y-106725110D01*
X158760889Y-106603796D01*
X158727214Y-106558812D01*
X158673261Y-106486739D01*
X158556204Y-106399111D01*
X158507004Y-106380760D01*
X158419203Y-106348011D01*
X158358654Y-106341500D01*
X158358638Y-106341500D01*
X156561362Y-106341500D01*
X156561345Y-106341500D01*
X156500797Y-106348011D01*
X156500795Y-106348011D01*
X156363795Y-106399111D01*
X156246739Y-106486739D01*
X156159111Y-106603795D01*
X156108011Y-106740795D01*
X156108011Y-106740797D01*
X156101500Y-106801345D01*
X156101500Y-108598654D01*
X59829838Y-108598654D01*
X59828633Y-108596851D01*
X59828625Y-108596840D01*
X59795025Y-108558528D01*
X59795024Y-108558528D01*
X58969561Y-109383990D01*
X58908238Y-109417475D01*
X58838546Y-109412491D01*
X58792006Y-109381741D01*
X58785727Y-109375136D01*
X58654734Y-109237331D01*
X58654735Y-109237331D01*
X58631549Y-109221193D01*
X58587772Y-109166738D01*
X58580384Y-109097260D01*
X58611732Y-109034817D01*
X58614707Y-109031738D01*
X59441470Y-108204974D01*
X59441470Y-108204973D01*
X59403159Y-108171374D01*
X59403155Y-108171371D01*
X59152469Y-108003868D01*
X58882062Y-107870518D01*
X58882052Y-107870514D01*
X58596573Y-107773607D01*
X58596553Y-107773602D01*
X58300864Y-107714786D01*
X58300852Y-107714784D01*
X58000000Y-107695065D01*
X57699147Y-107714784D01*
X57699135Y-107714786D01*
X57403446Y-107773602D01*
X57403431Y-107773606D01*
X57117944Y-107870516D01*
X57117923Y-107870525D01*
X56847528Y-108003870D01*
X56596844Y-108171370D01*
X56596837Y-108171376D01*
X56558528Y-108204972D01*
X56558527Y-108204974D01*
X57386472Y-109032919D01*
X57419957Y-109094242D01*
X57414973Y-109163934D01*
X57379561Y-109214686D01*
X57271471Y-109307477D01*
X57219099Y-109375136D01*
X57162497Y-109416100D01*
X57092734Y-109419959D01*
X57033362Y-109386915D01*
X56204974Y-108558527D01*
X56204972Y-108558528D01*
X56171376Y-108596837D01*
X56171370Y-108596844D01*
X56003870Y-108847528D01*
X55870525Y-109117923D01*
X55870516Y-109117944D01*
X55773606Y-109403431D01*
X55773602Y-109403446D01*
X55714786Y-109699135D01*
X55714784Y-109699147D01*
X55695065Y-110000000D01*
X38100500Y-110000000D01*
X38100500Y-108213654D01*
X46901500Y-108213654D01*
X46908011Y-108274202D01*
X46908011Y-108274204D01*
X46945742Y-108375362D01*
X46959111Y-108411204D01*
X47046739Y-108528261D01*
X47163796Y-108615889D01*
X47300799Y-108666989D01*
X47328050Y-108669918D01*
X47361345Y-108673499D01*
X47361362Y-108673500D01*
X49158638Y-108673500D01*
X49158654Y-108673499D01*
X49185692Y-108670591D01*
X49219201Y-108666989D01*
X49356204Y-108615889D01*
X49473261Y-108528261D01*
X49560889Y-108411204D01*
X49606138Y-108289887D01*
X49648009Y-108233956D01*
X49713474Y-108209539D01*
X49781746Y-108224391D01*
X49813545Y-108249236D01*
X49876760Y-108317906D01*
X50054424Y-108456189D01*
X50054425Y-108456189D01*
X50054427Y-108456191D01*
X50181135Y-108524761D01*
X50252426Y-108563342D01*
X50465365Y-108636444D01*
X50687431Y-108673500D01*
X50912569Y-108673500D01*
X51134635Y-108636444D01*
X51347574Y-108563342D01*
X51545576Y-108456189D01*
X51723240Y-108317906D01*
X51827204Y-108204972D01*
X51875715Y-108152276D01*
X51875716Y-108152274D01*
X51875722Y-108152268D01*
X51998860Y-107963791D01*
X52089296Y-107757616D01*
X52144564Y-107539368D01*
X52149845Y-107475640D01*
X52163156Y-107315005D01*
X52163156Y-107314994D01*
X52144565Y-107090640D01*
X52144563Y-107090628D01*
X52089296Y-106872385D01*
X52058135Y-106801345D01*
X51998860Y-106666209D01*
X51875722Y-106477732D01*
X51875719Y-106477729D01*
X51875715Y-106477723D01*
X51723243Y-106312097D01*
X51723238Y-106312092D01*
X51545577Y-106173812D01*
X51545572Y-106173808D01*
X51347580Y-106066661D01*
X51347577Y-106066659D01*
X51347574Y-106066658D01*
X51347571Y-106066657D01*
X51347569Y-106066656D01*
X51134637Y-105993556D01*
X50912569Y-105956500D01*
X50687431Y-105956500D01*
X50465362Y-105993556D01*
X50252430Y-106066656D01*
X50252419Y-106066661D01*
X50054427Y-106173808D01*
X50054422Y-106173812D01*
X49876761Y-106312092D01*
X49813548Y-106380760D01*
X49753661Y-106416750D01*
X49683823Y-106414649D01*
X49626207Y-106375124D01*
X49606138Y-106340110D01*
X49560889Y-106218796D01*
X49527214Y-106173812D01*
X49473261Y-106101739D01*
X49356204Y-106014111D01*
X49356204Y-106014110D01*
X49219203Y-105963011D01*
X49158654Y-105956500D01*
X49158638Y-105956500D01*
X47361362Y-105956500D01*
X47361345Y-105956500D01*
X47300797Y-105963011D01*
X47300795Y-105963011D01*
X47163795Y-106014111D01*
X47046739Y-106101739D01*
X46959111Y-106218795D01*
X46908011Y-106355795D01*
X46908011Y-106355797D01*
X46901500Y-106416345D01*
X46901500Y-108213654D01*
X38100500Y-108213654D01*
X38100500Y-102870004D01*
X38865037Y-102870004D01*
X38884860Y-103134535D01*
X38884861Y-103134540D01*
X38943890Y-103393166D01*
X38943896Y-103393185D01*
X39040814Y-103640128D01*
X39040813Y-103640128D01*
X39173457Y-103869871D01*
X39223642Y-103932803D01*
X40031050Y-103125395D01*
X40092373Y-103091910D01*
X40162064Y-103096894D01*
X40217998Y-103138766D01*
X40223039Y-103146025D01*
X40223048Y-103146039D01*
X40258239Y-103200798D01*
X40373602Y-103300759D01*
X40371293Y-103303422D01*
X40406006Y-103343499D01*
X40415935Y-103412660D01*
X40386898Y-103476210D01*
X40380882Y-103482669D01*
X39576438Y-104287112D01*
X39752525Y-104407166D01*
X39752526Y-104407167D01*
X39991530Y-104522264D01*
X39991528Y-104522264D01*
X40245025Y-104600458D01*
X40245031Y-104600459D01*
X40507351Y-104639999D01*
X40507358Y-104640000D01*
X40772642Y-104640000D01*
X40772648Y-104639999D01*
X41034968Y-104600459D01*
X41034974Y-104600458D01*
X41288470Y-104522264D01*
X41527479Y-104407164D01*
X41703560Y-104287112D01*
X40899116Y-103482669D01*
X40865631Y-103421346D01*
X40870615Y-103351655D01*
X40907641Y-103302193D01*
X40906398Y-103300759D01*
X40913100Y-103294952D01*
X41021761Y-103200798D01*
X41056954Y-103146037D01*
X41109755Y-103100283D01*
X41178914Y-103090339D01*
X41242470Y-103119363D01*
X41248949Y-103125396D01*
X42056355Y-103932803D01*
X42056356Y-103932802D01*
X42106545Y-103869869D01*
X42239185Y-103640128D01*
X42336103Y-103393185D01*
X42336109Y-103393166D01*
X42395138Y-103134540D01*
X42395139Y-103134535D01*
X42414963Y-102870004D01*
X56636513Y-102870004D01*
X56656432Y-103135812D01*
X56694688Y-103303422D01*
X56715748Y-103395692D01*
X56813134Y-103643826D01*
X56946414Y-103874674D01*
X57080649Y-104042999D01*
X57112615Y-104083083D01*
X57297074Y-104254235D01*
X57308014Y-104264386D01*
X57528257Y-104414545D01*
X57768415Y-104530199D01*
X57768416Y-104530199D01*
X57768419Y-104530201D01*
X58023137Y-104608771D01*
X58286720Y-104648500D01*
X58286721Y-104648500D01*
X58553279Y-104648500D01*
X58553280Y-104648500D01*
X58816863Y-104608771D01*
X59071581Y-104530201D01*
X59311744Y-104414545D01*
X59531986Y-104264386D01*
X59727388Y-104083079D01*
X59893586Y-103874674D01*
X60026866Y-103643826D01*
X60124252Y-103395692D01*
X60183567Y-103135815D01*
X60203487Y-102870004D01*
X150625037Y-102870004D01*
X150644860Y-103134535D01*
X150644861Y-103134540D01*
X150703890Y-103393166D01*
X150703896Y-103393185D01*
X150800814Y-103640128D01*
X150800813Y-103640128D01*
X150933457Y-103869871D01*
X150983642Y-103932803D01*
X151791050Y-103125395D01*
X151852373Y-103091910D01*
X151922064Y-103096894D01*
X151977998Y-103138766D01*
X151983039Y-103146025D01*
X151983048Y-103146039D01*
X152018239Y-103200798D01*
X152133602Y-103300759D01*
X152131293Y-103303422D01*
X152166006Y-103343499D01*
X152175935Y-103412660D01*
X152146898Y-103476210D01*
X152140882Y-103482669D01*
X151336438Y-104287112D01*
X151512525Y-104407166D01*
X151512526Y-104407167D01*
X151751530Y-104522264D01*
X151751528Y-104522264D01*
X152005025Y-104600458D01*
X152005031Y-104600459D01*
X152267351Y-104639999D01*
X152267358Y-104640000D01*
X152532642Y-104640000D01*
X152532648Y-104639999D01*
X152794968Y-104600459D01*
X152794974Y-104600458D01*
X153048470Y-104522264D01*
X153287479Y-104407164D01*
X153463560Y-104287112D01*
X152659116Y-103482669D01*
X152625631Y-103421346D01*
X152630615Y-103351655D01*
X152667641Y-103302193D01*
X152666398Y-103300759D01*
X152673100Y-103294952D01*
X152781761Y-103200798D01*
X152816954Y-103146037D01*
X152869755Y-103100283D01*
X152938914Y-103090339D01*
X153002470Y-103119363D01*
X153008949Y-103125396D01*
X153816355Y-103932803D01*
X153816356Y-103932802D01*
X153866545Y-103869869D01*
X153999185Y-103640128D01*
X154096103Y-103393185D01*
X154096109Y-103393166D01*
X154155138Y-103134540D01*
X154155139Y-103134535D01*
X154174963Y-102870004D01*
X168396513Y-102870004D01*
X168416432Y-103135812D01*
X168454688Y-103303422D01*
X168475748Y-103395692D01*
X168573134Y-103643826D01*
X168706414Y-103874674D01*
X168840649Y-104042999D01*
X168872615Y-104083083D01*
X169057074Y-104254235D01*
X169068014Y-104264386D01*
X169288257Y-104414545D01*
X169528415Y-104530199D01*
X169528416Y-104530199D01*
X169528419Y-104530201D01*
X169783137Y-104608771D01*
X170046720Y-104648500D01*
X170046721Y-104648500D01*
X170313279Y-104648500D01*
X170313280Y-104648500D01*
X170576863Y-104608771D01*
X170831581Y-104530201D01*
X171071744Y-104414545D01*
X171291986Y-104264386D01*
X171487388Y-104083079D01*
X171653586Y-103874674D01*
X171786866Y-103643826D01*
X171884252Y-103395692D01*
X171943567Y-103135815D01*
X171963487Y-102870000D01*
X171943567Y-102604185D01*
X171884252Y-102344308D01*
X171786866Y-102096174D01*
X171653586Y-101865326D01*
X171487388Y-101656921D01*
X171487387Y-101656920D01*
X171487384Y-101656916D01*
X171291986Y-101475614D01*
X171258650Y-101452886D01*
X171071744Y-101325455D01*
X171071740Y-101325453D01*
X171071737Y-101325451D01*
X171071736Y-101325450D01*
X170831583Y-101209800D01*
X170831585Y-101209800D01*
X170576871Y-101131231D01*
X170576867Y-101131230D01*
X170576863Y-101131229D01*
X170450074Y-101112118D01*
X170313285Y-101091500D01*
X170313280Y-101091500D01*
X170046720Y-101091500D01*
X170046714Y-101091500D01*
X169882566Y-101116242D01*
X169783137Y-101131229D01*
X169783133Y-101131230D01*
X169783134Y-101131230D01*
X169783128Y-101131231D01*
X169528415Y-101209800D01*
X169288265Y-101325450D01*
X169288263Y-101325451D01*
X169068013Y-101475614D01*
X168872615Y-101656916D01*
X168706414Y-101865326D01*
X168573134Y-102096173D01*
X168475750Y-102344302D01*
X168475745Y-102344319D01*
X168416432Y-102604187D01*
X168396513Y-102869995D01*
X168396513Y-102870004D01*
X154174963Y-102870004D01*
X154174963Y-102869995D01*
X154155139Y-102605464D01*
X154155138Y-102605459D01*
X154096109Y-102346833D01*
X154096103Y-102346814D01*
X153999185Y-102099871D01*
X153999186Y-102099871D01*
X153866543Y-101870129D01*
X153866536Y-101870118D01*
X153816356Y-101807196D01*
X153816355Y-101807195D01*
X153008949Y-102614602D01*
X152947626Y-102648087D01*
X152877934Y-102643103D01*
X152822001Y-102601231D01*
X152816953Y-102593961D01*
X152781761Y-102539202D01*
X152666398Y-102439241D01*
X152668708Y-102436574D01*
X152634005Y-102396528D01*
X152624058Y-102327370D01*
X152653080Y-102263813D01*
X152659116Y-102257330D01*
X153463560Y-101452886D01*
X153287484Y-101332839D01*
X153287474Y-101332832D01*
X153048469Y-101217735D01*
X153048471Y-101217735D01*
X152794974Y-101139541D01*
X152794968Y-101139540D01*
X152532648Y-101100000D01*
X152267351Y-101100000D01*
X152005031Y-101139540D01*
X152005025Y-101139541D01*
X151751529Y-101217735D01*
X151512526Y-101332832D01*
X151512518Y-101332837D01*
X151336438Y-101452886D01*
X152140883Y-102257330D01*
X152174368Y-102318653D01*
X152169384Y-102388344D01*
X152132357Y-102437804D01*
X152133602Y-102439241D01*
X152018238Y-102539202D01*
X151983046Y-102593962D01*
X151930242Y-102639717D01*
X151861083Y-102649660D01*
X151797528Y-102620634D01*
X151791050Y-102614603D01*
X150983643Y-101807196D01*
X150933456Y-101870128D01*
X150800814Y-102099871D01*
X150703896Y-102346814D01*
X150703890Y-102346833D01*
X150644861Y-102605459D01*
X150644860Y-102605464D01*
X150625037Y-102869995D01*
X150625037Y-102870004D01*
X60203487Y-102870004D01*
X60203487Y-102870000D01*
X60183567Y-102604185D01*
X60124252Y-102344308D01*
X60026866Y-102096174D01*
X59893586Y-101865326D01*
X59727388Y-101656921D01*
X59727387Y-101656920D01*
X59727384Y-101656916D01*
X59531986Y-101475614D01*
X59498650Y-101452886D01*
X59311744Y-101325455D01*
X59311740Y-101325453D01*
X59311737Y-101325451D01*
X59311736Y-101325450D01*
X59071583Y-101209800D01*
X59071585Y-101209800D01*
X58816871Y-101131231D01*
X58816867Y-101131230D01*
X58816863Y-101131229D01*
X58690074Y-101112118D01*
X58553285Y-101091500D01*
X58553280Y-101091500D01*
X58286720Y-101091500D01*
X58286714Y-101091500D01*
X58122566Y-101116242D01*
X58023137Y-101131229D01*
X58023133Y-101131230D01*
X58023134Y-101131230D01*
X58023128Y-101131231D01*
X57768415Y-101209800D01*
X57528265Y-101325450D01*
X57528263Y-101325451D01*
X57308013Y-101475614D01*
X57112615Y-101656916D01*
X56946414Y-101865326D01*
X56813134Y-102096173D01*
X56715750Y-102344302D01*
X56715745Y-102344319D01*
X56656432Y-102604187D01*
X56636513Y-102869995D01*
X56636513Y-102870004D01*
X42414963Y-102870004D01*
X42414963Y-102869995D01*
X42395139Y-102605464D01*
X42395138Y-102605459D01*
X42336109Y-102346833D01*
X42336103Y-102346814D01*
X42239185Y-102099871D01*
X42239186Y-102099871D01*
X42106543Y-101870129D01*
X42106536Y-101870118D01*
X42056356Y-101807196D01*
X42056355Y-101807195D01*
X41248949Y-102614602D01*
X41187626Y-102648087D01*
X41117934Y-102643103D01*
X41062001Y-102601231D01*
X41056953Y-102593961D01*
X41021761Y-102539202D01*
X40906398Y-102439241D01*
X40908708Y-102436574D01*
X40874005Y-102396528D01*
X40864058Y-102327370D01*
X40893080Y-102263813D01*
X40899116Y-102257330D01*
X41703560Y-101452886D01*
X41527484Y-101332839D01*
X41527474Y-101332832D01*
X41288469Y-101217735D01*
X41288471Y-101217735D01*
X41034974Y-101139541D01*
X41034968Y-101139540D01*
X40772648Y-101100000D01*
X40507351Y-101100000D01*
X40245031Y-101139540D01*
X40245025Y-101139541D01*
X39991529Y-101217735D01*
X39752526Y-101332832D01*
X39752518Y-101332837D01*
X39576438Y-101452886D01*
X40380883Y-102257330D01*
X40414368Y-102318653D01*
X40409384Y-102388344D01*
X40372357Y-102437804D01*
X40373602Y-102439241D01*
X40258238Y-102539202D01*
X40223046Y-102593962D01*
X40170242Y-102639717D01*
X40101083Y-102649660D01*
X40037528Y-102620634D01*
X40031050Y-102614603D01*
X39223643Y-101807196D01*
X39173456Y-101870128D01*
X39040814Y-102099871D01*
X38943896Y-102346814D01*
X38943890Y-102346833D01*
X38884861Y-102605459D01*
X38884860Y-102605464D01*
X38865037Y-102869995D01*
X38865037Y-102870004D01*
X38100500Y-102870004D01*
X38100500Y-68376187D01*
X79554500Y-68376187D01*
X79574794Y-68510823D01*
X79593604Y-68635615D01*
X79593605Y-68635617D01*
X79593606Y-68635623D01*
X79670938Y-68886326D01*
X79784767Y-69122696D01*
X79784768Y-69122697D01*
X79784770Y-69122700D01*
X79784772Y-69122704D01*
X79932566Y-69339479D01*
X79932567Y-69339479D01*
X80111014Y-69531801D01*
X80111018Y-69531804D01*
X80111019Y-69531805D01*
X80316143Y-69695386D01*
X80543357Y-69826568D01*
X80787584Y-69922420D01*
X81043370Y-69980802D01*
X81043376Y-69980802D01*
X81043379Y-69980803D01*
X81239500Y-69995500D01*
X81239506Y-69995500D01*
X81370500Y-69995500D01*
X81566620Y-69980803D01*
X81566622Y-69980802D01*
X81566630Y-69980802D01*
X81822416Y-69922420D01*
X82066643Y-69826568D01*
X82293857Y-69695386D01*
X82498981Y-69531805D01*
X82677433Y-69339479D01*
X82825228Y-69122704D01*
X82939063Y-68886323D01*
X83016396Y-68635615D01*
X83055499Y-68376187D01*
X127814500Y-68376187D01*
X127834794Y-68510823D01*
X127853604Y-68635615D01*
X127853605Y-68635617D01*
X127853606Y-68635623D01*
X127930938Y-68886326D01*
X128044767Y-69122696D01*
X128044768Y-69122697D01*
X128044770Y-69122700D01*
X128044772Y-69122704D01*
X128192566Y-69339479D01*
X128192567Y-69339479D01*
X128371014Y-69531801D01*
X128371018Y-69531804D01*
X128371019Y-69531805D01*
X128576143Y-69695386D01*
X128803357Y-69826568D01*
X129047584Y-69922420D01*
X129303370Y-69980802D01*
X129303376Y-69980802D01*
X129303379Y-69980803D01*
X129499500Y-69995500D01*
X129499506Y-69995500D01*
X129630500Y-69995500D01*
X129826620Y-69980803D01*
X129826622Y-69980802D01*
X129826630Y-69980802D01*
X130082416Y-69922420D01*
X130326643Y-69826568D01*
X130553857Y-69695386D01*
X130758981Y-69531805D01*
X130937433Y-69339479D01*
X131085228Y-69122704D01*
X131199063Y-68886323D01*
X131276396Y-68635615D01*
X131315500Y-68376182D01*
X131315500Y-68113818D01*
X131276396Y-67854385D01*
X131199063Y-67603677D01*
X131187121Y-67578880D01*
X131085232Y-67367303D01*
X131085231Y-67367302D01*
X131085230Y-67367301D01*
X131085228Y-67367296D01*
X130937433Y-67150521D01*
X130927441Y-67139753D01*
X130758985Y-66958198D01*
X130719533Y-66926736D01*
X130553857Y-66794614D01*
X130326643Y-66663432D01*
X130082416Y-66567580D01*
X130082411Y-66567578D01*
X130082402Y-66567576D01*
X129864818Y-66517914D01*
X129826630Y-66509198D01*
X129826629Y-66509197D01*
X129826625Y-66509197D01*
X129826620Y-66509196D01*
X129630500Y-66494500D01*
X129630494Y-66494500D01*
X129499506Y-66494500D01*
X129499500Y-66494500D01*
X129303379Y-66509196D01*
X129303374Y-66509197D01*
X129047597Y-66567576D01*
X129047578Y-66567582D01*
X128803356Y-66663432D01*
X128576143Y-66794614D01*
X128371014Y-66958198D01*
X128192567Y-67150520D01*
X128044768Y-67367302D01*
X128044767Y-67367303D01*
X127930938Y-67603673D01*
X127853606Y-67854376D01*
X127853605Y-67854381D01*
X127853604Y-67854385D01*
X127838853Y-67952247D01*
X127814500Y-68113812D01*
X127814500Y-68376187D01*
X83055499Y-68376187D01*
X83055500Y-68376182D01*
X83055500Y-68113818D01*
X83016396Y-67854385D01*
X82939063Y-67603677D01*
X82927121Y-67578880D01*
X82825232Y-67367303D01*
X82825231Y-67367302D01*
X82825230Y-67367301D01*
X82825228Y-67367296D01*
X82677433Y-67150521D01*
X82667441Y-67139753D01*
X82498985Y-66958198D01*
X82459533Y-66926736D01*
X82293857Y-66794614D01*
X82066643Y-66663432D01*
X81822416Y-66567580D01*
X81822411Y-66567578D01*
X81822402Y-66567576D01*
X81604818Y-66517914D01*
X81566630Y-66509198D01*
X81566629Y-66509197D01*
X81566625Y-66509197D01*
X81566620Y-66509196D01*
X81370500Y-66494500D01*
X81370494Y-66494500D01*
X81239506Y-66494500D01*
X81239500Y-66494500D01*
X81043379Y-66509196D01*
X81043374Y-66509197D01*
X80787597Y-66567576D01*
X80787578Y-66567582D01*
X80543356Y-66663432D01*
X80316143Y-66794614D01*
X80111014Y-66958198D01*
X79932567Y-67150520D01*
X79784768Y-67367302D01*
X79784767Y-67367303D01*
X79670938Y-67603673D01*
X79593606Y-67854376D01*
X79593605Y-67854381D01*
X79593604Y-67854385D01*
X79578853Y-67952247D01*
X79554500Y-68113812D01*
X79554500Y-68376187D01*
X38100500Y-68376187D01*
X38100500Y-62230004D01*
X38865037Y-62230004D01*
X38884860Y-62494535D01*
X38884861Y-62494540D01*
X38943890Y-62753166D01*
X38943896Y-62753185D01*
X39040814Y-63000128D01*
X39040813Y-63000128D01*
X39173457Y-63229871D01*
X39223642Y-63292803D01*
X40031050Y-62485395D01*
X40092373Y-62451910D01*
X40162064Y-62456894D01*
X40217998Y-62498766D01*
X40223039Y-62506025D01*
X40223048Y-62506039D01*
X40258239Y-62560798D01*
X40373602Y-62660759D01*
X40371293Y-62663422D01*
X40406006Y-62703499D01*
X40415935Y-62772660D01*
X40386898Y-62836210D01*
X40380882Y-62842669D01*
X39576438Y-63647112D01*
X39752525Y-63767166D01*
X39752526Y-63767167D01*
X39991530Y-63882264D01*
X39991528Y-63882264D01*
X40245025Y-63960458D01*
X40245031Y-63960459D01*
X40507351Y-63999999D01*
X40507358Y-64000000D01*
X40772642Y-64000000D01*
X40772648Y-63999999D01*
X41034968Y-63960459D01*
X41034974Y-63960458D01*
X41288470Y-63882264D01*
X41527479Y-63767164D01*
X41703560Y-63647112D01*
X41605102Y-63548654D01*
X56641500Y-63548654D01*
X56648011Y-63609202D01*
X56648011Y-63609204D01*
X56699110Y-63746203D01*
X56699111Y-63746204D01*
X56786739Y-63863261D01*
X56903796Y-63950889D01*
X57018949Y-63993839D01*
X57035463Y-63999999D01*
X57040799Y-64001989D01*
X57068050Y-64004918D01*
X57101345Y-64008499D01*
X57101362Y-64008500D01*
X59738638Y-64008500D01*
X59738654Y-64008499D01*
X59765692Y-64005591D01*
X59799201Y-64001989D01*
X59804537Y-63999999D01*
X59813768Y-63996555D01*
X59936204Y-63950889D01*
X60053261Y-63863261D01*
X60140889Y-63746204D01*
X60191989Y-63609201D01*
X60195591Y-63575692D01*
X60198499Y-63548654D01*
X60198500Y-63548637D01*
X60198500Y-62230004D01*
X150625037Y-62230004D01*
X150644860Y-62494535D01*
X150644861Y-62494540D01*
X150703890Y-62753166D01*
X150703896Y-62753185D01*
X150800814Y-63000128D01*
X150800813Y-63000128D01*
X150933457Y-63229871D01*
X150983642Y-63292803D01*
X151791050Y-62485395D01*
X151852373Y-62451910D01*
X151922064Y-62456894D01*
X151977998Y-62498766D01*
X151983039Y-62506025D01*
X151983048Y-62506039D01*
X152018239Y-62560798D01*
X152133602Y-62660759D01*
X152131293Y-62663422D01*
X152166006Y-62703499D01*
X152175935Y-62772660D01*
X152146898Y-62836210D01*
X152140882Y-62842669D01*
X151336438Y-63647112D01*
X151512525Y-63767166D01*
X151512526Y-63767167D01*
X151751530Y-63882264D01*
X151751528Y-63882264D01*
X152005025Y-63960458D01*
X152005031Y-63960459D01*
X152267351Y-63999999D01*
X152267358Y-64000000D01*
X152532642Y-64000000D01*
X152532648Y-63999999D01*
X152794968Y-63960459D01*
X152794974Y-63960458D01*
X153048470Y-63882264D01*
X153287479Y-63767164D01*
X153463560Y-63647112D01*
X152659116Y-62842669D01*
X152625631Y-62781346D01*
X152630615Y-62711655D01*
X152667641Y-62662193D01*
X152666398Y-62660759D01*
X152673100Y-62654952D01*
X152781761Y-62560798D01*
X152816954Y-62506037D01*
X152869755Y-62460283D01*
X152938914Y-62450339D01*
X153002470Y-62479363D01*
X153008949Y-62485396D01*
X153816355Y-63292803D01*
X153816356Y-63292802D01*
X153866545Y-63229869D01*
X153999185Y-63000128D01*
X154096103Y-62753185D01*
X154096109Y-62753166D01*
X154155138Y-62494540D01*
X154155139Y-62494535D01*
X154174963Y-62230004D01*
X154174963Y-62229995D01*
X154155139Y-61965464D01*
X154155138Y-61965459D01*
X154096109Y-61706833D01*
X154096103Y-61706814D01*
X153999185Y-61459871D01*
X153999186Y-61459871D01*
X153866543Y-61230129D01*
X153866536Y-61230118D01*
X153816356Y-61167196D01*
X153816355Y-61167195D01*
X153008949Y-61974602D01*
X152947626Y-62008087D01*
X152877934Y-62003103D01*
X152822001Y-61961231D01*
X152816953Y-61953961D01*
X152781761Y-61899202D01*
X152666398Y-61799241D01*
X152668708Y-61796574D01*
X152634005Y-61756528D01*
X152624058Y-61687370D01*
X152653080Y-61623813D01*
X152659116Y-61617330D01*
X153463560Y-60812886D01*
X153287484Y-60692839D01*
X153287474Y-60692832D01*
X153048469Y-60577735D01*
X153048471Y-60577735D01*
X152794974Y-60499541D01*
X152794968Y-60499540D01*
X152532648Y-60460000D01*
X152267351Y-60460000D01*
X152005031Y-60499540D01*
X152005025Y-60499541D01*
X151751529Y-60577735D01*
X151512526Y-60692832D01*
X151512518Y-60692837D01*
X151336438Y-60812886D01*
X152140883Y-61617330D01*
X152174368Y-61678653D01*
X152169384Y-61748344D01*
X152132357Y-61797804D01*
X152133602Y-61799241D01*
X152018238Y-61899202D01*
X151983046Y-61953962D01*
X151930242Y-61999717D01*
X151861083Y-62009660D01*
X151797528Y-61980634D01*
X151791050Y-61974603D01*
X150983643Y-61167196D01*
X150933456Y-61230128D01*
X150800814Y-61459871D01*
X150703896Y-61706814D01*
X150703890Y-61706833D01*
X150644861Y-61965459D01*
X150644860Y-61965464D01*
X150625037Y-62229995D01*
X150625037Y-62230004D01*
X60198500Y-62230004D01*
X60198500Y-60911362D01*
X60198499Y-60911345D01*
X60195157Y-60880270D01*
X60191989Y-60850799D01*
X60140889Y-60713796D01*
X60053261Y-60596739D01*
X59936204Y-60509111D01*
X59910546Y-60499541D01*
X59799203Y-60458011D01*
X59738654Y-60451500D01*
X59738638Y-60451500D01*
X57101362Y-60451500D01*
X57101345Y-60451500D01*
X57040797Y-60458011D01*
X57040795Y-60458011D01*
X56903795Y-60509111D01*
X56786739Y-60596739D01*
X56699111Y-60713795D01*
X56648011Y-60850795D01*
X56648011Y-60850797D01*
X56641500Y-60911345D01*
X56641500Y-63548654D01*
X41605102Y-63548654D01*
X40899116Y-62842669D01*
X40865631Y-62781346D01*
X40870615Y-62711655D01*
X40907641Y-62662193D01*
X40906398Y-62660759D01*
X40913100Y-62654952D01*
X41021761Y-62560798D01*
X41056954Y-62506037D01*
X41109755Y-62460283D01*
X41178914Y-62450339D01*
X41242470Y-62479363D01*
X41248949Y-62485396D01*
X42056355Y-63292803D01*
X42056356Y-63292802D01*
X42106545Y-63229869D01*
X42239185Y-63000128D01*
X42336103Y-62753185D01*
X42336109Y-62753166D01*
X42395138Y-62494540D01*
X42395139Y-62494535D01*
X42414963Y-62230004D01*
X42414963Y-62229995D01*
X42395139Y-61965464D01*
X42395138Y-61965459D01*
X42336109Y-61706833D01*
X42336103Y-61706814D01*
X42239185Y-61459871D01*
X42239186Y-61459871D01*
X42106543Y-61230129D01*
X42106536Y-61230118D01*
X42056356Y-61167196D01*
X42056355Y-61167195D01*
X41248949Y-61974602D01*
X41187626Y-62008087D01*
X41117934Y-62003103D01*
X41062001Y-61961231D01*
X41056953Y-61953961D01*
X41021761Y-61899202D01*
X40906398Y-61799241D01*
X40908708Y-61796574D01*
X40874005Y-61756528D01*
X40864058Y-61687370D01*
X40893080Y-61623813D01*
X40899116Y-61617330D01*
X41703560Y-60812886D01*
X41527484Y-60692839D01*
X41527474Y-60692832D01*
X41288469Y-60577735D01*
X41288471Y-60577735D01*
X41034974Y-60499541D01*
X41034968Y-60499540D01*
X40772648Y-60460000D01*
X40507351Y-60460000D01*
X40245031Y-60499540D01*
X40245025Y-60499541D01*
X39991529Y-60577735D01*
X39752526Y-60692832D01*
X39752518Y-60692837D01*
X39576438Y-60812886D01*
X40380883Y-61617330D01*
X40414368Y-61678653D01*
X40409384Y-61748344D01*
X40372357Y-61797804D01*
X40373602Y-61799241D01*
X40258238Y-61899202D01*
X40223046Y-61953962D01*
X40170242Y-61999717D01*
X40101083Y-62009660D01*
X40037528Y-61980634D01*
X40031050Y-61974603D01*
X39223643Y-61167196D01*
X39173456Y-61230128D01*
X39040814Y-61459871D01*
X38943896Y-61706814D01*
X38943890Y-61706833D01*
X38884861Y-61965459D01*
X38884860Y-61965464D01*
X38865037Y-62229995D01*
X38865037Y-62230004D01*
X38100500Y-62230004D01*
X38100500Y-60124000D01*
X38120185Y-60056961D01*
X38172989Y-60011206D01*
X38224500Y-60000000D01*
X52000000Y-60000000D01*
X52000000Y-57912005D01*
X54516844Y-57912005D01*
X54535434Y-58136359D01*
X54535436Y-58136371D01*
X54590703Y-58354614D01*
X54681140Y-58560792D01*
X54804276Y-58749265D01*
X54804284Y-58749276D01*
X54930967Y-58886888D01*
X54956760Y-58914906D01*
X55134424Y-59053189D01*
X55134425Y-59053189D01*
X55134427Y-59053191D01*
X55193124Y-59084956D01*
X55332426Y-59160342D01*
X55545365Y-59233444D01*
X55767431Y-59270500D01*
X55992569Y-59270500D01*
X56214635Y-59233444D01*
X56427574Y-59160342D01*
X56625576Y-59053189D01*
X56803240Y-58914906D01*
X56866452Y-58846239D01*
X56926337Y-58810250D01*
X56996175Y-58812349D01*
X57053791Y-58851873D01*
X57073861Y-58886888D01*
X57117269Y-59003265D01*
X57119111Y-59008204D01*
X57206739Y-59125261D01*
X57323796Y-59212889D01*
X57378906Y-59233444D01*
X57456018Y-59262206D01*
X57460799Y-59263989D01*
X57488050Y-59266918D01*
X57521345Y-59270499D01*
X57521362Y-59270500D01*
X59318638Y-59270500D01*
X59318654Y-59270499D01*
X59345692Y-59267591D01*
X59379201Y-59263989D01*
X59383982Y-59262206D01*
X59393768Y-59258555D01*
X59516204Y-59212889D01*
X59633261Y-59125261D01*
X59720889Y-59008204D01*
X59771989Y-58871201D01*
X59775591Y-58837692D01*
X59778499Y-58810654D01*
X59778500Y-58810637D01*
X59778500Y-57013362D01*
X59778499Y-57013345D01*
X59774672Y-56977759D01*
X59771989Y-56952799D01*
X59720889Y-56815796D01*
X59633261Y-56698739D01*
X59516204Y-56611111D01*
X59516204Y-56611110D01*
X59379203Y-56560011D01*
X59318654Y-56553500D01*
X59318638Y-56553500D01*
X57521362Y-56553500D01*
X57521345Y-56553500D01*
X57460797Y-56560011D01*
X57460795Y-56560011D01*
X57323795Y-56611111D01*
X57206739Y-56698739D01*
X57119111Y-56815795D01*
X57073861Y-56937111D01*
X57031989Y-56993044D01*
X56966524Y-57017460D01*
X56898252Y-57002607D01*
X56866454Y-56977762D01*
X56803240Y-56909094D01*
X56625576Y-56770811D01*
X56625575Y-56770810D01*
X56625572Y-56770808D01*
X56427580Y-56663661D01*
X56427577Y-56663659D01*
X56427574Y-56663658D01*
X56427571Y-56663657D01*
X56427569Y-56663656D01*
X56214637Y-56590556D01*
X55992569Y-56553500D01*
X55767431Y-56553500D01*
X55545362Y-56590556D01*
X55332430Y-56663656D01*
X55332419Y-56663661D01*
X55134427Y-56770808D01*
X55134422Y-56770812D01*
X54956761Y-56909092D01*
X54956756Y-56909097D01*
X54804284Y-57074723D01*
X54804276Y-57074734D01*
X54681140Y-57263207D01*
X54590703Y-57469385D01*
X54535436Y-57687628D01*
X54535434Y-57687640D01*
X54516844Y-57911994D01*
X54516844Y-57912005D01*
X52000000Y-57912005D01*
X52000000Y-51124000D01*
X52019685Y-51056961D01*
X52072489Y-51011206D01*
X52124000Y-51000000D01*
X54873802Y-51000000D01*
X54940841Y-51019685D01*
G37*
%TD.AperFunction*%
%TD*%
M02*
