%TF.GenerationSoftware,KiCad,Pcbnew,7.0.7*%
%TF.CreationDate,2023-10-16T23:42:31-07:00*%
%TF.ProjectId,cube2,63756265-322e-46b6-9963-61645f706362,rev?*%
%TF.SameCoordinates,Original*%
%TF.FileFunction,Legend,Top*%
%TF.FilePolarity,Positive*%
%FSLAX46Y46*%
G04 Gerber Fmt 4.6, Leading zero omitted, Abs format (unit mm)*
G04 Created by KiCad (PCBNEW 7.0.7) date 2023-10-16 23:42:31*
%MOMM*%
%LPD*%
G01*
G04 APERTURE LIST*
%ADD10C,0.150000*%
%ADD11C,0.120000*%
%ADD12C,0.100000*%
%ADD13C,0.160000*%
G04 APERTURE END LIST*
D10*
X161460588Y-139017438D02*
X161365350Y-138969819D01*
X161365350Y-138969819D02*
X161222493Y-138969819D01*
X161222493Y-138969819D02*
X161079636Y-139017438D01*
X161079636Y-139017438D02*
X160984398Y-139112676D01*
X160984398Y-139112676D02*
X160936779Y-139207914D01*
X160936779Y-139207914D02*
X160889160Y-139398390D01*
X160889160Y-139398390D02*
X160889160Y-139541247D01*
X160889160Y-139541247D02*
X160936779Y-139731723D01*
X160936779Y-139731723D02*
X160984398Y-139826961D01*
X160984398Y-139826961D02*
X161079636Y-139922200D01*
X161079636Y-139922200D02*
X161222493Y-139969819D01*
X161222493Y-139969819D02*
X161317731Y-139969819D01*
X161317731Y-139969819D02*
X161460588Y-139922200D01*
X161460588Y-139922200D02*
X161508207Y-139874580D01*
X161508207Y-139874580D02*
X161508207Y-139541247D01*
X161508207Y-139541247D02*
X161317731Y-139541247D01*
X161936779Y-139969819D02*
X161936779Y-138969819D01*
X161936779Y-138969819D02*
X162508207Y-139969819D01*
X162508207Y-139969819D02*
X162508207Y-138969819D01*
X162984398Y-139969819D02*
X162984398Y-138969819D01*
X162984398Y-138969819D02*
X163222493Y-138969819D01*
X163222493Y-138969819D02*
X163365350Y-139017438D01*
X163365350Y-139017438D02*
X163460588Y-139112676D01*
X163460588Y-139112676D02*
X163508207Y-139207914D01*
X163508207Y-139207914D02*
X163555826Y-139398390D01*
X163555826Y-139398390D02*
X163555826Y-139541247D01*
X163555826Y-139541247D02*
X163508207Y-139731723D01*
X163508207Y-139731723D02*
X163460588Y-139826961D01*
X163460588Y-139826961D02*
X163365350Y-139922200D01*
X163365350Y-139922200D02*
X163222493Y-139969819D01*
X163222493Y-139969819D02*
X162984398Y-139969819D01*
X149148969Y-139585819D02*
X148672779Y-139585819D01*
X148672779Y-139585819D02*
X148625160Y-140062009D01*
X148625160Y-140062009D02*
X148672779Y-140014390D01*
X148672779Y-140014390D02*
X148768017Y-139966771D01*
X148768017Y-139966771D02*
X149006112Y-139966771D01*
X149006112Y-139966771D02*
X149101350Y-140014390D01*
X149101350Y-140014390D02*
X149148969Y-140062009D01*
X149148969Y-140062009D02*
X149196588Y-140157247D01*
X149196588Y-140157247D02*
X149196588Y-140395342D01*
X149196588Y-140395342D02*
X149148969Y-140490580D01*
X149148969Y-140490580D02*
X149101350Y-140538200D01*
X149101350Y-140538200D02*
X149006112Y-140585819D01*
X149006112Y-140585819D02*
X148768017Y-140585819D01*
X148768017Y-140585819D02*
X148672779Y-140538200D01*
X148672779Y-140538200D02*
X148625160Y-140490580D01*
X149482303Y-139585819D02*
X149815636Y-140585819D01*
X149815636Y-140585819D02*
X150148969Y-139585819D01*
X157578588Y-114487438D02*
X157483350Y-114439819D01*
X157483350Y-114439819D02*
X157340493Y-114439819D01*
X157340493Y-114439819D02*
X157197636Y-114487438D01*
X157197636Y-114487438D02*
X157102398Y-114582676D01*
X157102398Y-114582676D02*
X157054779Y-114677914D01*
X157054779Y-114677914D02*
X157007160Y-114868390D01*
X157007160Y-114868390D02*
X157007160Y-115011247D01*
X157007160Y-115011247D02*
X157054779Y-115201723D01*
X157054779Y-115201723D02*
X157102398Y-115296961D01*
X157102398Y-115296961D02*
X157197636Y-115392200D01*
X157197636Y-115392200D02*
X157340493Y-115439819D01*
X157340493Y-115439819D02*
X157435731Y-115439819D01*
X157435731Y-115439819D02*
X157578588Y-115392200D01*
X157578588Y-115392200D02*
X157626207Y-115344580D01*
X157626207Y-115344580D02*
X157626207Y-115011247D01*
X157626207Y-115011247D02*
X157435731Y-115011247D01*
X158054779Y-115439819D02*
X158054779Y-114439819D01*
X158054779Y-114439819D02*
X158626207Y-115439819D01*
X158626207Y-115439819D02*
X158626207Y-114439819D01*
X159102398Y-115439819D02*
X159102398Y-114439819D01*
X159102398Y-114439819D02*
X159340493Y-114439819D01*
X159340493Y-114439819D02*
X159483350Y-114487438D01*
X159483350Y-114487438D02*
X159578588Y-114582676D01*
X159578588Y-114582676D02*
X159626207Y-114677914D01*
X159626207Y-114677914D02*
X159673826Y-114868390D01*
X159673826Y-114868390D02*
X159673826Y-115011247D01*
X159673826Y-115011247D02*
X159626207Y-115201723D01*
X159626207Y-115201723D02*
X159578588Y-115296961D01*
X159578588Y-115296961D02*
X159483350Y-115392200D01*
X159483350Y-115392200D02*
X159340493Y-115439819D01*
X159340493Y-115439819D02*
X159102398Y-115439819D01*
X39738180Y-123748969D02*
X39738180Y-123272779D01*
X39738180Y-123272779D02*
X39261990Y-123225160D01*
X39261990Y-123225160D02*
X39309609Y-123272779D01*
X39309609Y-123272779D02*
X39357228Y-123368017D01*
X39357228Y-123368017D02*
X39357228Y-123606112D01*
X39357228Y-123606112D02*
X39309609Y-123701350D01*
X39309609Y-123701350D02*
X39261990Y-123748969D01*
X39261990Y-123748969D02*
X39166752Y-123796588D01*
X39166752Y-123796588D02*
X38928657Y-123796588D01*
X38928657Y-123796588D02*
X38833419Y-123748969D01*
X38833419Y-123748969D02*
X38785800Y-123701350D01*
X38785800Y-123701350D02*
X38738180Y-123606112D01*
X38738180Y-123606112D02*
X38738180Y-123368017D01*
X38738180Y-123368017D02*
X38785800Y-123272779D01*
X38785800Y-123272779D02*
X38833419Y-123225160D01*
X39738180Y-124082303D02*
X38738180Y-124415636D01*
X38738180Y-124415636D02*
X39738180Y-124748969D01*
X39484180Y-112064969D02*
X39484180Y-111588779D01*
X39484180Y-111588779D02*
X39007990Y-111541160D01*
X39007990Y-111541160D02*
X39055609Y-111588779D01*
X39055609Y-111588779D02*
X39103228Y-111684017D01*
X39103228Y-111684017D02*
X39103228Y-111922112D01*
X39103228Y-111922112D02*
X39055609Y-112017350D01*
X39055609Y-112017350D02*
X39007990Y-112064969D01*
X39007990Y-112064969D02*
X38912752Y-112112588D01*
X38912752Y-112112588D02*
X38674657Y-112112588D01*
X38674657Y-112112588D02*
X38579419Y-112064969D01*
X38579419Y-112064969D02*
X38531800Y-112017350D01*
X38531800Y-112017350D02*
X38484180Y-111922112D01*
X38484180Y-111922112D02*
X38484180Y-111684017D01*
X38484180Y-111684017D02*
X38531800Y-111588779D01*
X38531800Y-111588779D02*
X38579419Y-111541160D01*
X39484180Y-112398303D02*
X38484180Y-112731636D01*
X38484180Y-112731636D02*
X39484180Y-113064969D01*
X39436561Y-117192588D02*
X39484180Y-117097350D01*
X39484180Y-117097350D02*
X39484180Y-116954493D01*
X39484180Y-116954493D02*
X39436561Y-116811636D01*
X39436561Y-116811636D02*
X39341323Y-116716398D01*
X39341323Y-116716398D02*
X39246085Y-116668779D01*
X39246085Y-116668779D02*
X39055609Y-116621160D01*
X39055609Y-116621160D02*
X38912752Y-116621160D01*
X38912752Y-116621160D02*
X38722276Y-116668779D01*
X38722276Y-116668779D02*
X38627038Y-116716398D01*
X38627038Y-116716398D02*
X38531800Y-116811636D01*
X38531800Y-116811636D02*
X38484180Y-116954493D01*
X38484180Y-116954493D02*
X38484180Y-117049731D01*
X38484180Y-117049731D02*
X38531800Y-117192588D01*
X38531800Y-117192588D02*
X38579419Y-117240207D01*
X38579419Y-117240207D02*
X38912752Y-117240207D01*
X38912752Y-117240207D02*
X38912752Y-117049731D01*
X38484180Y-117668779D02*
X39484180Y-117668779D01*
X39484180Y-117668779D02*
X38484180Y-118240207D01*
X38484180Y-118240207D02*
X39484180Y-118240207D01*
X38484180Y-118716398D02*
X39484180Y-118716398D01*
X39484180Y-118716398D02*
X39484180Y-118954493D01*
X39484180Y-118954493D02*
X39436561Y-119097350D01*
X39436561Y-119097350D02*
X39341323Y-119192588D01*
X39341323Y-119192588D02*
X39246085Y-119240207D01*
X39246085Y-119240207D02*
X39055609Y-119287826D01*
X39055609Y-119287826D02*
X38912752Y-119287826D01*
X38912752Y-119287826D02*
X38722276Y-119240207D01*
X38722276Y-119240207D02*
X38627038Y-119192588D01*
X38627038Y-119192588D02*
X38531800Y-119097350D01*
X38531800Y-119097350D02*
X38484180Y-118954493D01*
X38484180Y-118954493D02*
X38484180Y-118716398D01*
X171589819Y-125425030D02*
X171589819Y-125901220D01*
X171589819Y-125901220D02*
X172066009Y-125948839D01*
X172066009Y-125948839D02*
X172018390Y-125901220D01*
X172018390Y-125901220D02*
X171970771Y-125805982D01*
X171970771Y-125805982D02*
X171970771Y-125567887D01*
X171970771Y-125567887D02*
X172018390Y-125472649D01*
X172018390Y-125472649D02*
X172066009Y-125425030D01*
X172066009Y-125425030D02*
X172161247Y-125377411D01*
X172161247Y-125377411D02*
X172399342Y-125377411D01*
X172399342Y-125377411D02*
X172494580Y-125425030D01*
X172494580Y-125425030D02*
X172542200Y-125472649D01*
X172542200Y-125472649D02*
X172589819Y-125567887D01*
X172589819Y-125567887D02*
X172589819Y-125805982D01*
X172589819Y-125805982D02*
X172542200Y-125901220D01*
X172542200Y-125901220D02*
X172494580Y-125948839D01*
X171589819Y-125091696D02*
X172589819Y-124758363D01*
X172589819Y-124758363D02*
X171589819Y-124425030D01*
X57962969Y-119519819D02*
X57486779Y-119519819D01*
X57486779Y-119519819D02*
X57439160Y-119996009D01*
X57439160Y-119996009D02*
X57486779Y-119948390D01*
X57486779Y-119948390D02*
X57582017Y-119900771D01*
X57582017Y-119900771D02*
X57820112Y-119900771D01*
X57820112Y-119900771D02*
X57915350Y-119948390D01*
X57915350Y-119948390D02*
X57962969Y-119996009D01*
X57962969Y-119996009D02*
X58010588Y-120091247D01*
X58010588Y-120091247D02*
X58010588Y-120329342D01*
X58010588Y-120329342D02*
X57962969Y-120424580D01*
X57962969Y-120424580D02*
X57915350Y-120472200D01*
X57915350Y-120472200D02*
X57820112Y-120519819D01*
X57820112Y-120519819D02*
X57582017Y-120519819D01*
X57582017Y-120519819D02*
X57486779Y-120472200D01*
X57486779Y-120472200D02*
X57439160Y-120424580D01*
X58296303Y-119519819D02*
X58629636Y-120519819D01*
X58629636Y-120519819D02*
X58962969Y-119519819D01*
X39436561Y-128368588D02*
X39484180Y-128273350D01*
X39484180Y-128273350D02*
X39484180Y-128130493D01*
X39484180Y-128130493D02*
X39436561Y-127987636D01*
X39436561Y-127987636D02*
X39341323Y-127892398D01*
X39341323Y-127892398D02*
X39246085Y-127844779D01*
X39246085Y-127844779D02*
X39055609Y-127797160D01*
X39055609Y-127797160D02*
X38912752Y-127797160D01*
X38912752Y-127797160D02*
X38722276Y-127844779D01*
X38722276Y-127844779D02*
X38627038Y-127892398D01*
X38627038Y-127892398D02*
X38531800Y-127987636D01*
X38531800Y-127987636D02*
X38484180Y-128130493D01*
X38484180Y-128130493D02*
X38484180Y-128225731D01*
X38484180Y-128225731D02*
X38531800Y-128368588D01*
X38531800Y-128368588D02*
X38579419Y-128416207D01*
X38579419Y-128416207D02*
X38912752Y-128416207D01*
X38912752Y-128416207D02*
X38912752Y-128225731D01*
X38484180Y-128844779D02*
X39484180Y-128844779D01*
X39484180Y-128844779D02*
X38484180Y-129416207D01*
X38484180Y-129416207D02*
X39484180Y-129416207D01*
X38484180Y-129892398D02*
X39484180Y-129892398D01*
X39484180Y-129892398D02*
X39484180Y-130130493D01*
X39484180Y-130130493D02*
X39436561Y-130273350D01*
X39436561Y-130273350D02*
X39341323Y-130368588D01*
X39341323Y-130368588D02*
X39246085Y-130416207D01*
X39246085Y-130416207D02*
X39055609Y-130463826D01*
X39055609Y-130463826D02*
X38912752Y-130463826D01*
X38912752Y-130463826D02*
X38722276Y-130416207D01*
X38722276Y-130416207D02*
X38627038Y-130368588D01*
X38627038Y-130368588D02*
X38531800Y-130273350D01*
X38531800Y-130273350D02*
X38484180Y-130130493D01*
X38484180Y-130130493D02*
X38484180Y-129892398D01*
X154990969Y-121551819D02*
X154514779Y-121551819D01*
X154514779Y-121551819D02*
X154467160Y-122028009D01*
X154467160Y-122028009D02*
X154514779Y-121980390D01*
X154514779Y-121980390D02*
X154610017Y-121932771D01*
X154610017Y-121932771D02*
X154848112Y-121932771D01*
X154848112Y-121932771D02*
X154943350Y-121980390D01*
X154943350Y-121980390D02*
X154990969Y-122028009D01*
X154990969Y-122028009D02*
X155038588Y-122123247D01*
X155038588Y-122123247D02*
X155038588Y-122361342D01*
X155038588Y-122361342D02*
X154990969Y-122456580D01*
X154990969Y-122456580D02*
X154943350Y-122504200D01*
X154943350Y-122504200D02*
X154848112Y-122551819D01*
X154848112Y-122551819D02*
X154610017Y-122551819D01*
X154610017Y-122551819D02*
X154514779Y-122504200D01*
X154514779Y-122504200D02*
X154467160Y-122456580D01*
X155324303Y-121551819D02*
X155657636Y-122551819D01*
X155657636Y-122551819D02*
X155990969Y-121551819D01*
X171637438Y-120551411D02*
X171589819Y-120646649D01*
X171589819Y-120646649D02*
X171589819Y-120789506D01*
X171589819Y-120789506D02*
X171637438Y-120932363D01*
X171637438Y-120932363D02*
X171732676Y-121027601D01*
X171732676Y-121027601D02*
X171827914Y-121075220D01*
X171827914Y-121075220D02*
X172018390Y-121122839D01*
X172018390Y-121122839D02*
X172161247Y-121122839D01*
X172161247Y-121122839D02*
X172351723Y-121075220D01*
X172351723Y-121075220D02*
X172446961Y-121027601D01*
X172446961Y-121027601D02*
X172542200Y-120932363D01*
X172542200Y-120932363D02*
X172589819Y-120789506D01*
X172589819Y-120789506D02*
X172589819Y-120694268D01*
X172589819Y-120694268D02*
X172542200Y-120551411D01*
X172542200Y-120551411D02*
X172494580Y-120503792D01*
X172494580Y-120503792D02*
X172161247Y-120503792D01*
X172161247Y-120503792D02*
X172161247Y-120694268D01*
X172589819Y-120075220D02*
X171589819Y-120075220D01*
X171589819Y-120075220D02*
X172589819Y-119503792D01*
X172589819Y-119503792D02*
X171589819Y-119503792D01*
X172589819Y-119027601D02*
X171589819Y-119027601D01*
X171589819Y-119027601D02*
X171589819Y-118789506D01*
X171589819Y-118789506D02*
X171637438Y-118646649D01*
X171637438Y-118646649D02*
X171732676Y-118551411D01*
X171732676Y-118551411D02*
X171827914Y-118503792D01*
X171827914Y-118503792D02*
X172018390Y-118456173D01*
X172018390Y-118456173D02*
X172161247Y-118456173D01*
X172161247Y-118456173D02*
X172351723Y-118503792D01*
X172351723Y-118503792D02*
X172446961Y-118551411D01*
X172446961Y-118551411D02*
X172542200Y-118646649D01*
X172542200Y-118646649D02*
X172589819Y-118789506D01*
X172589819Y-118789506D02*
X172589819Y-119027601D01*
X171589819Y-113995030D02*
X171589819Y-114471220D01*
X171589819Y-114471220D02*
X172066009Y-114518839D01*
X172066009Y-114518839D02*
X172018390Y-114471220D01*
X172018390Y-114471220D02*
X171970771Y-114375982D01*
X171970771Y-114375982D02*
X171970771Y-114137887D01*
X171970771Y-114137887D02*
X172018390Y-114042649D01*
X172018390Y-114042649D02*
X172066009Y-113995030D01*
X172066009Y-113995030D02*
X172161247Y-113947411D01*
X172161247Y-113947411D02*
X172399342Y-113947411D01*
X172399342Y-113947411D02*
X172494580Y-113995030D01*
X172494580Y-113995030D02*
X172542200Y-114042649D01*
X172542200Y-114042649D02*
X172589819Y-114137887D01*
X172589819Y-114137887D02*
X172589819Y-114375982D01*
X172589819Y-114375982D02*
X172542200Y-114471220D01*
X172542200Y-114471220D02*
X172494580Y-114518839D01*
X171589819Y-113661696D02*
X172589819Y-113328363D01*
X172589819Y-113328363D02*
X171589819Y-112995030D01*
X61460588Y-139017438D02*
X61365350Y-138969819D01*
X61365350Y-138969819D02*
X61222493Y-138969819D01*
X61222493Y-138969819D02*
X61079636Y-139017438D01*
X61079636Y-139017438D02*
X60984398Y-139112676D01*
X60984398Y-139112676D02*
X60936779Y-139207914D01*
X60936779Y-139207914D02*
X60889160Y-139398390D01*
X60889160Y-139398390D02*
X60889160Y-139541247D01*
X60889160Y-139541247D02*
X60936779Y-139731723D01*
X60936779Y-139731723D02*
X60984398Y-139826961D01*
X60984398Y-139826961D02*
X61079636Y-139922200D01*
X61079636Y-139922200D02*
X61222493Y-139969819D01*
X61222493Y-139969819D02*
X61317731Y-139969819D01*
X61317731Y-139969819D02*
X61460588Y-139922200D01*
X61460588Y-139922200D02*
X61508207Y-139874580D01*
X61508207Y-139874580D02*
X61508207Y-139541247D01*
X61508207Y-139541247D02*
X61317731Y-139541247D01*
X61936779Y-139969819D02*
X61936779Y-138969819D01*
X61936779Y-138969819D02*
X62508207Y-139969819D01*
X62508207Y-139969819D02*
X62508207Y-138969819D01*
X62984398Y-139969819D02*
X62984398Y-138969819D01*
X62984398Y-138969819D02*
X63222493Y-138969819D01*
X63222493Y-138969819D02*
X63365350Y-139017438D01*
X63365350Y-139017438D02*
X63460588Y-139112676D01*
X63460588Y-139112676D02*
X63508207Y-139207914D01*
X63508207Y-139207914D02*
X63555826Y-139398390D01*
X63555826Y-139398390D02*
X63555826Y-139541247D01*
X63555826Y-139541247D02*
X63508207Y-139731723D01*
X63508207Y-139731723D02*
X63460588Y-139826961D01*
X63460588Y-139826961D02*
X63365350Y-139922200D01*
X63365350Y-139922200D02*
X63222493Y-139969819D01*
X63222493Y-139969819D02*
X62984398Y-139969819D01*
X171383438Y-108359411D02*
X171335819Y-108454649D01*
X171335819Y-108454649D02*
X171335819Y-108597506D01*
X171335819Y-108597506D02*
X171383438Y-108740363D01*
X171383438Y-108740363D02*
X171478676Y-108835601D01*
X171478676Y-108835601D02*
X171573914Y-108883220D01*
X171573914Y-108883220D02*
X171764390Y-108930839D01*
X171764390Y-108930839D02*
X171907247Y-108930839D01*
X171907247Y-108930839D02*
X172097723Y-108883220D01*
X172097723Y-108883220D02*
X172192961Y-108835601D01*
X172192961Y-108835601D02*
X172288200Y-108740363D01*
X172288200Y-108740363D02*
X172335819Y-108597506D01*
X172335819Y-108597506D02*
X172335819Y-108502268D01*
X172335819Y-108502268D02*
X172288200Y-108359411D01*
X172288200Y-108359411D02*
X172240580Y-108311792D01*
X172240580Y-108311792D02*
X171907247Y-108311792D01*
X171907247Y-108311792D02*
X171907247Y-108502268D01*
X172335819Y-107883220D02*
X171335819Y-107883220D01*
X171335819Y-107883220D02*
X172335819Y-107311792D01*
X172335819Y-107311792D02*
X171335819Y-107311792D01*
X172335819Y-106835601D02*
X171335819Y-106835601D01*
X171335819Y-106835601D02*
X171335819Y-106597506D01*
X171335819Y-106597506D02*
X171383438Y-106454649D01*
X171383438Y-106454649D02*
X171478676Y-106359411D01*
X171478676Y-106359411D02*
X171573914Y-106311792D01*
X171573914Y-106311792D02*
X171764390Y-106264173D01*
X171764390Y-106264173D02*
X171907247Y-106264173D01*
X171907247Y-106264173D02*
X172097723Y-106311792D01*
X172097723Y-106311792D02*
X172192961Y-106359411D01*
X172192961Y-106359411D02*
X172288200Y-106454649D01*
X172288200Y-106454649D02*
X172335819Y-106597506D01*
X172335819Y-106597506D02*
X172335819Y-106835601D01*
X49072969Y-139585819D02*
X48596779Y-139585819D01*
X48596779Y-139585819D02*
X48549160Y-140062009D01*
X48549160Y-140062009D02*
X48596779Y-140014390D01*
X48596779Y-140014390D02*
X48692017Y-139966771D01*
X48692017Y-139966771D02*
X48930112Y-139966771D01*
X48930112Y-139966771D02*
X49025350Y-140014390D01*
X49025350Y-140014390D02*
X49072969Y-140062009D01*
X49072969Y-140062009D02*
X49120588Y-140157247D01*
X49120588Y-140157247D02*
X49120588Y-140395342D01*
X49120588Y-140395342D02*
X49072969Y-140490580D01*
X49072969Y-140490580D02*
X49025350Y-140538200D01*
X49025350Y-140538200D02*
X48930112Y-140585819D01*
X48930112Y-140585819D02*
X48692017Y-140585819D01*
X48692017Y-140585819D02*
X48596779Y-140538200D01*
X48596779Y-140538200D02*
X48549160Y-140490580D01*
X49406303Y-139585819D02*
X49739636Y-140585819D01*
X49739636Y-140585819D02*
X50072969Y-139585819D01*
X161554819Y-126033333D02*
X162269104Y-126033333D01*
X162269104Y-126033333D02*
X162411961Y-126080952D01*
X162411961Y-126080952D02*
X162507200Y-126176190D01*
X162507200Y-126176190D02*
X162554819Y-126319047D01*
X162554819Y-126319047D02*
X162554819Y-126414285D01*
X161554819Y-125652380D02*
X161554819Y-124985714D01*
X161554819Y-124985714D02*
X162554819Y-125414285D01*
X62111666Y-109454819D02*
X62111666Y-110169104D01*
X62111666Y-110169104D02*
X62064047Y-110311961D01*
X62064047Y-110311961D02*
X61968809Y-110407200D01*
X61968809Y-110407200D02*
X61825952Y-110454819D01*
X61825952Y-110454819D02*
X61730714Y-110454819D01*
X62492619Y-109454819D02*
X63111666Y-109454819D01*
X63111666Y-109454819D02*
X62778333Y-109835771D01*
X62778333Y-109835771D02*
X62921190Y-109835771D01*
X62921190Y-109835771D02*
X63016428Y-109883390D01*
X63016428Y-109883390D02*
X63064047Y-109931009D01*
X63064047Y-109931009D02*
X63111666Y-110026247D01*
X63111666Y-110026247D02*
X63111666Y-110264342D01*
X63111666Y-110264342D02*
X63064047Y-110359580D01*
X63064047Y-110359580D02*
X63016428Y-110407200D01*
X63016428Y-110407200D02*
X62921190Y-110454819D01*
X62921190Y-110454819D02*
X62635476Y-110454819D01*
X62635476Y-110454819D02*
X62540238Y-110407200D01*
X62540238Y-110407200D02*
X62492619Y-110359580D01*
X150159819Y-58999333D02*
X150874104Y-58999333D01*
X150874104Y-58999333D02*
X151016961Y-59046952D01*
X151016961Y-59046952D02*
X151112200Y-59142190D01*
X151112200Y-59142190D02*
X151159819Y-59285047D01*
X151159819Y-59285047D02*
X151159819Y-59380285D01*
X151159819Y-58523142D02*
X150159819Y-58523142D01*
X150159819Y-58523142D02*
X150159819Y-58142190D01*
X150159819Y-58142190D02*
X150207438Y-58046952D01*
X150207438Y-58046952D02*
X150255057Y-57999333D01*
X150255057Y-57999333D02*
X150350295Y-57951714D01*
X150350295Y-57951714D02*
X150493152Y-57951714D01*
X150493152Y-57951714D02*
X150588390Y-57999333D01*
X150588390Y-57999333D02*
X150636009Y-58046952D01*
X150636009Y-58046952D02*
X150683628Y-58142190D01*
X150683628Y-58142190D02*
X150683628Y-58523142D01*
X150493152Y-57094571D02*
X151159819Y-57094571D01*
X150112200Y-57332666D02*
X150826485Y-57570761D01*
X150826485Y-57570761D02*
X150826485Y-56951714D01*
X61684819Y-84581904D02*
X62494342Y-84581904D01*
X62494342Y-84581904D02*
X62589580Y-84534285D01*
X62589580Y-84534285D02*
X62637200Y-84486666D01*
X62637200Y-84486666D02*
X62684819Y-84391428D01*
X62684819Y-84391428D02*
X62684819Y-84200952D01*
X62684819Y-84200952D02*
X62637200Y-84105714D01*
X62637200Y-84105714D02*
X62589580Y-84058095D01*
X62589580Y-84058095D02*
X62494342Y-84010476D01*
X62494342Y-84010476D02*
X61684819Y-84010476D01*
X61684819Y-83629523D02*
X61684819Y-83010476D01*
X61684819Y-83010476D02*
X62065771Y-83343809D01*
X62065771Y-83343809D02*
X62065771Y-83200952D01*
X62065771Y-83200952D02*
X62113390Y-83105714D01*
X62113390Y-83105714D02*
X62161009Y-83058095D01*
X62161009Y-83058095D02*
X62256247Y-83010476D01*
X62256247Y-83010476D02*
X62494342Y-83010476D01*
X62494342Y-83010476D02*
X62589580Y-83058095D01*
X62589580Y-83058095D02*
X62637200Y-83105714D01*
X62637200Y-83105714D02*
X62684819Y-83200952D01*
X62684819Y-83200952D02*
X62684819Y-83486666D01*
X62684819Y-83486666D02*
X62637200Y-83581904D01*
X62637200Y-83581904D02*
X62589580Y-83629523D01*
X53221666Y-116454819D02*
X53221666Y-117169104D01*
X53221666Y-117169104D02*
X53174047Y-117311961D01*
X53174047Y-117311961D02*
X53078809Y-117407200D01*
X53078809Y-117407200D02*
X52935952Y-117454819D01*
X52935952Y-117454819D02*
X52840714Y-117454819D01*
X54221666Y-117454819D02*
X53650238Y-117454819D01*
X53935952Y-117454819D02*
X53935952Y-116454819D01*
X53935952Y-116454819D02*
X53840714Y-116597676D01*
X53840714Y-116597676D02*
X53745476Y-116692914D01*
X53745476Y-116692914D02*
X53650238Y-116740533D01*
X161554819Y-115033333D02*
X162269104Y-115033333D01*
X162269104Y-115033333D02*
X162411961Y-115080952D01*
X162411961Y-115080952D02*
X162507200Y-115176190D01*
X162507200Y-115176190D02*
X162554819Y-115319047D01*
X162554819Y-115319047D02*
X162554819Y-115414285D01*
X161888152Y-114128571D02*
X162554819Y-114128571D01*
X161507200Y-114366666D02*
X162221485Y-114604761D01*
X162221485Y-114604761D02*
X162221485Y-113985714D01*
X122496009Y-125780714D02*
X122543628Y-125637857D01*
X122543628Y-125637857D02*
X122591247Y-125590238D01*
X122591247Y-125590238D02*
X122686485Y-125542619D01*
X122686485Y-125542619D02*
X122829342Y-125542619D01*
X122829342Y-125542619D02*
X122924580Y-125590238D01*
X122924580Y-125590238D02*
X122972200Y-125637857D01*
X122972200Y-125637857D02*
X123019819Y-125733095D01*
X123019819Y-125733095D02*
X123019819Y-126114047D01*
X123019819Y-126114047D02*
X122019819Y-126114047D01*
X122019819Y-126114047D02*
X122019819Y-125780714D01*
X122019819Y-125780714D02*
X122067438Y-125685476D01*
X122067438Y-125685476D02*
X122115057Y-125637857D01*
X122115057Y-125637857D02*
X122210295Y-125590238D01*
X122210295Y-125590238D02*
X122305533Y-125590238D01*
X122305533Y-125590238D02*
X122400771Y-125637857D01*
X122400771Y-125637857D02*
X122448390Y-125685476D01*
X122448390Y-125685476D02*
X122496009Y-125780714D01*
X122496009Y-125780714D02*
X122496009Y-126114047D01*
X122019819Y-125256904D02*
X122019819Y-124685476D01*
X123019819Y-124971190D02*
X122019819Y-124971190D01*
X122115057Y-124399761D02*
X122067438Y-124352142D01*
X122067438Y-124352142D02*
X122019819Y-124256904D01*
X122019819Y-124256904D02*
X122019819Y-124018809D01*
X122019819Y-124018809D02*
X122067438Y-123923571D01*
X122067438Y-123923571D02*
X122115057Y-123875952D01*
X122115057Y-123875952D02*
X122210295Y-123828333D01*
X122210295Y-123828333D02*
X122305533Y-123828333D01*
X122305533Y-123828333D02*
X122448390Y-123875952D01*
X122448390Y-123875952D02*
X123019819Y-124447380D01*
X123019819Y-124447380D02*
X123019819Y-123828333D01*
D11*
X129484807Y-100399286D02*
X129522902Y-100285000D01*
X129522902Y-100285000D02*
X129560998Y-100246905D01*
X129560998Y-100246905D02*
X129637188Y-100208809D01*
X129637188Y-100208809D02*
X129751474Y-100208809D01*
X129751474Y-100208809D02*
X129827664Y-100246905D01*
X129827664Y-100246905D02*
X129865760Y-100285000D01*
X129865760Y-100285000D02*
X129903855Y-100361190D01*
X129903855Y-100361190D02*
X129903855Y-100665952D01*
X129903855Y-100665952D02*
X129103855Y-100665952D01*
X129103855Y-100665952D02*
X129103855Y-100399286D01*
X129103855Y-100399286D02*
X129141950Y-100323095D01*
X129141950Y-100323095D02*
X129180045Y-100285000D01*
X129180045Y-100285000D02*
X129256236Y-100246905D01*
X129256236Y-100246905D02*
X129332426Y-100246905D01*
X129332426Y-100246905D02*
X129408617Y-100285000D01*
X129408617Y-100285000D02*
X129446712Y-100323095D01*
X129446712Y-100323095D02*
X129484807Y-100399286D01*
X129484807Y-100399286D02*
X129484807Y-100665952D01*
X129903855Y-99523095D02*
X129484807Y-99523095D01*
X129484807Y-99523095D02*
X129408617Y-99561190D01*
X129408617Y-99561190D02*
X129370521Y-99637381D01*
X129370521Y-99637381D02*
X129370521Y-99789762D01*
X129370521Y-99789762D02*
X129408617Y-99865952D01*
X129865760Y-99523095D02*
X129903855Y-99599286D01*
X129903855Y-99599286D02*
X129903855Y-99789762D01*
X129903855Y-99789762D02*
X129865760Y-99865952D01*
X129865760Y-99865952D02*
X129789569Y-99904048D01*
X129789569Y-99904048D02*
X129713379Y-99904048D01*
X129713379Y-99904048D02*
X129637188Y-99865952D01*
X129637188Y-99865952D02*
X129599093Y-99789762D01*
X129599093Y-99789762D02*
X129599093Y-99599286D01*
X129599093Y-99599286D02*
X129560998Y-99523095D01*
X129370521Y-99256428D02*
X129370521Y-98951666D01*
X129103855Y-99142142D02*
X129789569Y-99142142D01*
X129789569Y-99142142D02*
X129865760Y-99104047D01*
X129865760Y-99104047D02*
X129903855Y-99027857D01*
X129903855Y-99027857D02*
X129903855Y-98951666D01*
X129370521Y-98799285D02*
X129370521Y-98494523D01*
X129103855Y-98684999D02*
X129789569Y-98684999D01*
X129789569Y-98684999D02*
X129865760Y-98646904D01*
X129865760Y-98646904D02*
X129903855Y-98570714D01*
X129903855Y-98570714D02*
X129903855Y-98494523D01*
X129865760Y-97923094D02*
X129903855Y-97999285D01*
X129903855Y-97999285D02*
X129903855Y-98151666D01*
X129903855Y-98151666D02*
X129865760Y-98227856D01*
X129865760Y-98227856D02*
X129789569Y-98265952D01*
X129789569Y-98265952D02*
X129484807Y-98265952D01*
X129484807Y-98265952D02*
X129408617Y-98227856D01*
X129408617Y-98227856D02*
X129370521Y-98151666D01*
X129370521Y-98151666D02*
X129370521Y-97999285D01*
X129370521Y-97999285D02*
X129408617Y-97923094D01*
X129408617Y-97923094D02*
X129484807Y-97884999D01*
X129484807Y-97884999D02*
X129560998Y-97884999D01*
X129560998Y-97884999D02*
X129637188Y-98265952D01*
X129903855Y-97542142D02*
X129370521Y-97542142D01*
X129522902Y-97542142D02*
X129446712Y-97504047D01*
X129446712Y-97504047D02*
X129408617Y-97465952D01*
X129408617Y-97465952D02*
X129370521Y-97389761D01*
X129370521Y-97389761D02*
X129370521Y-97313571D01*
X129370521Y-97123095D02*
X129903855Y-96932619D01*
X129370521Y-96742142D02*
X129903855Y-96932619D01*
X129903855Y-96932619D02*
X130094331Y-97008809D01*
X130094331Y-97008809D02*
X130132426Y-97046904D01*
X130132426Y-97046904D02*
X130170521Y-97123095D01*
X129980045Y-96627857D02*
X129980045Y-96018333D01*
X129103855Y-95942142D02*
X129103855Y-95484999D01*
X129903855Y-95713571D02*
X129103855Y-95713571D01*
X129370521Y-95294523D02*
X129903855Y-95142142D01*
X129903855Y-95142142D02*
X129522902Y-94989761D01*
X129522902Y-94989761D02*
X129903855Y-94837380D01*
X129903855Y-94837380D02*
X129370521Y-94684999D01*
X129903855Y-94265952D02*
X129865760Y-94342142D01*
X129865760Y-94342142D02*
X129827664Y-94380237D01*
X129827664Y-94380237D02*
X129751474Y-94418333D01*
X129751474Y-94418333D02*
X129522902Y-94418333D01*
X129522902Y-94418333D02*
X129446712Y-94380237D01*
X129446712Y-94380237D02*
X129408617Y-94342142D01*
X129408617Y-94342142D02*
X129370521Y-94265952D01*
X129370521Y-94265952D02*
X129370521Y-94151666D01*
X129370521Y-94151666D02*
X129408617Y-94075475D01*
X129408617Y-94075475D02*
X129446712Y-94037380D01*
X129446712Y-94037380D02*
X129522902Y-93999285D01*
X129522902Y-93999285D02*
X129751474Y-93999285D01*
X129751474Y-93999285D02*
X129827664Y-94037380D01*
X129827664Y-94037380D02*
X129865760Y-94075475D01*
X129865760Y-94075475D02*
X129903855Y-94151666D01*
X129903855Y-94151666D02*
X129903855Y-94265952D01*
X129980045Y-93846904D02*
X129980045Y-93237380D01*
X129827664Y-92589760D02*
X129865760Y-92627856D01*
X129865760Y-92627856D02*
X129903855Y-92742141D01*
X129903855Y-92742141D02*
X129903855Y-92818332D01*
X129903855Y-92818332D02*
X129865760Y-92932618D01*
X129865760Y-92932618D02*
X129789569Y-93008808D01*
X129789569Y-93008808D02*
X129713379Y-93046903D01*
X129713379Y-93046903D02*
X129560998Y-93084999D01*
X129560998Y-93084999D02*
X129446712Y-93084999D01*
X129446712Y-93084999D02*
X129294331Y-93046903D01*
X129294331Y-93046903D02*
X129218140Y-93008808D01*
X129218140Y-93008808D02*
X129141950Y-92932618D01*
X129141950Y-92932618D02*
X129103855Y-92818332D01*
X129103855Y-92818332D02*
X129103855Y-92742141D01*
X129103855Y-92742141D02*
X129141950Y-92627856D01*
X129141950Y-92627856D02*
X129180045Y-92589760D01*
X129865760Y-91942141D02*
X129903855Y-92018332D01*
X129903855Y-92018332D02*
X129903855Y-92170713D01*
X129903855Y-92170713D02*
X129865760Y-92246903D01*
X129865760Y-92246903D02*
X129789569Y-92284999D01*
X129789569Y-92284999D02*
X129484807Y-92284999D01*
X129484807Y-92284999D02*
X129408617Y-92246903D01*
X129408617Y-92246903D02*
X129370521Y-92170713D01*
X129370521Y-92170713D02*
X129370521Y-92018332D01*
X129370521Y-92018332D02*
X129408617Y-91942141D01*
X129408617Y-91942141D02*
X129484807Y-91904046D01*
X129484807Y-91904046D02*
X129560998Y-91904046D01*
X129560998Y-91904046D02*
X129637188Y-92284999D01*
X129903855Y-91446904D02*
X129865760Y-91523094D01*
X129865760Y-91523094D02*
X129789569Y-91561189D01*
X129789569Y-91561189D02*
X129103855Y-91561189D01*
X129903855Y-91027856D02*
X129865760Y-91104046D01*
X129865760Y-91104046D02*
X129789569Y-91142141D01*
X129789569Y-91142141D02*
X129103855Y-91142141D01*
D10*
X74236009Y-125780714D02*
X74283628Y-125637857D01*
X74283628Y-125637857D02*
X74331247Y-125590238D01*
X74331247Y-125590238D02*
X74426485Y-125542619D01*
X74426485Y-125542619D02*
X74569342Y-125542619D01*
X74569342Y-125542619D02*
X74664580Y-125590238D01*
X74664580Y-125590238D02*
X74712200Y-125637857D01*
X74712200Y-125637857D02*
X74759819Y-125733095D01*
X74759819Y-125733095D02*
X74759819Y-126114047D01*
X74759819Y-126114047D02*
X73759819Y-126114047D01*
X73759819Y-126114047D02*
X73759819Y-125780714D01*
X73759819Y-125780714D02*
X73807438Y-125685476D01*
X73807438Y-125685476D02*
X73855057Y-125637857D01*
X73855057Y-125637857D02*
X73950295Y-125590238D01*
X73950295Y-125590238D02*
X74045533Y-125590238D01*
X74045533Y-125590238D02*
X74140771Y-125637857D01*
X74140771Y-125637857D02*
X74188390Y-125685476D01*
X74188390Y-125685476D02*
X74236009Y-125780714D01*
X74236009Y-125780714D02*
X74236009Y-126114047D01*
X73759819Y-125256904D02*
X73759819Y-124685476D01*
X74759819Y-124971190D02*
X73759819Y-124971190D01*
X74759819Y-123828333D02*
X74759819Y-124399761D01*
X74759819Y-124114047D02*
X73759819Y-124114047D01*
X73759819Y-124114047D02*
X73902676Y-124209285D01*
X73902676Y-124209285D02*
X73997914Y-124304523D01*
X73997914Y-124304523D02*
X74045533Y-124399761D01*
D11*
X81224807Y-100399286D02*
X81262902Y-100285000D01*
X81262902Y-100285000D02*
X81300998Y-100246905D01*
X81300998Y-100246905D02*
X81377188Y-100208809D01*
X81377188Y-100208809D02*
X81491474Y-100208809D01*
X81491474Y-100208809D02*
X81567664Y-100246905D01*
X81567664Y-100246905D02*
X81605760Y-100285000D01*
X81605760Y-100285000D02*
X81643855Y-100361190D01*
X81643855Y-100361190D02*
X81643855Y-100665952D01*
X81643855Y-100665952D02*
X80843855Y-100665952D01*
X80843855Y-100665952D02*
X80843855Y-100399286D01*
X80843855Y-100399286D02*
X80881950Y-100323095D01*
X80881950Y-100323095D02*
X80920045Y-100285000D01*
X80920045Y-100285000D02*
X80996236Y-100246905D01*
X80996236Y-100246905D02*
X81072426Y-100246905D01*
X81072426Y-100246905D02*
X81148617Y-100285000D01*
X81148617Y-100285000D02*
X81186712Y-100323095D01*
X81186712Y-100323095D02*
X81224807Y-100399286D01*
X81224807Y-100399286D02*
X81224807Y-100665952D01*
X81643855Y-99523095D02*
X81224807Y-99523095D01*
X81224807Y-99523095D02*
X81148617Y-99561190D01*
X81148617Y-99561190D02*
X81110521Y-99637381D01*
X81110521Y-99637381D02*
X81110521Y-99789762D01*
X81110521Y-99789762D02*
X81148617Y-99865952D01*
X81605760Y-99523095D02*
X81643855Y-99599286D01*
X81643855Y-99599286D02*
X81643855Y-99789762D01*
X81643855Y-99789762D02*
X81605760Y-99865952D01*
X81605760Y-99865952D02*
X81529569Y-99904048D01*
X81529569Y-99904048D02*
X81453379Y-99904048D01*
X81453379Y-99904048D02*
X81377188Y-99865952D01*
X81377188Y-99865952D02*
X81339093Y-99789762D01*
X81339093Y-99789762D02*
X81339093Y-99599286D01*
X81339093Y-99599286D02*
X81300998Y-99523095D01*
X81110521Y-99256428D02*
X81110521Y-98951666D01*
X80843855Y-99142142D02*
X81529569Y-99142142D01*
X81529569Y-99142142D02*
X81605760Y-99104047D01*
X81605760Y-99104047D02*
X81643855Y-99027857D01*
X81643855Y-99027857D02*
X81643855Y-98951666D01*
X81110521Y-98799285D02*
X81110521Y-98494523D01*
X80843855Y-98684999D02*
X81529569Y-98684999D01*
X81529569Y-98684999D02*
X81605760Y-98646904D01*
X81605760Y-98646904D02*
X81643855Y-98570714D01*
X81643855Y-98570714D02*
X81643855Y-98494523D01*
X81605760Y-97923094D02*
X81643855Y-97999285D01*
X81643855Y-97999285D02*
X81643855Y-98151666D01*
X81643855Y-98151666D02*
X81605760Y-98227856D01*
X81605760Y-98227856D02*
X81529569Y-98265952D01*
X81529569Y-98265952D02*
X81224807Y-98265952D01*
X81224807Y-98265952D02*
X81148617Y-98227856D01*
X81148617Y-98227856D02*
X81110521Y-98151666D01*
X81110521Y-98151666D02*
X81110521Y-97999285D01*
X81110521Y-97999285D02*
X81148617Y-97923094D01*
X81148617Y-97923094D02*
X81224807Y-97884999D01*
X81224807Y-97884999D02*
X81300998Y-97884999D01*
X81300998Y-97884999D02*
X81377188Y-98265952D01*
X81643855Y-97542142D02*
X81110521Y-97542142D01*
X81262902Y-97542142D02*
X81186712Y-97504047D01*
X81186712Y-97504047D02*
X81148617Y-97465952D01*
X81148617Y-97465952D02*
X81110521Y-97389761D01*
X81110521Y-97389761D02*
X81110521Y-97313571D01*
X81110521Y-97123095D02*
X81643855Y-96932619D01*
X81110521Y-96742142D02*
X81643855Y-96932619D01*
X81643855Y-96932619D02*
X81834331Y-97008809D01*
X81834331Y-97008809D02*
X81872426Y-97046904D01*
X81872426Y-97046904D02*
X81910521Y-97123095D01*
X81720045Y-96627857D02*
X81720045Y-96018333D01*
X80843855Y-95942142D02*
X80843855Y-95484999D01*
X81643855Y-95713571D02*
X80843855Y-95713571D01*
X81110521Y-95294523D02*
X81643855Y-95142142D01*
X81643855Y-95142142D02*
X81262902Y-94989761D01*
X81262902Y-94989761D02*
X81643855Y-94837380D01*
X81643855Y-94837380D02*
X81110521Y-94684999D01*
X81643855Y-94265952D02*
X81605760Y-94342142D01*
X81605760Y-94342142D02*
X81567664Y-94380237D01*
X81567664Y-94380237D02*
X81491474Y-94418333D01*
X81491474Y-94418333D02*
X81262902Y-94418333D01*
X81262902Y-94418333D02*
X81186712Y-94380237D01*
X81186712Y-94380237D02*
X81148617Y-94342142D01*
X81148617Y-94342142D02*
X81110521Y-94265952D01*
X81110521Y-94265952D02*
X81110521Y-94151666D01*
X81110521Y-94151666D02*
X81148617Y-94075475D01*
X81148617Y-94075475D02*
X81186712Y-94037380D01*
X81186712Y-94037380D02*
X81262902Y-93999285D01*
X81262902Y-93999285D02*
X81491474Y-93999285D01*
X81491474Y-93999285D02*
X81567664Y-94037380D01*
X81567664Y-94037380D02*
X81605760Y-94075475D01*
X81605760Y-94075475D02*
X81643855Y-94151666D01*
X81643855Y-94151666D02*
X81643855Y-94265952D01*
X81720045Y-93846904D02*
X81720045Y-93237380D01*
X81567664Y-92589760D02*
X81605760Y-92627856D01*
X81605760Y-92627856D02*
X81643855Y-92742141D01*
X81643855Y-92742141D02*
X81643855Y-92818332D01*
X81643855Y-92818332D02*
X81605760Y-92932618D01*
X81605760Y-92932618D02*
X81529569Y-93008808D01*
X81529569Y-93008808D02*
X81453379Y-93046903D01*
X81453379Y-93046903D02*
X81300998Y-93084999D01*
X81300998Y-93084999D02*
X81186712Y-93084999D01*
X81186712Y-93084999D02*
X81034331Y-93046903D01*
X81034331Y-93046903D02*
X80958140Y-93008808D01*
X80958140Y-93008808D02*
X80881950Y-92932618D01*
X80881950Y-92932618D02*
X80843855Y-92818332D01*
X80843855Y-92818332D02*
X80843855Y-92742141D01*
X80843855Y-92742141D02*
X80881950Y-92627856D01*
X80881950Y-92627856D02*
X80920045Y-92589760D01*
X81605760Y-91942141D02*
X81643855Y-92018332D01*
X81643855Y-92018332D02*
X81643855Y-92170713D01*
X81643855Y-92170713D02*
X81605760Y-92246903D01*
X81605760Y-92246903D02*
X81529569Y-92284999D01*
X81529569Y-92284999D02*
X81224807Y-92284999D01*
X81224807Y-92284999D02*
X81148617Y-92246903D01*
X81148617Y-92246903D02*
X81110521Y-92170713D01*
X81110521Y-92170713D02*
X81110521Y-92018332D01*
X81110521Y-92018332D02*
X81148617Y-91942141D01*
X81148617Y-91942141D02*
X81224807Y-91904046D01*
X81224807Y-91904046D02*
X81300998Y-91904046D01*
X81300998Y-91904046D02*
X81377188Y-92284999D01*
X81643855Y-91446904D02*
X81605760Y-91523094D01*
X81605760Y-91523094D02*
X81529569Y-91561189D01*
X81529569Y-91561189D02*
X80843855Y-91561189D01*
X81643855Y-91027856D02*
X81605760Y-91104046D01*
X81605760Y-91104046D02*
X81529569Y-91142141D01*
X81529569Y-91142141D02*
X80843855Y-91142141D01*
D10*
X173444819Y-84581904D02*
X174254342Y-84581904D01*
X174254342Y-84581904D02*
X174349580Y-84534285D01*
X174349580Y-84534285D02*
X174397200Y-84486666D01*
X174397200Y-84486666D02*
X174444819Y-84391428D01*
X174444819Y-84391428D02*
X174444819Y-84200952D01*
X174444819Y-84200952D02*
X174397200Y-84105714D01*
X174397200Y-84105714D02*
X174349580Y-84058095D01*
X174349580Y-84058095D02*
X174254342Y-84010476D01*
X174254342Y-84010476D02*
X173444819Y-84010476D01*
X173540057Y-83581904D02*
X173492438Y-83534285D01*
X173492438Y-83534285D02*
X173444819Y-83439047D01*
X173444819Y-83439047D02*
X173444819Y-83200952D01*
X173444819Y-83200952D02*
X173492438Y-83105714D01*
X173492438Y-83105714D02*
X173540057Y-83058095D01*
X173540057Y-83058095D02*
X173635295Y-83010476D01*
X173635295Y-83010476D02*
X173730533Y-83010476D01*
X173730533Y-83010476D02*
X173873390Y-83058095D01*
X173873390Y-83058095D02*
X174444819Y-83629523D01*
X174444819Y-83629523D02*
X174444819Y-83010476D01*
X150856666Y-118454819D02*
X150856666Y-119169104D01*
X150856666Y-119169104D02*
X150809047Y-119311961D01*
X150809047Y-119311961D02*
X150713809Y-119407200D01*
X150713809Y-119407200D02*
X150570952Y-119454819D01*
X150570952Y-119454819D02*
X150475714Y-119454819D01*
X151285238Y-118550057D02*
X151332857Y-118502438D01*
X151332857Y-118502438D02*
X151428095Y-118454819D01*
X151428095Y-118454819D02*
X151666190Y-118454819D01*
X151666190Y-118454819D02*
X151761428Y-118502438D01*
X151761428Y-118502438D02*
X151809047Y-118550057D01*
X151809047Y-118550057D02*
X151856666Y-118645295D01*
X151856666Y-118645295D02*
X151856666Y-118740533D01*
X151856666Y-118740533D02*
X151809047Y-118883390D01*
X151809047Y-118883390D02*
X151237619Y-119454819D01*
X151237619Y-119454819D02*
X151856666Y-119454819D01*
X48550819Y-113139523D02*
X49265104Y-113139523D01*
X49265104Y-113139523D02*
X49407961Y-113187142D01*
X49407961Y-113187142D02*
X49503200Y-113282380D01*
X49503200Y-113282380D02*
X49550819Y-113425237D01*
X49550819Y-113425237D02*
X49550819Y-113520475D01*
X49550819Y-112139523D02*
X49550819Y-112710951D01*
X49550819Y-112425237D02*
X48550819Y-112425237D01*
X48550819Y-112425237D02*
X48693676Y-112520475D01*
X48693676Y-112520475D02*
X48788914Y-112615713D01*
X48788914Y-112615713D02*
X48836533Y-112710951D01*
X48550819Y-111234761D02*
X48550819Y-111710951D01*
X48550819Y-111710951D02*
X49027009Y-111758570D01*
X49027009Y-111758570D02*
X48979390Y-111710951D01*
X48979390Y-111710951D02*
X48931771Y-111615713D01*
X48931771Y-111615713D02*
X48931771Y-111377618D01*
X48931771Y-111377618D02*
X48979390Y-111282380D01*
X48979390Y-111282380D02*
X49027009Y-111234761D01*
X49027009Y-111234761D02*
X49122247Y-111187142D01*
X49122247Y-111187142D02*
X49360342Y-111187142D01*
X49360342Y-111187142D02*
X49455580Y-111234761D01*
X49455580Y-111234761D02*
X49503200Y-111282380D01*
X49503200Y-111282380D02*
X49550819Y-111377618D01*
X49550819Y-111377618D02*
X49550819Y-111615713D01*
X49550819Y-111615713D02*
X49503200Y-111710951D01*
X49503200Y-111710951D02*
X49455580Y-111758570D01*
X60204819Y-58745333D02*
X60919104Y-58745333D01*
X60919104Y-58745333D02*
X61061961Y-58792952D01*
X61061961Y-58792952D02*
X61157200Y-58888190D01*
X61157200Y-58888190D02*
X61204819Y-59031047D01*
X61204819Y-59031047D02*
X61204819Y-59126285D01*
X61204819Y-58269142D02*
X60204819Y-58269142D01*
X60204819Y-58269142D02*
X60204819Y-57888190D01*
X60204819Y-57888190D02*
X60252438Y-57792952D01*
X60252438Y-57792952D02*
X60300057Y-57745333D01*
X60300057Y-57745333D02*
X60395295Y-57697714D01*
X60395295Y-57697714D02*
X60538152Y-57697714D01*
X60538152Y-57697714D02*
X60633390Y-57745333D01*
X60633390Y-57745333D02*
X60681009Y-57792952D01*
X60681009Y-57792952D02*
X60728628Y-57888190D01*
X60728628Y-57888190D02*
X60728628Y-58269142D01*
X60204819Y-57364380D02*
X60204819Y-56745333D01*
X60204819Y-56745333D02*
X60585771Y-57078666D01*
X60585771Y-57078666D02*
X60585771Y-56935809D01*
X60585771Y-56935809D02*
X60633390Y-56840571D01*
X60633390Y-56840571D02*
X60681009Y-56792952D01*
X60681009Y-56792952D02*
X60776247Y-56745333D01*
X60776247Y-56745333D02*
X61014342Y-56745333D01*
X61014342Y-56745333D02*
X61109580Y-56792952D01*
X61109580Y-56792952D02*
X61157200Y-56840571D01*
X61157200Y-56840571D02*
X61204819Y-56935809D01*
X61204819Y-56935809D02*
X61204819Y-57221523D01*
X61204819Y-57221523D02*
X61157200Y-57316761D01*
X61157200Y-57316761D02*
X61109580Y-57364380D01*
X154584819Y-108533333D02*
X155299104Y-108533333D01*
X155299104Y-108533333D02*
X155441961Y-108580952D01*
X155441961Y-108580952D02*
X155537200Y-108676190D01*
X155537200Y-108676190D02*
X155584819Y-108819047D01*
X155584819Y-108819047D02*
X155584819Y-108914285D01*
X155584819Y-108057142D02*
X154584819Y-108057142D01*
X154584819Y-108057142D02*
X154584819Y-107676190D01*
X154584819Y-107676190D02*
X154632438Y-107580952D01*
X154632438Y-107580952D02*
X154680057Y-107533333D01*
X154680057Y-107533333D02*
X154775295Y-107485714D01*
X154775295Y-107485714D02*
X154918152Y-107485714D01*
X154918152Y-107485714D02*
X155013390Y-107533333D01*
X155013390Y-107533333D02*
X155061009Y-107580952D01*
X155061009Y-107580952D02*
X155108628Y-107676190D01*
X155108628Y-107676190D02*
X155108628Y-108057142D01*
X154680057Y-107104761D02*
X154632438Y-107057142D01*
X154632438Y-107057142D02*
X154584819Y-106961904D01*
X154584819Y-106961904D02*
X154584819Y-106723809D01*
X154584819Y-106723809D02*
X154632438Y-106628571D01*
X154632438Y-106628571D02*
X154680057Y-106580952D01*
X154680057Y-106580952D02*
X154775295Y-106533333D01*
X154775295Y-106533333D02*
X154870533Y-106533333D01*
X154870533Y-106533333D02*
X155013390Y-106580952D01*
X155013390Y-106580952D02*
X155584819Y-107152380D01*
X155584819Y-107152380D02*
X155584819Y-106533333D01*
X51966666Y-130554819D02*
X51966666Y-131269104D01*
X51966666Y-131269104D02*
X51919047Y-131411961D01*
X51919047Y-131411961D02*
X51823809Y-131507200D01*
X51823809Y-131507200D02*
X51680952Y-131554819D01*
X51680952Y-131554819D02*
X51585714Y-131554819D01*
X52871428Y-130554819D02*
X52680952Y-130554819D01*
X52680952Y-130554819D02*
X52585714Y-130602438D01*
X52585714Y-130602438D02*
X52538095Y-130650057D01*
X52538095Y-130650057D02*
X52442857Y-130792914D01*
X52442857Y-130792914D02*
X52395238Y-130983390D01*
X52395238Y-130983390D02*
X52395238Y-131364342D01*
X52395238Y-131364342D02*
X52442857Y-131459580D01*
X52442857Y-131459580D02*
X52490476Y-131507200D01*
X52490476Y-131507200D02*
X52585714Y-131554819D01*
X52585714Y-131554819D02*
X52776190Y-131554819D01*
X52776190Y-131554819D02*
X52871428Y-131507200D01*
X52871428Y-131507200D02*
X52919047Y-131459580D01*
X52919047Y-131459580D02*
X52966666Y-131364342D01*
X52966666Y-131364342D02*
X52966666Y-131126247D01*
X52966666Y-131126247D02*
X52919047Y-131031009D01*
X52919047Y-131031009D02*
X52871428Y-130983390D01*
X52871428Y-130983390D02*
X52776190Y-130935771D01*
X52776190Y-130935771D02*
X52585714Y-130935771D01*
X52585714Y-130935771D02*
X52490476Y-130983390D01*
X52490476Y-130983390D02*
X52442857Y-131031009D01*
X52442857Y-131031009D02*
X52395238Y-131126247D01*
X157940476Y-112454819D02*
X157940476Y-113169104D01*
X157940476Y-113169104D02*
X157892857Y-113311961D01*
X157892857Y-113311961D02*
X157797619Y-113407200D01*
X157797619Y-113407200D02*
X157654762Y-113454819D01*
X157654762Y-113454819D02*
X157559524Y-113454819D01*
X158940476Y-113454819D02*
X158369048Y-113454819D01*
X158654762Y-113454819D02*
X158654762Y-112454819D01*
X158654762Y-112454819D02*
X158559524Y-112597676D01*
X158559524Y-112597676D02*
X158464286Y-112692914D01*
X158464286Y-112692914D02*
X158369048Y-112740533D01*
X159892857Y-113454819D02*
X159321429Y-113454819D01*
X159607143Y-113454819D02*
X159607143Y-112454819D01*
X159607143Y-112454819D02*
X159511905Y-112597676D01*
X159511905Y-112597676D02*
X159416667Y-112692914D01*
X159416667Y-112692914D02*
X159321429Y-112740533D01*
X159464476Y-53048819D02*
X159464476Y-53763104D01*
X159464476Y-53763104D02*
X159416857Y-53905961D01*
X159416857Y-53905961D02*
X159321619Y-54001200D01*
X159321619Y-54001200D02*
X159178762Y-54048819D01*
X159178762Y-54048819D02*
X159083524Y-54048819D01*
X160464476Y-54048819D02*
X159893048Y-54048819D01*
X160178762Y-54048819D02*
X160178762Y-53048819D01*
X160178762Y-53048819D02*
X160083524Y-53191676D01*
X160083524Y-53191676D02*
X159988286Y-53286914D01*
X159988286Y-53286914D02*
X159893048Y-53334533D01*
X160797810Y-53048819D02*
X161416857Y-53048819D01*
X161416857Y-53048819D02*
X161083524Y-53429771D01*
X161083524Y-53429771D02*
X161226381Y-53429771D01*
X161226381Y-53429771D02*
X161321619Y-53477390D01*
X161321619Y-53477390D02*
X161369238Y-53525009D01*
X161369238Y-53525009D02*
X161416857Y-53620247D01*
X161416857Y-53620247D02*
X161416857Y-53858342D01*
X161416857Y-53858342D02*
X161369238Y-53953580D01*
X161369238Y-53953580D02*
X161321619Y-54001200D01*
X161321619Y-54001200D02*
X161226381Y-54048819D01*
X161226381Y-54048819D02*
X160940667Y-54048819D01*
X160940667Y-54048819D02*
X160845429Y-54001200D01*
X160845429Y-54001200D02*
X160797810Y-53953580D01*
X151966666Y-130554819D02*
X151966666Y-131269104D01*
X151966666Y-131269104D02*
X151919047Y-131411961D01*
X151919047Y-131411961D02*
X151823809Y-131507200D01*
X151823809Y-131507200D02*
X151680952Y-131554819D01*
X151680952Y-131554819D02*
X151585714Y-131554819D01*
X152585714Y-130983390D02*
X152490476Y-130935771D01*
X152490476Y-130935771D02*
X152442857Y-130888152D01*
X152442857Y-130888152D02*
X152395238Y-130792914D01*
X152395238Y-130792914D02*
X152395238Y-130745295D01*
X152395238Y-130745295D02*
X152442857Y-130650057D01*
X152442857Y-130650057D02*
X152490476Y-130602438D01*
X152490476Y-130602438D02*
X152585714Y-130554819D01*
X152585714Y-130554819D02*
X152776190Y-130554819D01*
X152776190Y-130554819D02*
X152871428Y-130602438D01*
X152871428Y-130602438D02*
X152919047Y-130650057D01*
X152919047Y-130650057D02*
X152966666Y-130745295D01*
X152966666Y-130745295D02*
X152966666Y-130792914D01*
X152966666Y-130792914D02*
X152919047Y-130888152D01*
X152919047Y-130888152D02*
X152871428Y-130935771D01*
X152871428Y-130935771D02*
X152776190Y-130983390D01*
X152776190Y-130983390D02*
X152585714Y-130983390D01*
X152585714Y-130983390D02*
X152490476Y-131031009D01*
X152490476Y-131031009D02*
X152442857Y-131078628D01*
X152442857Y-131078628D02*
X152395238Y-131173866D01*
X152395238Y-131173866D02*
X152395238Y-131364342D01*
X152395238Y-131364342D02*
X152442857Y-131459580D01*
X152442857Y-131459580D02*
X152490476Y-131507200D01*
X152490476Y-131507200D02*
X152585714Y-131554819D01*
X152585714Y-131554819D02*
X152776190Y-131554819D01*
X152776190Y-131554819D02*
X152871428Y-131507200D01*
X152871428Y-131507200D02*
X152919047Y-131459580D01*
X152919047Y-131459580D02*
X152966666Y-131364342D01*
X152966666Y-131364342D02*
X152966666Y-131173866D01*
X152966666Y-131173866D02*
X152919047Y-131078628D01*
X152919047Y-131078628D02*
X152871428Y-131031009D01*
X152871428Y-131031009D02*
X152776190Y-130983390D01*
X64436666Y-52540819D02*
X64436666Y-53255104D01*
X64436666Y-53255104D02*
X64389047Y-53397961D01*
X64389047Y-53397961D02*
X64293809Y-53493200D01*
X64293809Y-53493200D02*
X64150952Y-53540819D01*
X64150952Y-53540819D02*
X64055714Y-53540819D01*
X64960476Y-53540819D02*
X65150952Y-53540819D01*
X65150952Y-53540819D02*
X65246190Y-53493200D01*
X65246190Y-53493200D02*
X65293809Y-53445580D01*
X65293809Y-53445580D02*
X65389047Y-53302723D01*
X65389047Y-53302723D02*
X65436666Y-53112247D01*
X65436666Y-53112247D02*
X65436666Y-52731295D01*
X65436666Y-52731295D02*
X65389047Y-52636057D01*
X65389047Y-52636057D02*
X65341428Y-52588438D01*
X65341428Y-52588438D02*
X65246190Y-52540819D01*
X65246190Y-52540819D02*
X65055714Y-52540819D01*
X65055714Y-52540819D02*
X64960476Y-52588438D01*
X64960476Y-52588438D02*
X64912857Y-52636057D01*
X64912857Y-52636057D02*
X64865238Y-52731295D01*
X64865238Y-52731295D02*
X64865238Y-52969390D01*
X64865238Y-52969390D02*
X64912857Y-53064628D01*
X64912857Y-53064628D02*
X64960476Y-53112247D01*
X64960476Y-53112247D02*
X65055714Y-53159866D01*
X65055714Y-53159866D02*
X65246190Y-53159866D01*
X65246190Y-53159866D02*
X65341428Y-53112247D01*
X65341428Y-53112247D02*
X65389047Y-53064628D01*
X65389047Y-53064628D02*
X65436666Y-52969390D01*
X51260476Y-53048819D02*
X51260476Y-53763104D01*
X51260476Y-53763104D02*
X51212857Y-53905961D01*
X51212857Y-53905961D02*
X51117619Y-54001200D01*
X51117619Y-54001200D02*
X50974762Y-54048819D01*
X50974762Y-54048819D02*
X50879524Y-54048819D01*
X52260476Y-54048819D02*
X51689048Y-54048819D01*
X51974762Y-54048819D02*
X51974762Y-53048819D01*
X51974762Y-53048819D02*
X51879524Y-53191676D01*
X51879524Y-53191676D02*
X51784286Y-53286914D01*
X51784286Y-53286914D02*
X51689048Y-53334533D01*
X52879524Y-53048819D02*
X52974762Y-53048819D01*
X52974762Y-53048819D02*
X53070000Y-53096438D01*
X53070000Y-53096438D02*
X53117619Y-53144057D01*
X53117619Y-53144057D02*
X53165238Y-53239295D01*
X53165238Y-53239295D02*
X53212857Y-53429771D01*
X53212857Y-53429771D02*
X53212857Y-53667866D01*
X53212857Y-53667866D02*
X53165238Y-53858342D01*
X53165238Y-53858342D02*
X53117619Y-53953580D01*
X53117619Y-53953580D02*
X53070000Y-54001200D01*
X53070000Y-54001200D02*
X52974762Y-54048819D01*
X52974762Y-54048819D02*
X52879524Y-54048819D01*
X52879524Y-54048819D02*
X52784286Y-54001200D01*
X52784286Y-54001200D02*
X52736667Y-53953580D01*
X52736667Y-53953580D02*
X52689048Y-53858342D01*
X52689048Y-53858342D02*
X52641429Y-53667866D01*
X52641429Y-53667866D02*
X52641429Y-53429771D01*
X52641429Y-53429771D02*
X52689048Y-53239295D01*
X52689048Y-53239295D02*
X52736667Y-53144057D01*
X52736667Y-53144057D02*
X52784286Y-53096438D01*
X52784286Y-53096438D02*
X52879524Y-53048819D01*
X146256476Y-53048819D02*
X146256476Y-53763104D01*
X146256476Y-53763104D02*
X146208857Y-53905961D01*
X146208857Y-53905961D02*
X146113619Y-54001200D01*
X146113619Y-54001200D02*
X145970762Y-54048819D01*
X145970762Y-54048819D02*
X145875524Y-54048819D01*
X147256476Y-54048819D02*
X146685048Y-54048819D01*
X146970762Y-54048819D02*
X146970762Y-53048819D01*
X146970762Y-53048819D02*
X146875524Y-53191676D01*
X146875524Y-53191676D02*
X146780286Y-53286914D01*
X146780286Y-53286914D02*
X146685048Y-53334533D01*
X147637429Y-53144057D02*
X147685048Y-53096438D01*
X147685048Y-53096438D02*
X147780286Y-53048819D01*
X147780286Y-53048819D02*
X148018381Y-53048819D01*
X148018381Y-53048819D02*
X148113619Y-53096438D01*
X148113619Y-53096438D02*
X148161238Y-53144057D01*
X148161238Y-53144057D02*
X148208857Y-53239295D01*
X148208857Y-53239295D02*
X148208857Y-53334533D01*
X148208857Y-53334533D02*
X148161238Y-53477390D01*
X148161238Y-53477390D02*
X147589810Y-54048819D01*
X147589810Y-54048819D02*
X148208857Y-54048819D01*
X48550819Y-123585333D02*
X49265104Y-123585333D01*
X49265104Y-123585333D02*
X49407961Y-123632952D01*
X49407961Y-123632952D02*
X49503200Y-123728190D01*
X49503200Y-123728190D02*
X49550819Y-123871047D01*
X49550819Y-123871047D02*
X49550819Y-123966285D01*
X48550819Y-122632952D02*
X48550819Y-123109142D01*
X48550819Y-123109142D02*
X49027009Y-123156761D01*
X49027009Y-123156761D02*
X48979390Y-123109142D01*
X48979390Y-123109142D02*
X48931771Y-123013904D01*
X48931771Y-123013904D02*
X48931771Y-122775809D01*
X48931771Y-122775809D02*
X48979390Y-122680571D01*
X48979390Y-122680571D02*
X49027009Y-122632952D01*
X49027009Y-122632952D02*
X49122247Y-122585333D01*
X49122247Y-122585333D02*
X49360342Y-122585333D01*
X49360342Y-122585333D02*
X49455580Y-122632952D01*
X49455580Y-122632952D02*
X49503200Y-122680571D01*
X49503200Y-122680571D02*
X49550819Y-122775809D01*
X49550819Y-122775809D02*
X49550819Y-123013904D01*
X49550819Y-123013904D02*
X49503200Y-123109142D01*
X49503200Y-123109142D02*
X49455580Y-123156761D01*
X45384819Y-108148333D02*
X46099104Y-108148333D01*
X46099104Y-108148333D02*
X46241961Y-108195952D01*
X46241961Y-108195952D02*
X46337200Y-108291190D01*
X46337200Y-108291190D02*
X46384819Y-108434047D01*
X46384819Y-108434047D02*
X46384819Y-108529285D01*
X46384819Y-107672142D02*
X45384819Y-107672142D01*
X45384819Y-107672142D02*
X45384819Y-107291190D01*
X45384819Y-107291190D02*
X45432438Y-107195952D01*
X45432438Y-107195952D02*
X45480057Y-107148333D01*
X45480057Y-107148333D02*
X45575295Y-107100714D01*
X45575295Y-107100714D02*
X45718152Y-107100714D01*
X45718152Y-107100714D02*
X45813390Y-107148333D01*
X45813390Y-107148333D02*
X45861009Y-107195952D01*
X45861009Y-107195952D02*
X45908628Y-107291190D01*
X45908628Y-107291190D02*
X45908628Y-107672142D01*
X46384819Y-106148333D02*
X46384819Y-106719761D01*
X46384819Y-106434047D02*
X45384819Y-106434047D01*
X45384819Y-106434047D02*
X45527676Y-106529285D01*
X45527676Y-106529285D02*
X45622914Y-106624523D01*
X45622914Y-106624523D02*
X45670533Y-106719761D01*
D11*
%TO.C,J7*%
X162900000Y-127600000D02*
X171100000Y-127600000D01*
D12*
X169400000Y-127600000D02*
X171100000Y-125900000D01*
D11*
X171100000Y-127600000D02*
X171100000Y-117400000D01*
X162900000Y-117400000D02*
X162900000Y-127600000D01*
X171100000Y-117400000D02*
X162900000Y-117400000D01*
%TO.C,J3*%
X60100000Y-110000000D02*
G75*
G03*
X60100000Y-110000000I-2100000J0D01*
G01*
%TO.C,JP4*%
X151705000Y-59496000D02*
X151705000Y-58166000D01*
X153035000Y-59496000D02*
X151705000Y-59496000D01*
X154305000Y-59496000D02*
X156905000Y-59496000D01*
X154305000Y-59496000D02*
X154305000Y-56836000D01*
X156905000Y-59496000D02*
X156905000Y-56836000D01*
X154305000Y-56836000D02*
X156905000Y-56836000D01*
%TO.C,U3*%
X60255000Y-60675000D02*
X38805000Y-60675000D01*
X38805000Y-60675000D02*
X38805000Y-104425000D01*
X60000000Y-60680000D02*
X60000000Y-61980000D01*
X56845000Y-60680000D02*
X56840000Y-63810000D01*
X42220000Y-60680000D02*
X42220000Y-63810000D01*
X39060000Y-60680000D02*
X39060000Y-63810000D01*
X57150000Y-63810000D02*
X56840000Y-63810000D01*
X42220000Y-63810000D02*
X39060000Y-63810000D01*
X57415851Y-70979233D02*
X57254313Y-70979233D01*
X58782390Y-70980233D02*
X59073329Y-72630233D01*
X49430894Y-70980233D02*
X58782390Y-70980233D01*
X49430894Y-70980233D02*
X49353330Y-71057797D01*
X49353330Y-71057797D02*
X49353330Y-81062670D01*
X41861783Y-71261636D02*
X41861783Y-71711636D01*
X40111783Y-71261636D02*
X41861783Y-71261636D01*
X40111783Y-71711636D02*
X40111783Y-71261636D01*
X39836783Y-71711636D02*
X42136783Y-71711636D01*
X42236783Y-71811636D02*
X42236783Y-75411636D01*
X44723330Y-72240233D02*
X49353330Y-72240233D01*
X44723330Y-72240233D02*
X44723330Y-73080233D01*
X59073329Y-72630233D02*
X59073329Y-79490233D01*
X44723330Y-73080233D02*
X49353330Y-73080233D01*
X44723330Y-73940233D02*
X49353330Y-73940233D01*
X44723330Y-73940233D02*
X44723330Y-74780233D01*
X42136783Y-74641358D02*
X39836783Y-74641358D01*
X44723330Y-74780233D02*
X49353330Y-74780233D01*
X39736783Y-75411636D02*
X39736783Y-71811636D01*
X42136783Y-75511636D02*
X39836783Y-75511636D01*
X41861783Y-75511636D02*
X41861783Y-75961636D01*
X41625304Y-75512636D02*
X41719856Y-75512636D01*
X44723330Y-75640233D02*
X49353330Y-75640233D01*
X44723330Y-75640233D02*
X44723330Y-76480233D01*
X41861783Y-75961636D02*
X40111783Y-75961636D01*
X40111783Y-75961636D02*
X40111783Y-75511636D01*
X44723330Y-76480233D02*
X49353330Y-76480233D01*
X44723330Y-77340233D02*
X49353330Y-77340233D01*
X44723330Y-77340233D02*
X44723330Y-78180233D01*
X44723330Y-78180233D02*
X49353330Y-78180233D01*
X44723330Y-79040233D02*
X49353330Y-79040233D01*
X44723330Y-79040233D02*
X44723330Y-79880233D01*
X59073329Y-79490233D02*
X58782390Y-81140233D01*
X44723330Y-79880233D02*
X49353330Y-79880233D01*
X49353330Y-81062670D02*
X49430894Y-81140233D01*
X57993330Y-81140233D02*
X57993330Y-70980233D01*
X49430894Y-81140233D02*
X58782390Y-81140233D01*
X50834204Y-82697397D02*
X41134204Y-82697397D01*
X39634204Y-84197397D02*
X39634204Y-93897397D01*
X54837706Y-85529783D02*
X59737705Y-85529783D01*
X59787705Y-85579783D02*
X59787705Y-95479783D01*
X58469100Y-86566385D02*
X58437705Y-86590553D01*
X58412706Y-86578594D02*
X58417938Y-86554147D01*
X58412706Y-86578594D02*
X58443925Y-86585764D01*
X58412706Y-86578594D02*
X58437705Y-86590553D01*
X57937706Y-86590553D02*
X57937706Y-88669014D01*
X58437705Y-88669014D02*
X58437705Y-86590553D01*
X52334204Y-93897397D02*
X52334204Y-84197397D01*
X59788705Y-94088978D02*
X59788705Y-94044106D01*
X59788705Y-94172312D02*
X59788705Y-94138357D01*
X41134204Y-95397397D02*
X50834204Y-95397397D01*
X54787706Y-95479783D02*
X54787706Y-85579783D01*
X59737705Y-95529783D02*
X54837706Y-95529783D01*
X58719704Y-98878681D02*
X58719704Y-99678681D01*
X57439705Y-98878681D02*
X59039704Y-98878681D01*
X59039704Y-99678681D02*
X59039704Y-98878681D01*
X59039704Y-99678681D02*
X57439705Y-99678681D01*
X57759705Y-99678681D02*
X57759705Y-98878681D01*
X57439705Y-99678681D02*
X57439705Y-98878681D01*
X60000000Y-101290000D02*
X60000000Y-104405000D01*
X56840000Y-101290000D02*
X60000000Y-101290000D01*
X56840000Y-101290000D02*
X56840000Y-104450000D01*
X42220000Y-101290000D02*
X42220000Y-104405000D01*
X39060000Y-101290000D02*
X42220000Y-101290000D01*
X39060000Y-101290000D02*
X39060000Y-104405000D01*
X60255000Y-104425000D02*
X60255000Y-60675000D01*
X38805000Y-104425000D02*
X60255000Y-104425000D01*
X42236764Y-71811636D02*
G75*
G03*
X42136783Y-71711636I-99964J36D01*
G01*
X39836783Y-71711683D02*
G75*
G03*
X39736783Y-71811636I-83J-99917D01*
G01*
X42136783Y-75511683D02*
G75*
G03*
X42236783Y-75411636I-83J100083D01*
G01*
X39736764Y-75411636D02*
G75*
G03*
X39836783Y-75511636I100036J36D01*
G01*
X52334203Y-84197397D02*
G75*
G03*
X50834204Y-82697397I-1500003J-3D01*
G01*
X48819783Y-84045278D02*
G75*
G03*
X48953990Y-84011131I49317J86978D01*
G01*
X51020469Y-86077610D02*
G75*
G03*
X48953989Y-84011132I-793629J1272850D01*
G01*
X43014441Y-84011118D02*
G75*
G03*
X43148591Y-84045216I84859J52918D01*
G01*
X48819815Y-84045222D02*
G75*
G03*
X43148590Y-84045219I-2835615J-5002178D01*
G01*
X41134204Y-82697404D02*
G75*
G03*
X39634204Y-84197397I-4J-1499996D01*
G01*
X59787717Y-85579783D02*
G75*
G03*
X59737705Y-85529783I-50017J-17D01*
G01*
X54837706Y-85529806D02*
G75*
G03*
X54787706Y-85579783I-6J-49994D01*
G01*
X43014410Y-84011137D02*
G75*
G03*
X40947938Y-86077611I-1272810J-793663D01*
G01*
X40982081Y-86211816D02*
G75*
G03*
X40947937Y-86077612I-86981J49316D01*
G01*
X51020470Y-86077613D02*
G75*
G03*
X50986384Y-86211783I53030J-84887D01*
G01*
X50986383Y-91883011D02*
G75*
G03*
X50986383Y-86211784I-5002178J2835613D01*
G01*
X57906310Y-86566385D02*
G75*
G03*
X57957473Y-86554148I281390J-1063415D01*
G01*
X40982024Y-86211783D02*
G75*
G03*
X40982024Y-91883011I5002180J-2835614D01*
G01*
X40947924Y-92017161D02*
G75*
G03*
X40982023Y-91883011I-52924J84861D01*
G01*
X50986359Y-91882998D02*
G75*
G03*
X51020469Y-92017183I87041J-49302D01*
G01*
X48953982Y-94083667D02*
G75*
G03*
X51020469Y-92017183I1272818J793667D01*
G01*
X50834204Y-95397404D02*
G75*
G03*
X52334204Y-93897397I-4J1500004D01*
G01*
X43148588Y-94049579D02*
G75*
G03*
X48819817Y-94049576I2835612J5002179D01*
G01*
X48953989Y-94083662D02*
G75*
G03*
X48819816Y-94049578I-84889J-53038D01*
G01*
X40947938Y-92017182D02*
G75*
G03*
X43014418Y-94083662I793622J-1272858D01*
G01*
X43148602Y-94049555D02*
G75*
G03*
X43014417Y-94083663I-49302J-87045D01*
G01*
X39634203Y-93897397D02*
G75*
G03*
X41134204Y-95397397I1499997J-3D01*
G01*
X59737705Y-95529805D02*
G75*
G03*
X59787705Y-95479783I-5J50005D01*
G01*
X54787717Y-95479783D02*
G75*
G03*
X54837706Y-95529783I49983J-17D01*
G01*
X53462582Y-64876666D02*
G75*
G03*
X53462582Y-64876666I-4000000J0D01*
G01*
X59383999Y-67310000D02*
G75*
G03*
X59383999Y-67310000I-1598999J0D01*
G01*
X50640406Y-71903179D02*
G75*
G03*
X50640406Y-71903179I-375000J0D01*
G01*
X51234204Y-89047397D02*
G75*
G03*
X51234204Y-89047397I-5250000J0D01*
G01*
X42874000Y-97790000D02*
G75*
G03*
X42874000Y-97790000I-1599000J0D01*
G01*
X52964794Y-100259307D02*
G75*
G03*
X52964794Y-100259307I-4000000J0D01*
G01*
%TO.C,J1*%
X60100000Y-117000000D02*
G75*
G03*
X60100000Y-117000000I-2100000J0D01*
G01*
%TO.C,J4*%
X162900000Y-116600000D02*
X171100000Y-116600000D01*
D12*
X169400000Y-116600000D02*
X171100000Y-114900000D01*
D11*
X171100000Y-116600000D02*
X171100000Y-106400000D01*
X162900000Y-106400000D02*
X162900000Y-116600000D01*
X171100000Y-106400000D02*
X162900000Y-106400000D01*
D13*
%TO.C,BT2*%
X114476000Y-137619000D02*
X114476000Y-136919000D01*
X113776000Y-136919000D02*
X114476000Y-136919000D01*
X114476000Y-136919000D02*
X115176000Y-136919000D01*
X114476000Y-136919000D02*
X114476000Y-136219000D01*
X109715000Y-134545000D02*
X118165000Y-134545000D01*
X109715000Y-134545000D02*
X109715000Y-98395000D01*
X121865000Y-134545000D02*
X121865000Y-132045000D01*
X137265000Y-134545000D02*
X121865000Y-134545000D01*
X140965000Y-134545000D02*
X140965000Y-132045000D01*
X149415000Y-134545000D02*
X140965000Y-134545000D01*
X118165000Y-132045000D02*
X118165000Y-134545000D01*
X121865000Y-132045000D02*
X118165000Y-132045000D01*
X137265000Y-132045000D02*
X137265000Y-134545000D01*
X140965000Y-132045000D02*
X137265000Y-132045000D01*
X115815000Y-129445000D02*
X115815000Y-62545000D01*
X120015000Y-129445000D02*
X115815000Y-129445000D01*
X124115000Y-129445000D02*
X120015000Y-129445000D01*
X135015000Y-129445000D02*
X139115000Y-129445000D01*
X139115000Y-129445000D02*
X143315000Y-129445000D01*
X143315000Y-129445000D02*
X143315000Y-62545000D01*
X109715000Y-98395000D02*
X110965000Y-98395000D01*
X110965000Y-98395000D02*
X110965000Y-93595000D01*
X148165000Y-98395000D02*
X149415000Y-98395000D01*
X149415000Y-98395000D02*
X149415000Y-134545000D01*
X109715000Y-93595000D02*
X109715000Y-57445000D01*
X110965000Y-93595000D02*
X109715000Y-93595000D01*
X148165000Y-93595000D02*
X148165000Y-98395000D01*
X149415000Y-93595000D02*
X148165000Y-93595000D01*
X115815000Y-62545000D02*
X120015000Y-62545000D01*
X120015000Y-62545000D02*
X124115000Y-62545000D01*
X124115000Y-62545000D02*
X124115000Y-129445000D01*
X135015000Y-62545000D02*
X135015000Y-129445000D01*
X139115000Y-62545000D02*
X135015000Y-62545000D01*
X143315000Y-62545000D02*
X139115000Y-62545000D01*
X118165000Y-59945000D02*
X118165000Y-57445000D01*
X121865000Y-59945000D02*
X118165000Y-59945000D01*
X137265000Y-59945000D02*
X137265000Y-57445000D01*
X140965000Y-59945000D02*
X137265000Y-59945000D01*
X109715000Y-57445000D02*
X118165000Y-57445000D01*
X121865000Y-57445000D02*
X121865000Y-59945000D01*
X121865000Y-57445000D02*
X137265000Y-57445000D01*
X140965000Y-57445000D02*
X140965000Y-59945000D01*
X140965000Y-57445000D02*
X149415000Y-57445000D01*
X149415000Y-57445000D02*
X149415000Y-93595000D01*
X144654000Y-55771000D02*
X144654000Y-54371000D01*
X143954000Y-55071000D02*
X145354000Y-55071000D01*
X113065000Y-132045000D02*
G75*
G03*
X113065000Y-132045000I-850000J0D01*
G01*
X131065000Y-123745000D02*
G75*
G03*
X131065000Y-123745000I-1500000J0D01*
G01*
X131065000Y-68245000D02*
G75*
G03*
X131065000Y-68245000I-1500000J0D01*
G01*
%TO.C,BT1*%
X66216000Y-137619000D02*
X66216000Y-136919000D01*
X65516000Y-136919000D02*
X66216000Y-136919000D01*
X66216000Y-136919000D02*
X66916000Y-136919000D01*
X66216000Y-136919000D02*
X66216000Y-136219000D01*
X61455000Y-134545000D02*
X69905000Y-134545000D01*
X61455000Y-134545000D02*
X61455000Y-98395000D01*
X73605000Y-134545000D02*
X73605000Y-132045000D01*
X89005000Y-134545000D02*
X73605000Y-134545000D01*
X92705000Y-134545000D02*
X92705000Y-132045000D01*
X101155000Y-134545000D02*
X92705000Y-134545000D01*
X69905000Y-132045000D02*
X69905000Y-134545000D01*
X73605000Y-132045000D02*
X69905000Y-132045000D01*
X89005000Y-132045000D02*
X89005000Y-134545000D01*
X92705000Y-132045000D02*
X89005000Y-132045000D01*
X67555000Y-129445000D02*
X67555000Y-62545000D01*
X71755000Y-129445000D02*
X67555000Y-129445000D01*
X75855000Y-129445000D02*
X71755000Y-129445000D01*
X86755000Y-129445000D02*
X90855000Y-129445000D01*
X90855000Y-129445000D02*
X95055000Y-129445000D01*
X95055000Y-129445000D02*
X95055000Y-62545000D01*
X61455000Y-98395000D02*
X62705000Y-98395000D01*
X62705000Y-98395000D02*
X62705000Y-93595000D01*
X99905000Y-98395000D02*
X101155000Y-98395000D01*
X101155000Y-98395000D02*
X101155000Y-134545000D01*
X61455000Y-93595000D02*
X61455000Y-57445000D01*
X62705000Y-93595000D02*
X61455000Y-93595000D01*
X99905000Y-93595000D02*
X99905000Y-98395000D01*
X101155000Y-93595000D02*
X99905000Y-93595000D01*
X67555000Y-62545000D02*
X71755000Y-62545000D01*
X71755000Y-62545000D02*
X75855000Y-62545000D01*
X75855000Y-62545000D02*
X75855000Y-129445000D01*
X86755000Y-62545000D02*
X86755000Y-129445000D01*
X90855000Y-62545000D02*
X86755000Y-62545000D01*
X95055000Y-62545000D02*
X90855000Y-62545000D01*
X69905000Y-59945000D02*
X69905000Y-57445000D01*
X73605000Y-59945000D02*
X69905000Y-59945000D01*
X89005000Y-59945000D02*
X89005000Y-57445000D01*
X92705000Y-59945000D02*
X89005000Y-59945000D01*
X61455000Y-57445000D02*
X69905000Y-57445000D01*
X73605000Y-57445000D02*
X73605000Y-59945000D01*
X73605000Y-57445000D02*
X89005000Y-57445000D01*
X92705000Y-57445000D02*
X92705000Y-59945000D01*
X92705000Y-57445000D02*
X101155000Y-57445000D01*
X101155000Y-57445000D02*
X101155000Y-93595000D01*
X96394000Y-55771000D02*
X96394000Y-54371000D01*
X95694000Y-55071000D02*
X97094000Y-55071000D01*
X64805000Y-132045000D02*
G75*
G03*
X64805000Y-132045000I-850000J0D01*
G01*
X82805000Y-123745000D02*
G75*
G03*
X82805000Y-123745000I-1500000J0D01*
G01*
X82805000Y-68245000D02*
G75*
G03*
X82805000Y-68245000I-1500000J0D01*
G01*
D11*
%TO.C,U2*%
X172015000Y-60675000D02*
X150565000Y-60675000D01*
X150565000Y-60675000D02*
X150565000Y-104425000D01*
X171760000Y-60680000D02*
X171760000Y-61980000D01*
X168605000Y-60680000D02*
X168600000Y-63810000D01*
X153980000Y-60680000D02*
X153980000Y-63810000D01*
X150820000Y-60680000D02*
X150820000Y-63810000D01*
X168910000Y-63810000D02*
X168600000Y-63810000D01*
X153980000Y-63810000D02*
X150820000Y-63810000D01*
X169175851Y-70979233D02*
X169014313Y-70979233D01*
X170542390Y-70980233D02*
X170833329Y-72630233D01*
X161190894Y-70980233D02*
X170542390Y-70980233D01*
X161190894Y-70980233D02*
X161113330Y-71057797D01*
X161113330Y-71057797D02*
X161113330Y-81062670D01*
X153621783Y-71261636D02*
X153621783Y-71711636D01*
X151871783Y-71261636D02*
X153621783Y-71261636D01*
X151871783Y-71711636D02*
X151871783Y-71261636D01*
X151596783Y-71711636D02*
X153896783Y-71711636D01*
X153996783Y-71811636D02*
X153996783Y-75411636D01*
X156483330Y-72240233D02*
X161113330Y-72240233D01*
X156483330Y-72240233D02*
X156483330Y-73080233D01*
X170833329Y-72630233D02*
X170833329Y-79490233D01*
X156483330Y-73080233D02*
X161113330Y-73080233D01*
X156483330Y-73940233D02*
X161113330Y-73940233D01*
X156483330Y-73940233D02*
X156483330Y-74780233D01*
X153896783Y-74641358D02*
X151596783Y-74641358D01*
X156483330Y-74780233D02*
X161113330Y-74780233D01*
X151496783Y-75411636D02*
X151496783Y-71811636D01*
X153896783Y-75511636D02*
X151596783Y-75511636D01*
X153621783Y-75511636D02*
X153621783Y-75961636D01*
X153385304Y-75512636D02*
X153479856Y-75512636D01*
X156483330Y-75640233D02*
X161113330Y-75640233D01*
X156483330Y-75640233D02*
X156483330Y-76480233D01*
X153621783Y-75961636D02*
X151871783Y-75961636D01*
X151871783Y-75961636D02*
X151871783Y-75511636D01*
X156483330Y-76480233D02*
X161113330Y-76480233D01*
X156483330Y-77340233D02*
X161113330Y-77340233D01*
X156483330Y-77340233D02*
X156483330Y-78180233D01*
X156483330Y-78180233D02*
X161113330Y-78180233D01*
X156483330Y-79040233D02*
X161113330Y-79040233D01*
X156483330Y-79040233D02*
X156483330Y-79880233D01*
X170833329Y-79490233D02*
X170542390Y-81140233D01*
X156483330Y-79880233D02*
X161113330Y-79880233D01*
X161113330Y-81062670D02*
X161190894Y-81140233D01*
X169753330Y-81140233D02*
X169753330Y-70980233D01*
X161190894Y-81140233D02*
X170542390Y-81140233D01*
X162594204Y-82697397D02*
X152894204Y-82697397D01*
X151394204Y-84197397D02*
X151394204Y-93897397D01*
X166597706Y-85529783D02*
X171497705Y-85529783D01*
X171547705Y-85579783D02*
X171547705Y-95479783D01*
X170229100Y-86566385D02*
X170197705Y-86590553D01*
X170172706Y-86578594D02*
X170177938Y-86554147D01*
X170172706Y-86578594D02*
X170203925Y-86585764D01*
X170172706Y-86578594D02*
X170197705Y-86590553D01*
X169697706Y-86590553D02*
X169697706Y-88669014D01*
X170197705Y-88669014D02*
X170197705Y-86590553D01*
X164094204Y-93897397D02*
X164094204Y-84197397D01*
X171548705Y-94088978D02*
X171548705Y-94044106D01*
X171548705Y-94172312D02*
X171548705Y-94138357D01*
X152894204Y-95397397D02*
X162594204Y-95397397D01*
X166547706Y-95479783D02*
X166547706Y-85579783D01*
X171497705Y-95529783D02*
X166597706Y-95529783D01*
X170479704Y-98878681D02*
X170479704Y-99678681D01*
X169199705Y-98878681D02*
X170799704Y-98878681D01*
X170799704Y-99678681D02*
X170799704Y-98878681D01*
X170799704Y-99678681D02*
X169199705Y-99678681D01*
X169519705Y-99678681D02*
X169519705Y-98878681D01*
X169199705Y-99678681D02*
X169199705Y-98878681D01*
X171760000Y-101290000D02*
X171760000Y-104405000D01*
X168600000Y-101290000D02*
X171760000Y-101290000D01*
X168600000Y-101290000D02*
X168600000Y-104450000D01*
X153980000Y-101290000D02*
X153980000Y-104405000D01*
X150820000Y-101290000D02*
X153980000Y-101290000D01*
X150820000Y-101290000D02*
X150820000Y-104405000D01*
X172015000Y-104425000D02*
X172015000Y-60675000D01*
X150565000Y-104425000D02*
X172015000Y-104425000D01*
X153996764Y-71811636D02*
G75*
G03*
X153896783Y-71711636I-99964J36D01*
G01*
X151596783Y-71711683D02*
G75*
G03*
X151496783Y-71811636I-83J-99917D01*
G01*
X153896783Y-75511683D02*
G75*
G03*
X153996783Y-75411636I-83J100083D01*
G01*
X151496764Y-75411636D02*
G75*
G03*
X151596783Y-75511636I100036J36D01*
G01*
X164094203Y-84197397D02*
G75*
G03*
X162594204Y-82697397I-1500003J-3D01*
G01*
X160579783Y-84045278D02*
G75*
G03*
X160713990Y-84011131I49317J86978D01*
G01*
X162780469Y-86077610D02*
G75*
G03*
X160713989Y-84011132I-793629J1272850D01*
G01*
X154774441Y-84011118D02*
G75*
G03*
X154908591Y-84045216I84859J52918D01*
G01*
X160579815Y-84045222D02*
G75*
G03*
X154908590Y-84045219I-2835615J-5002178D01*
G01*
X152894204Y-82697404D02*
G75*
G03*
X151394204Y-84197397I-4J-1499996D01*
G01*
X171547717Y-85579783D02*
G75*
G03*
X171497705Y-85529783I-50017J-17D01*
G01*
X166597706Y-85529806D02*
G75*
G03*
X166547706Y-85579783I-6J-49994D01*
G01*
X154774410Y-84011137D02*
G75*
G03*
X152707938Y-86077611I-1272810J-793663D01*
G01*
X152742081Y-86211816D02*
G75*
G03*
X152707937Y-86077612I-86981J49316D01*
G01*
X162780470Y-86077613D02*
G75*
G03*
X162746384Y-86211783I53030J-84887D01*
G01*
X162746383Y-91883011D02*
G75*
G03*
X162746383Y-86211784I-5002178J2835613D01*
G01*
X169666310Y-86566385D02*
G75*
G03*
X169717473Y-86554148I281390J-1063415D01*
G01*
X152742024Y-86211783D02*
G75*
G03*
X152742024Y-91883011I5002180J-2835614D01*
G01*
X152707924Y-92017161D02*
G75*
G03*
X152742023Y-91883011I-52924J84861D01*
G01*
X162746359Y-91882998D02*
G75*
G03*
X162780469Y-92017183I87041J-49302D01*
G01*
X160713982Y-94083667D02*
G75*
G03*
X162780469Y-92017183I1272818J793667D01*
G01*
X162594204Y-95397404D02*
G75*
G03*
X164094204Y-93897397I-4J1500004D01*
G01*
X154908588Y-94049579D02*
G75*
G03*
X160579817Y-94049576I2835612J5002179D01*
G01*
X160713989Y-94083662D02*
G75*
G03*
X160579816Y-94049578I-84889J-53038D01*
G01*
X152707938Y-92017182D02*
G75*
G03*
X154774418Y-94083662I793622J-1272858D01*
G01*
X154908602Y-94049555D02*
G75*
G03*
X154774417Y-94083663I-49302J-87045D01*
G01*
X151394203Y-93897397D02*
G75*
G03*
X152894204Y-95397397I1499997J-3D01*
G01*
X171497705Y-95529805D02*
G75*
G03*
X171547705Y-95479783I-5J50005D01*
G01*
X166547717Y-95479783D02*
G75*
G03*
X166597706Y-95529783I49983J-17D01*
G01*
X165222582Y-64876666D02*
G75*
G03*
X165222582Y-64876666I-4000000J0D01*
G01*
X171143999Y-67310000D02*
G75*
G03*
X171143999Y-67310000I-1598999J0D01*
G01*
X162400406Y-71903179D02*
G75*
G03*
X162400406Y-71903179I-375000J0D01*
G01*
X162994204Y-89047397D02*
G75*
G03*
X162994204Y-89047397I-5250000J0D01*
G01*
X154634000Y-97790000D02*
G75*
G03*
X154634000Y-97790000I-1599000J0D01*
G01*
X164724794Y-100259307D02*
G75*
G03*
X164724794Y-100259307I-4000000J0D01*
G01*
%TO.C,J2*%
X157100000Y-119000000D02*
G75*
G03*
X157100000Y-119000000I-2100000J0D01*
G01*
%TO.C,J15*%
X48296000Y-110430000D02*
X40096000Y-110430000D01*
D12*
X41796000Y-110430000D02*
X40096000Y-112130000D01*
D11*
X40096000Y-110430000D02*
X40096000Y-120630000D01*
X48296000Y-120630000D02*
X48296000Y-110430000D01*
X40096000Y-120630000D02*
X48296000Y-120630000D01*
%TO.C,JP3*%
X59750000Y-56582000D02*
X59750000Y-57912000D01*
X58420000Y-56582000D02*
X59750000Y-56582000D01*
X57150000Y-56582000D02*
X54550000Y-56582000D01*
X57150000Y-56582000D02*
X57150000Y-59242000D01*
X54550000Y-56582000D02*
X54550000Y-59242000D01*
X57150000Y-59242000D02*
X54550000Y-59242000D01*
%TO.C,JP2*%
X156130000Y-109030000D02*
X156130000Y-107700000D01*
X157460000Y-109030000D02*
X156130000Y-109030000D01*
X158730000Y-109030000D02*
X161330000Y-109030000D01*
X158730000Y-109030000D02*
X158730000Y-106370000D01*
X161330000Y-109030000D02*
X161330000Y-106370000D01*
X158730000Y-106370000D02*
X161330000Y-106370000D01*
%TO.C,J6*%
X50400000Y-131900000D02*
X50400000Y-140100000D01*
D12*
X50400000Y-138400000D02*
X52100000Y-140100000D01*
D11*
X50400000Y-140100000D02*
X60600000Y-140100000D01*
X60600000Y-131900000D02*
X50400000Y-131900000D01*
X60600000Y-140100000D02*
X60600000Y-131900000D01*
%TO.C,J11*%
X157040000Y-113000000D02*
G75*
G03*
X157040000Y-113000000I-2100000J0D01*
G01*
%TO.C,J13*%
X158564000Y-53594000D02*
G75*
G03*
X158564000Y-53594000I-2100000J0D01*
G01*
%TO.C,J8*%
X150400000Y-131900000D02*
X150400000Y-140100000D01*
D12*
X150400000Y-138400000D02*
X152100000Y-140100000D01*
D11*
X150400000Y-140100000D02*
X160600000Y-140100000D01*
X160600000Y-131900000D02*
X150400000Y-131900000D01*
X160600000Y-140100000D02*
X160600000Y-131900000D01*
%TO.C,J9*%
X63314000Y-53340000D02*
G75*
G03*
X63314000Y-53340000I-2100000J0D01*
G01*
%TO.C,J10*%
X57980000Y-53340000D02*
G75*
G03*
X57980000Y-53340000I-2100000J0D01*
G01*
%TO.C,J12*%
X152976000Y-53594000D02*
G75*
G03*
X152976000Y-53594000I-2100000J0D01*
G01*
%TO.C,J5*%
X48296000Y-121352000D02*
X40096000Y-121352000D01*
D12*
X41796000Y-121352000D02*
X40096000Y-123052000D01*
D11*
X40096000Y-121352000D02*
X40096000Y-131552000D01*
X48296000Y-131552000D02*
X48296000Y-121352000D01*
X40096000Y-131552000D02*
X48296000Y-131552000D01*
%TO.C,JP1*%
X46930000Y-108645000D02*
X46930000Y-107315000D01*
X48260000Y-108645000D02*
X46930000Y-108645000D01*
X49530000Y-108645000D02*
X52130000Y-108645000D01*
X49530000Y-108645000D02*
X49530000Y-105985000D01*
X52130000Y-108645000D02*
X52130000Y-105985000D01*
X49530000Y-105985000D02*
X52130000Y-105985000D01*
%TD*%
M02*
