M48
; DRILL file {KiCad 7.0.7} date 2023 October 16, Monday 23:42:27
; FORMAT={-:-/ absolute / inch / decimal}
; #@! TF.CreationDate,2023-10-16T23:42:27-07:00
; #@! TF.GenerationSoftware,Kicad,Pcbnew,7.0.7
; #@! TF.FileFunction,Plated,1,2,PTH
FMAT,2
INCH
; #@! TA.AperFunction,Plated,PTH,ComponentDrill
T1C0.0394
; #@! TA.AperFunction,Plated,PTH,ViaDrill
T2C0.0500
; #@! TA.AperFunction,Plated,PTH,ComponentDrill
T3C0.0520
; #@! TA.AperFunction,Plated,PTH,ComponentDrill
T4C0.0787
%
G90
G05
T1
X1.6Y-2.45
X1.6Y-4.05
X1.9Y-4.225
X2.0Y-4.225
X2.2Y-2.28
X2.3Y-2.28
X2.3Y-2.45
X2.3Y-4.05
X6.0Y-2.45
X6.0Y-4.05
X6.025Y-2.29
X6.125Y-2.29
X6.1992Y-4.2402
X6.2992Y-4.2402
X6.7Y-2.45
X6.7Y-4.05
T2
X1.85Y-2.46
X2.19Y-5.48
X2.6Y-2.17
X3.08Y-2.17
X4.73Y-2.38
X5.0Y-2.16
X6.0Y-3.41
X6.22Y-4.92
T3
X1.74Y-4.45
X1.74Y-4.6469
X1.74Y-4.88
X1.74Y-5.0769
X2.0866Y-5.3543
X2.2835Y-5.3543
X6.0236Y-5.3543
X6.2205Y-5.3543
X6.5748Y-4.2913
X6.5748Y-4.4882
X6.5748Y-4.7244
X6.5748Y-4.9213
T4
X2.2Y-2.1
X2.2835Y-4.3307
X2.2835Y-4.6063
X2.41Y-2.1
X5.94Y-2.11
X6.1Y-4.4488
X6.1024Y-4.685
X6.16Y-2.11
T0
M30
